<?xml version="1.0" encoding="utf-8"?>
<!-- Generator: Adobe Illustrator 17.1.0, SVG Export Plug-In . SVG Version: 6.00 Build 0)  -->
<!DOCTYPE svg PUBLIC "-//W3C//DTD SVG 1.1//EN" "http://www.w3.org/Graphics/SVG/1.1/DTD/svg11.dtd">
<svg version="1.1" id="Layer_1" xmlns="http://www.w3.org/2000/svg" xmlns:xlink="http://www.w3.org/1999/xlink" x="0px" y="0px"
	 width="207.5px" height="99.4px" viewBox="0 0 207.5 99.4" enable-background="new 0 0 207.5 99.4" xml:space="preserve">
<g>
	<circle fill="#45A146" cx="50.1" cy="43.1" r="36.5"/>
	<path fill="none" stroke="#000000" stroke-width="1.5" stroke-miterlimit="10" d="M207.5,79.4c0,11-9,20-20,20H20c-11,0-20-9-20-20
		V20C0,9,9,0,20,0h167.5c11,0,20,9,20,20V79.4z"/>
	<rect x="8.6" y="19" fill="none" width="83.7" height="56.2"/>
	<text transform="matrix(1 0 0 1 28.4214 67.3872)" font-family="'DINPro-Black'" font-size="68">G</text>
	<rect x="103.7" y="10" fill="none" width="98.2" height="32.4"/>
	<text transform="matrix(1 0 0 1 103.734 19.9383)"><tspan x="0" y="0" font-family="'DINCond-Regular'" font-size="14">Suitable for General </tspan><tspan x="0" y="14" font-family="'DINCond-Regular'" font-size="14">Audiences.</tspan></text>
	<rect x="7.6" y="81.3" fill="none" width="84.7" height="13.7"/>
	<text transform="matrix(1 0 0 1 8.5591 85.5772)" opacity="0.5"><tspan x="0" y="0" font-family="'DINPro-Regular'" font-size="6">Films, Videos, and Publications </tspan><tspan x="11.4" y="7" font-family="'DINPro-Regular'" font-size="6">Classification Act 1993</tspan></text>
</g>
</svg>
