<?xml version="1.0" encoding="utf-8"?>
<!-- Generator: Adobe Illustrator 15.0.2, SVG Export Plug-In . SVG Version: 6.00 Build 0)  -->
<!DOCTYPE svg PUBLIC "-//W3C//DTD SVG 1.1//EN" "http://www.w3.org/Graphics/SVG/1.1/DTD/svg11.dtd">
<svg version="1.1" id="Ebene_1" xmlns="http://www.w3.org/2000/svg" xmlns:xlink="http://www.w3.org/1999/xlink" x="0px" y="0px"
	 width="1016.063px" height="1016.063px" viewBox="0 0 1016.063 1016.063" enable-background="new 0 0 1016.063 1016.063"
	 xml:space="preserve">
<path fill="#FFFFFF" d="M914.161,998.414H101.905c-46.813,0-84.264-42.465-84.264-93.553v-793.66
	c0-51.106,37.452-93.554,84.264-93.554h812.256c46.095,0,84.264,42.447,84.264,93.554v793.661
	C998.425,955.949,960.256,998.414,914.161,998.414"/>
<path fill="none" stroke="#DCDDDE" stroke-width="35.262" d="M101.905,17.647h812.256c46.095,0,84.264,42.447,84.264,93.554v793.661
	c0,51.088-38.169,93.553-84.264,93.553H101.905c-46.813,0-84.264-42.465-84.264-93.553V111.201
	C17.641,60.094,55.092,17.647,101.905,17.647z"/>
<path fill="#FFFFFF" d="M539.108,97.564l374.943,365.253c21.722,20.235,20.256,57.129-2.861,81.015L553.604,910.518
	c-23.137,23.151-59.365,25.316-81.069,5.063L97.607,549.611c-21.702-20.252-20.236-57.164,2.899-80.299l357.588-366.667
	C481.23,78.759,517.407,76.576,539.108,97.564"/>
<path fill="none" stroke="#000000" stroke-width="20.123" d="M539.108,97.564l374.943,365.253
	c21.722,20.235,20.256,57.129-2.861,81.015L553.604,910.518c-23.137,23.151-59.365,25.316-81.069,5.063L97.607,549.611
	c-21.702-20.252-20.236-57.164,2.899-80.299l357.588-366.667C481.23,78.759,517.407,76.576,539.108,97.564z"/>
<polyline points="336.222,731.967 341.338,731.967 341.338,729.802 342.053,723.938 344.985,720.271 350.818,719.535 
	357.436,720.271 356.685,726.135 353.036,726.135 350.103,726.87 349.387,729.802 349.387,731.967 355.969,731.967 355.969,738.532 
	349.387,738.532 349.387,763.398 341.338,763.398 341.338,738.532 336.222,738.532 336.222,731.967 "/>
<path d="M368.367,763.398h-8.051v-31.433h7.333v4.4l3.649-3.633l3.649-1.464l5.866,1.464L377.881,740l-3.649-1.469L371.298,740
	l-2.181,3.667c-0.751,1.464-0.751,5.098-0.751,10.229L368.367,763.398"/>
<path d="M396.914,764.095c-5.867,0-9.517-1.468-12.449-5.097c-1.467-2.934-2.933-6.565-2.933-10.968
	c0-5.098,1.466-9.498,4.398-12.433c2.185-2.932,5.867-4.397,10.232-4.397h0.751v6.599l-5.116,2.202l-1.466,5.131h6.583v5.099h-6.583
	l2.182,5.835l4.401,2.167L396.914,764.095 M396.914,731.2c4.347,0,8.032,1.467,10.214,5.134c2.932,2.934,4.4,7.334,3.649,13.896
	h-13.864v-5.099h5.813l-1.466-5.131l-4.347-2.202L396.914,731.2L396.914,731.2z M402.011,753.896l8.768,1.468l-5.116,6.532
	c-2.185,1.502-5.116,2.197-8.748,2.197v-5.862l3.632-1.47L402.011,753.896z"/>
<path d="M426.16,763.398h-8.049v-31.433h8.049V763.398z M426.16,727.604h-8.049v-7.3h8.049V727.604z"/>
<path d="M448.788,763.398h-2.899c-4.398,0-7.313-1.469-10.249-5.103c-1.431-2.933-2.896-6.6-2.896-10.267
	c0-5.797,1.467-9.429,4.365-12.433c2.198-2.863,5.098-4.328,9.499-4.328h2.182v6.565l-5.116,2.165l-2.182,7.333l2.182,7.296
	l4.401,2.203h0.715L448.788,763.398 M434.209,765.631l9.462,1.396l0.751,2.236l4.365,0.696v6.6c-5.116,0-9.481-0.729-11.68-2.934
	l-2.898-6.6V765.631z M448.788,769.961l4.401-0.696l2.182-2.236v-8.73l-6.583,5.103v-6.565l4.401-2.203l2.182-7.296l-1.431-7.333
	l-5.152-2.165v-6.564l7.334,5.097v-4.4h8.048v28.495c0,3.704-0.75,6.565-1.466,8.034l-2.217,4.396l-4.365,2.938l-7.334,0.729
	V769.961z"/>
<path d="M484.618,764.095c-5.117,0-9.463-1.468-11.681-5.097c-2.185-2.934-2.936-6.565-2.936-10.968
	c0-5.098,0.75-9.498,3.686-12.433c2.896-2.932,6.582-4.397,10.214-4.397h0.716v6.599l-4.348,2.202l-2.234,5.131h6.583v5.099h-6.583
	l2.234,5.835l4.348,2.167L484.618,764.095 M484.618,731.2c4.399,0,8.048,1.467,10.982,5.134c2.182,2.934,3.648,7.334,3.648,13.896
	h-14.631v-5.099h6.583l-2.183-5.131l-4.399-2.202L484.618,731.2L484.618,731.2z M490.484,753.896l8.049,1.468l-5.117,6.532
	c-2.216,1.502-5.116,2.197-8.799,2.197v-5.862h0.75l2.933-1.47L490.484,753.896z"/>
<path d="M519.729,763.398h-2.913c-3.648,0-7.301-1.469-9.518-5.103c-2.181-2.933-2.896-6.6-2.896-10.267
	c0-5.797,0.716-9.429,3.647-12.433c2.184-2.863,5.833-4.328,9.516-4.328h2.164v6.565l-5.099,2.165l-2.183,7.333l2.183,7.296
	l5.099,2.203V763.398 M505.116,765.631l9.514,1.396l1.469,2.236l3.63,0.696v6.6c-5.099,0-8.744-0.729-10.963-2.934l-3.648-6.6
	L505.116,765.631L505.116,765.631z M519.729,769.961l5.116-0.696l1.47-2.236v-8.73l-6.586,5.103v-6.565l5.116-2.203l2.186-7.296
	l-2.186-7.333l-5.116-2.165v-6.564l7.302,5.097v-4.4h8.049v28.495c0,3.704-0.716,6.565-0.716,8.034l-2.934,4.396l-4.399,2.938
	l-7.302,0.729V769.961z"/>
<path d="M555.557,764.095c-5.096,0-8.797-1.468-11.663-5.097c-2.231-2.934-2.932-6.565-2.932-10.968
	c0-5.098,1.468-9.498,3.633-12.433c2.934-2.932,6.565-4.397,10.962-4.397v6.599l-4.396,2.202l-1.469,5.131h5.864v5.099h-6.562
	l2.165,5.835l4.396,2.167L555.557,764.095 M555.557,731.2c4.368,0,8.034,1.467,10.969,5.134c2.933,2.934,3.665,7.334,3.665,13.896
	h-14.634v-5.099h6.565l-2.197-5.131l-4.368-2.202V731.2z M561.389,753.896l8.802,1.468l-5.135,6.532l-8.764,2.197h-0.735v-5.862
	h0.735l2.932-1.47L561.389,753.896z"/>
<path d="M576.789,763.398v-43.096h8.034v15.295l7.296-4.328v6.565L586.988,740l-2.165,7.296l1.465,7.333l5.831,2.934v6.531
	l-2.933-0.695l-4.363-4.368v4.368H576.789 M592.119,731.271h2.203c3.666,0,7.296,1.464,9.498,4.327
	c2.198,2.935,3.667,6.602,3.667,11.698c0,5.869-1.469,9.536-3.667,12.469c-2.937,2.935-5.832,4.329-9.498,4.329h-2.203v-6.53
	l5.099-2.199c1.467-1.469,1.467-3.667,1.467-7.334c0-3.629,0-6.565-1.467-8.029l-5.099-2.165V731.271z"/>
<path d="M626.484,764.095c-5.136,0-8.77-1.468-11.701-5.097c-2.165-2.934-2.933-6.565-2.933-10.968c0-5.098,1.468-9.498,4.4-12.433
	c2.165-2.932,5.864-4.397,10.232-4.397v6.599l-4.368,2.202l-1.464,5.131h5.832v5.099h-5.832l1.464,5.835l4.368,2.167
	L626.484,764.095 M626.484,731.2c5.131,0,8.063,1.467,10.962,5.134c2.934,2.934,4.401,7.334,3.667,13.896h-14.629v-5.099h6.6
	l-2.202-5.131l-3.667-2.202h-0.729L626.484,731.2L626.484,731.2z M632.351,753.896l8.764,1.468l-5.098,6.532
	c-2.201,1.502-5.135,2.197-8.802,2.197h-0.729v-5.862h0.729l3.667-1.47L632.351,753.896z"/>
<path d="M676.942,763.398h-8.03v-16.103l-0.734-6.563l-2.197-2.202l-2.938-0.696l-3.666,1.464l-2.199,2.899
	c-0.699,1.469-0.699,3.634-0.699,7.3v13.898h-8.03v-31.432h7.263v5.102c2.938-3.633,6.604-5.798,10.271-5.798l5.098,1.465l3.7,2.165
	l1.396,3.633l0.77,5.869v18.998"/>
<path d="M496.35,382.709v46.776c-6.581,0-13.198,2.182-18.313,5.832c-5.098,4.398-9.499,12.431-12.398,23.379
	c-3.683,14.632-5.865,38.728-5.865,73.055c0,33.611,2.183,57.006,5.114,70.171c3.65,12.396,8.051,21.165,13.149,25.563
	c5.116,3.634,11.732,5.799,18.313,5.799v46.795c-28.528,0-51.211-10.933-68.723-32.862c-16.849-21.896-25.616-60.658-25.616-116.18
	c0-54.809,9.519-94.251,28.515-118.364C445.889,392.941,467.821,382.709,496.35,382.709 M496.35,382.709
	c27.779,0,49.709,10.232,65.772,30.677c18.997,23.398,28.533,62.84,28.533,118.365c0,54.806-9.536,94.269-28.533,118.363
	c-16.063,19.729-37.993,29.963-65.772,29.963v-46.795c6.584,0,12.416-2.165,17.532-5.799c5.847-4.396,9.498-12.432,12.433-23.396
	c3.647-14.597,5.83-38.725,5.83-72.336c0-34.327-1.431-57.708-5.114-70.873c-3.649-12.415-8.031-21.162-13.147-25.561
	c-5.116-3.649-10.947-5.832-17.532-5.832L496.35,382.709L496.35,382.709z"/>
<g>
	<path d="M472.542,329.944l-7.646-1.371c0.859-3.059,2.338-5.323,4.438-6.793c2.099-1.47,5.217-2.205,9.355-2.205
		c3.758,0,6.557,0.442,8.396,1.326c1.839,0.884,3.133,2.007,3.883,3.367c0.75,1.361,1.125,3.858,1.125,7.493l-0.09,9.773
		c0,2.781,0.135,4.832,0.405,6.152c0.27,1.321,0.774,2.737,1.514,4.246h-8.336c-0.22-0.556-0.49-1.38-0.81-2.473
		c-0.14-0.496-0.24-0.824-0.3-0.983c-1.439,1.39-2.979,2.433-4.618,3.128c-1.639,0.695-3.388,1.043-5.247,1.043
		c-3.279,0-5.862-0.884-7.751-2.652s-2.833-4.002-2.833-6.704c0-1.788,0.43-3.382,1.289-4.782s2.064-2.473,3.613-3.218
		c1.549-0.745,3.783-1.396,6.702-1.952c3.938-0.735,6.667-1.42,8.186-2.056v-0.834c0-1.609-0.4-2.756-1.199-3.441
		c-0.8-0.686-2.309-1.028-4.528-1.028c-1.499,0-2.668,0.293-3.508,0.879C473.741,327.446,473.061,328.474,472.542,329.944z
		 M483.815,336.737c-1.079,0.357-2.789,0.785-5.127,1.281c-2.338,0.497-3.868,0.983-4.587,1.46c-1.1,0.775-1.649,1.758-1.649,2.95
		c0,1.172,0.439,2.186,1.319,3.039c0.879,0.854,1.999,1.281,3.358,1.281c1.519,0,2.969-0.496,4.348-1.49
		c1.02-0.754,1.689-1.678,2.009-2.771c0.22-0.715,0.33-2.075,0.33-4.082V336.737z"/>
	<path d="M500.037,351.933v-43.68h8.426v15.732c2.599-2.939,5.677-4.41,9.235-4.41c3.878,0,7.086,1.396,9.625,4.186
		c2.538,2.791,3.808,6.799,3.808,12.022c0,5.403-1.294,9.564-3.883,12.484s-5.732,4.38-9.43,4.38c-1.819,0-3.613-0.452-5.383-1.356
		c-1.769-0.904-3.293-2.239-4.572-4.007v4.648H500.037z M508.403,335.426c0,3.277,0.52,5.701,1.559,7.27
		c1.459,2.225,3.398,3.337,5.817,3.337c1.858,0,3.442-0.79,4.752-2.369c1.31-1.58,1.964-4.067,1.964-7.464
		c0-3.615-0.659-6.222-1.979-7.821s-3.009-2.399-5.067-2.399c-2.02,0-3.698,0.78-5.037,2.339
		C509.072,329.88,508.403,332.249,508.403,335.426z"/>
</g>
<g>
	<path d="M389.877,204.278h16.131v42.866c0,6.802,0.199,11.211,0.6,13.227c0.689,3.239,2.334,5.84,4.932,7.801
		c2.597,1.962,6.148,2.942,10.654,2.942c4.578,0,8.029-0.926,10.354-2.78c2.325-1.853,3.724-4.13,4.196-6.829
		c0.472-2.7,0.708-7.181,0.708-13.443v-43.784h16.131v41.57c0,9.501-0.436,16.214-1.308,20.137
		c-0.872,3.923-2.479,7.234-4.823,9.934c-2.344,2.7-5.477,4.851-9.401,6.452s-9.046,2.402-15.368,2.402
		c-7.63,0-13.416-0.873-17.357-2.618c-3.942-1.746-7.057-4.013-9.346-6.803c-2.289-2.789-3.797-5.713-4.523-8.772
		c-1.054-4.535-1.58-11.229-1.58-20.083V204.278z"/>
	<path d="M466.5,257.671l15.695-1.511c0.944,5.219,2.861,9.052,5.75,11.499c2.888,2.448,6.785,3.671,11.689,3.671
		c5.195,0,9.109-1.088,11.744-3.266c2.634-2.177,3.951-4.724,3.951-7.639c0-1.871-0.555-3.463-1.662-4.778
		c-1.109-1.313-3.044-2.457-5.804-3.428c-1.89-0.647-6.195-1.799-12.916-3.455c-8.647-2.123-14.714-4.732-18.202-7.828
		c-4.905-4.354-7.357-9.664-7.357-15.926c0-4.03,1.153-7.801,3.461-11.31c2.307-3.509,5.631-6.182,9.973-8.017
		c4.341-1.835,9.582-2.753,15.723-2.753c10.027,0,17.575,2.178,22.644,6.533c5.068,4.355,7.729,10.168,7.983,17.438l-16.131,0.702
		c-0.69-4.067-2.171-6.992-4.441-8.773c-2.271-1.782-5.677-2.672-10.218-2.672c-4.687,0-8.357,0.954-11.008,2.861
		c-1.708,1.224-2.562,2.861-2.562,4.913c0,1.872,0.799,3.474,2.398,4.805c2.034,1.692,6.976,3.456,14.823,5.291
		c7.847,1.835,13.652,3.734,17.412,5.695c3.761,1.962,6.703,4.643,8.828,8.044c2.126,3.401,3.188,7.604,3.188,12.606
		c0,4.535-1.272,8.782-3.814,12.741c-2.544,3.959-6.141,6.902-10.791,8.827c-4.65,1.925-10.445,2.889-17.384,2.889
		c-10.101,0-17.857-2.313-23.27-6.938C470.786,273.265,467.553,266.525,466.5,257.671z"/>
	<path d="M545.248,283.423v-79.145h16.131v35.146l32.59-35.146h21.689l-30.082,30.827l31.717,48.318h-20.872l-21.962-37.143
		l-13.08,13.227v23.916H545.248z"/>
</g>
</svg>
