<?xml version="1.0" encoding="utf-8"?>
<!-- Generator: Adobe Illustrator 15.0.1, SVG Export Plug-In . SVG Version: 6.00 Build 0)  -->
<!DOCTYPE svg PUBLIC "-//W3C//DTD SVG 1.1//EN" "http://www.w3.org/Graphics/SVG/1.1/DTD/svg11.dtd">
<svg version="1.1" id="Ebene_1" xmlns="http://www.w3.org/2000/svg" xmlns:xlink="http://www.w3.org/1999/xlink" x="0px" y="0px"
	 width="1016.063px" height="1016.047px" viewBox="0 0 1016.063 1016.047" enable-background="new 0 0 1016.063 1016.047"
	 xml:space="preserve">
<path fill="#7ABC7A" d="M101.909,17.637h812.257c46.828,0,84.264,41.8,84.264,92.977v794.832c0,51.123-37.436,92.958-84.264,92.958
	H101.909c-46.095,0-84.264-41.835-84.264-92.958V110.613C17.646,59.437,55.814,17.637,101.909,17.637"/>
<path fill="none" stroke="#32A64C" stroke-width="35.262" d="M101.909,17.637h812.257c46.828,0,84.264,41.8,84.264,92.977v794.832
	c0,51.123-37.436,92.958-84.264,92.958H101.909c-46.095,0-84.264-41.835-84.264-92.958V110.613
	C17.646,59.437,55.814,17.637,101.909,17.637z"/>
<path fill="#32A64C" d="M539.151,96.942l375.678,365.777c20.953,21.005,20.254,57.218-2.933,81.139l-357.52,366.476
	c-23.188,23.956-60.098,26.121-81.086,5.099L97.649,550.371c-20.987-20.988-19.556-57.218,3.614-81.104l357.554-367.245
	C481.987,78.103,518.165,75.955,539.151,96.942"/>
<path fill="none" stroke="#000000" stroke-width="20.123" d="M539.151,96.942l375.678,365.777
	c20.953,21.005,20.254,57.218-2.933,81.139l-357.52,366.476c-23.188,23.956-60.098,26.121-81.086,5.099L97.649,550.371
	c-20.987-20.988-19.556-57.218,3.614-81.104l357.554-367.245C481.987,78.103,518.165,75.955,539.151,96.942z"/>
<path d="M390.337,204.008h16.046v43.162c0,6.618,0,10.983,0.75,13.2c0.716,3.649,2.183,5.867,4.4,8.049
	c2.899,2.183,6.583,2.934,10.948,2.934c4.399,0,8.049-0.751,10.266-2.934c2.183-2.182,3.649-4.4,4.365-6.583
	c0-2.933,0.751-7.333,0.751-13.916v-43.913h16.082v41.731c0,9.516-0.751,16.098-1.467,20.499c-0.751,3.649-2.217,7.281-5.116,10.214
	c-2.217,2.182-5.15,4.399-8.783,5.866c-4.364,2.183-9.515,2.898-15.347,2.898c-8.05,0-13.916-0.715-17.565-2.898
	c-4.382-1.467-7.316-3.684-9.498-6.617c-2.183-2.881-3.65-5.814-4.365-8.748c-1.467-5.116-1.467-11.698-1.467-20.498V204.008"/>
<path d="M467.11,257.402l15.33-1.466c0.751,5.116,2.934,9.516,5.867,11.733c2.899,2.183,6.583,3.649,11.699,3.649
	c5.116,0,8.765-0.716,11.699-2.933c2.933-2.183,3.648-5.116,3.648-8.049c0-1.467,0-3.649-1.467-4.4
	c-0.716-1.466-2.899-2.934-5.832-3.649c-1.466-0.716-5.866-2.182-12.449-3.649c-8.765-2.217-15.33-5.15-18.263-8.049
	c-5.116-4.4-7.299-9.551-7.299-16.116c0-3.649,0.716-8.049,2.899-10.983c2.217-3.648,5.867-6.582,10.249-8.765
	c4.365-1.466,9.481-2.217,15.348-2.217c10.232,0,17.564,2.217,22.664,6.617c5.116,4.365,8.049,10.232,8.049,17.565l-16.081,0.717
	c-0.75-4.365-2.184-7.334-4.4-8.766c-2.183-2.217-5.832-2.934-10.232-2.934s-8.049,0.716-10.982,2.934
	c-1.467,1.431-2.183,2.933-2.183,5.116c0,1.467,0.716,2.933,2.183,4.4c2.183,2.166,6.582,3.632,14.632,5.85
	c8.049,1.432,13.915,3.649,17.548,5.116c3.648,2.182,6.583,5.116,8.765,8.766c2.217,2.933,2.935,7.333,2.935,12.449
	c0,4.399-0.718,8.765-3.65,13.147c-2.182,3.685-5.866,6.583-10.964,8.8c-4.4,2.182-10.233,2.933-16.815,2.933
	c-10.267,0-18.264-2.217-23.414-7.333C470.76,273.483,467.826,266.919,467.11,257.402"/>
<polyline points="545.368,283.75 545.368,203.974 561.397,203.974 561.397,239.122 594.327,203.974 616.256,203.974 
	586.296,234.721 617.724,283.75 596.526,283.75 574.597,246.42 561.397,259.62 561.397,283.75 545.368,283.75 "/>
<path d="M336.943,732.272h4.399v-2.934c0-2.199,0.717-4.4,0.717-5.831c0.75-1.468,1.466-2.201,3.648-2.934
	c1.467-0.733,2.934-1.467,5.151-1.467c2.898,0,5.116,0.733,7.298,1.467l-1.466,5.832c-0.716-0.733-2.182-0.733-3.649-0.733
	c-0.716,0-2.183,0-2.183,0.733c-0.751,0.733-0.751,1.466-0.751,2.933v2.934h5.867v6.6h-5.867v24.864h-8.766v-24.864h-4.399V732.272"
	/>
<path d="M368.372,763.736h-8.049v-31.464h8.049v4.4c0.751-2.2,2.217-3.667,3.649-4.4c0.751-0.733,2.217-0.733,3.684-0.733
	c1.466,0,3.649,0,5.116,1.467l-2.934,7.333c-0.716-1.467-2.182-1.467-3.649-1.467c-0.75,0-2.217,0-2.934,0.699
	c-0.716,0.768-1.467,2.235-2.182,3.701c0,1.467-0.751,5.1-0.751,10.266V763.736"/>
<path d="M396.92,764.504c-5.116,0-9.516-2.235-11.733-5.866c-2.183-2.898-2.898-6.565-2.898-10.965
	c0-5.135,0.715-8.801,3.649-11.734c2.933-2.933,6.582-4.399,10.232-4.399h0.75v5.867c-1.467,0-2.934,0.733-4.4,2.199
	c-1.466,1.467-1.466,2.933-1.466,5.134h5.867v5.099h-6.583c0,2.933,0.716,4.399,2.183,5.901c1.467,1.432,2.933,2.199,4.4,2.199
	V764.504 M396.92,731.539c4.347,0,8.032,1.467,10.93,4.399c2.217,2.934,3.685,8.067,3.685,13.899H396.92v-5.099h6.564
	c0-2.201-0.75-3.667-2.217-5.134c-1.414-1.466-2.916-2.199-4.347-2.199V731.539z M402.734,753.538l8.049,1.468
	c-0.716,2.933-2.183,5.098-5.116,6.565c-2.183,2.165-5.116,2.933-8.032,2.933h-0.716v-6.565h0.716c0.716,0,2.217,0,2.916-0.768
	C401.267,756.473,402.018,755.006,402.734,753.538z"/>
<path d="M426.881,763.807h-8.765v-31.5h8.765V763.807z M426.881,727.908h-8.765v-8.033h8.765V727.908z"/>
<path d="M448.83,763.038c-0.75,0.769-1.467,0.769-2.217,0.769c-4.4,0-8.033-2.235-10.215-5.868
	c-2.182-2.933-2.933-5.866-2.933-10.266c0-5.135,1.466-9.499,3.648-12.468c2.934-2.898,5.85-3.666,9.499-3.666
	c0.75,0,1.467,0,2.217,0v5.867c-2.217,0-3.685,0.768-5.151,2.199c-0.716,2.201-1.467,4.4-1.467,7.333
	c0,3.667,0.751,5.868,1.467,7.334c1.466,1.467,2.934,2.898,5.151,2.898v-0.698V763.038 M434.215,765.972l9.463,0.733
	c0.75,1.432,0.75,2.199,1.466,2.199c0.751,0.697,2.217,1.467,3.685,1.467v5.866c-5.151,0-8.783-0.768-10.965-2.235
	c-2.182-2.165-3.649-4.4-3.649-7.297V765.972z M448.83,770.371c2.182,0,3.649-0.77,5.116-1.467c0.715,0,1.431-0.768,1.431-2.199
	c0-0.733,0.751-1.433,0.751-3.667v-4.4c-2.182,2.234-4.4,3.701-7.298,4.4v-6.565c2.182,0,3.649-0.733,5.116-2.2
	c1.431-1.466,2.182-3.667,2.182-6.6c0-3.667-0.751-5.866-2.182-7.334c-1.467-2.165-2.934-2.933-5.116-2.933v-5.867
	c2.898,0.768,5.832,2.234,7.298,5.168v-4.4h8.049v27.833c0,3.667,0,6.565-0.751,8.765c-0.715,1.467-1.431,2.933-2.897,4.4
	c-0.751,0.697-2.218,1.466-4.4,2.165c-1.467,0.768-4.4,0.768-6.583,0.768h-0.716V770.371z"/>
<path d="M484.624,764.504c-5.116,0-8.749-2.235-11.681-5.866c-2.183-2.898-2.899-6.565-2.899-10.965
	c0-5.135,1.467-8.801,4.365-11.734c2.183-2.933,5.867-4.399,10.215-4.399v5.867c-1.432,0-2.899,0.733-4.348,2.199
	c-0.768,1.467-1.466,2.933-1.466,5.134h5.814v5.099h-5.814c0,2.933,0.698,4.399,2.165,5.901c0.75,1.432,2.217,2.199,3.649,2.199
	V764.504 M484.624,731.539c5.116,0,8.049,1.467,10.982,4.399c2.934,2.934,4.4,8.067,3.649,13.899h-14.631v-5.099h6.618
	c0-2.201-0.751-3.667-2.218-5.134c-0.716-1.466-2.182-2.199-3.649-2.199h-0.75V731.539z M490.49,753.538l8.765,1.468
	c-1.467,2.933-2.898,5.098-5.116,6.565c-2.182,2.165-5.116,2.933-8.765,2.933h-0.75v-6.565h0.75c1.467,0,2.183,0,3.649-0.768
	C489.739,756.473,490.49,755.006,490.49,753.538z"/>
<path d="M519.736,763.038c-0.698,0.769-1.468,0.769-2.165,0.769c-4.4,0-7.334-2.235-10.267-5.868
	c-2.183-2.933-2.899-5.866-2.899-10.266c0-5.135,1.432-9.499,3.649-12.468c2.933-2.898,5.832-3.666,9.517-3.666
	c0.697,0,1.467,0,2.165,0v5.867c-1.468,0-3.633,0.768-4.383,2.199c-1.467,2.201-2.183,4.4-2.183,7.333
	c0,3.667,0.716,5.868,2.183,7.334c0.75,1.467,2.218,2.898,4.383,2.898v-0.698V763.038 M505.837,765.972l9.516,0.733
	c0,1.432,0,2.199,0.75,2.199c0.718,0.697,2.165,1.467,3.633,1.467v5.866c-5.099,0-8.749-0.768-10.965-2.235
	c-2.183-2.165-2.934-4.4-2.934-7.297V765.972z M519.736,770.371c2.183,0,4.399-0.77,5.115-1.467c0.752,0,1.468-0.768,1.468-2.199
	c0.716-0.733,0.716-1.433,0.716-3.667v-4.4c-2.184,2.234-4.366,3.701-7.299,4.4v-6.565c2.183,0,3.648-0.733,5.115-2.2
	c1.468-1.466,2.184-3.667,2.184-6.6c0-3.667-0.716-5.866-2.184-7.334c-0.716-2.165-2.933-2.933-5.115-2.933v-5.867
	c2.933,0.768,5.867,2.234,8.049,5.168v-4.4h7.299v27.833c0,3.667,0,6.565-0.716,8.765c-0.752,1.467-1.468,2.933-2.183,4.4
	c-1.468,0.697-2.934,1.466-5.15,2.165c-1.432,0.768-3.65,0.768-6.584,0.768h-0.715V770.371z"/>
<path d="M556.298,764.504c-5.832,0-9.533-2.235-11.698-5.866c-2.165-2.898-3.632-6.565-3.632-10.965c0-5.135,1.467-8.801,4.4-11.734
	c2.862-2.933,5.797-4.399,10.196-4.399h0.733v5.867c-2.199,0-3.667,0.733-4.364,2.199c-1.468,1.467-2.235,2.933-2.235,5.134h6.6
	v5.099h-6.6c0,2.933,0.768,4.399,2.235,5.901c0.697,1.432,2.165,2.199,4.364,2.199V764.504 M556.298,731.539
	c4.365,0,8.032,1.467,10.231,4.399c2.934,2.934,4.4,8.067,4.4,13.899h-14.632v-5.099h5.831c0-2.201-0.731-3.667-1.466-5.134
	c-1.433-1.466-2.898-2.199-4.365-2.199V731.539z M562.129,753.538l8.067,1.468c-0.733,2.933-2.933,5.098-5.133,6.565
	c-2.166,2.165-5.134,2.933-8.766,2.933v-6.565c1.467,0,2.933,0,3.632-0.768C560.663,756.473,561.397,755.006,562.129,753.538z"/>
<path d="M576.796,763.736v-43.861h8.73v16.063c2.235-2.933,4.4-3.666,6.601-4.399v5.867c-1.467,0-3.666,0.733-4.365,2.199
	c-1.466,2.201-2.235,4.4-2.235,7.333c0,3.667,0.77,5.832,1.467,7.299c1.468,2.165,2.934,3.701,5.134,3.701v5.798
	c-0.733,0-1.467,0-2.935-0.698c-1.431-0.77-2.896-2.235-4.364-4.4v5.099H576.796 M592.127,731.539c0.732,0,1.466,0,2.2,0
	c4.365,0,7.299,0.733,10.231,3.666c2.199,2.935,3.667,7.333,3.667,12.468c0,5.098-1.468,9.498-4.4,12.431
	c-2.199,2.935-5.133,4.4-8.765,4.4c-0.733,0-2.201,0-2.934-0.768v-5.798h0.732c1.468,0,3.667-0.768,4.366-2.933
	c1.467-1.468,2.235-3.701,2.235-7.333c0-3.667-0.769-5.866-2.235-7.334c-1.432-2.199-2.898-2.933-5.099-2.933V731.539z"/>
<path d="M627.222,764.504c-5.098,0-9.498-2.235-11.663-5.866c-2.235-2.898-2.933-6.565-2.933-10.965
	c0-5.135,0.697-8.801,3.63-11.734c2.935-2.933,6.565-4.399,10.232-4.399h0.733v5.867c-1.466,0-3.631,0.733-4.4,2.199
	c-1.466,1.467-2.165,2.933-2.165,5.134h6.565v5.099h-6.565c0,2.933,0.699,4.399,2.165,5.901c1.468,1.432,2.935,2.199,4.4,2.199
	V764.504 M627.222,731.539c4.4,0,8.067,1.467,10.966,4.399c2.199,2.934,3.666,8.067,3.666,13.899h-14.632v-5.099h6.6
	c-0.731-2.201-0.731-3.667-2.199-5.134c-1.467-1.466-2.933-2.199-4.4-2.199V731.539z M633.09,753.538l8.03,1.468
	c-0.733,2.933-2.199,5.098-5.132,6.565c-2.167,2.165-5.1,2.933-8.767,2.933v-6.565h0.733c0.734,0,2.2,0,2.934-0.768
	C631.622,756.473,632.355,755.006,633.09,753.538z"/>
<path d="M677.683,763.736h-8.765v-16.063c0-3.667,0-5.866-0.734-6.601c0-1.501-0.733-2.2-1.466-2.933
	c-0.733,0-1.467-0.733-2.935-0.733c-1.466,0-2.933,0.733-3.666,1.466c-1.466,0.699-2.165,1.467-2.934,2.935c0,1.466,0,3.631,0,7.333
	v14.597h-8.729v-31.464h8.032v4.4c2.898-3.667,5.831-5.134,10.231-5.134c2.2,0,3.667,0,5.133,0.733
	c1.467,0.733,2.933,1.467,3.632,2.2c0.734,1.466,0.734,2.2,1.466,3.667c0,1.432,0.734,3.667,0.734,5.866V763.736"/>
<path d="M478.809,351.811c-1.467,0.751-2.934,0.751-3.649,0.751c-3.649,0-5.867-0.751-8.049-2.934
	c-1.466-1.467-2.934-3.65-2.934-6.583c0-1.467,0.716-2.933,1.467-4.4c0.716-1.467,2.182-2.933,3.649-3.649
	c1.467-0.75,3.649-1.467,6.582-1.467c0.717-0.75,2.166-0.75,2.934-0.75v5.116c-2.217,0.751-3.649,0.751-4.4,1.467
	c-0.716,0.751-1.466,1.466-1.466,2.933c0,1.466,0,2.217,1.466,2.933c0.751,0.75,1.466,1.467,2.934,1.467c0.699,0,0.699,0,1.467,0
	V351.811 M472.942,329.846l-7.298-1.467c0.716-2.898,2.182-5.116,4.399-6.582c1.467-1.467,4.365-2.183,8.766-2.183v6.583
	c-2.217,0-2.934,0-3.649,0.751C474.409,327.664,473.693,328.379,472.942,329.846z M478.809,319.614c3.631,0,6.565,0,8.748,1.467
	c1.466,0.716,2.934,1.466,3.649,2.933c0.75,1.466,1.466,3.649,1.466,7.298l-0.716,10.267c0,2.933,0.716,4.399,0.716,5.832
	c0,1.467,0.751,2.933,1.466,4.4h-8.049c-0.716-0.716-0.716-1.467-0.716-2.183c-0.75-0.751-0.75-0.751-0.75-1.467
	c-1.432,1.467-2.899,2.933-4.348,3.649c-0.768,0-1.466,0-1.466,0v-5.116c0.698,0,2.165-0.717,2.916-1.467
	c1.467-0.716,1.467-1.467,2.183-2.933c0-0.716,0-2.182,0-3.649v-2.217c-0.716,0.75-2.183,0.75-5.098,1.466v-5.116
	c2.165-0.716,4.382-1.467,5.098-1.467v-0.715c0-2.218,0-2.933-0.716-3.649c-0.751-0.751-2.217-0.751-4.382-0.751V319.614z"/>
<path d="M500.006,351.811v-43.878h8.765v16.081c2.216-2.217,4.4-3.684,6.583-4.4v6.583c-2.183,0-3.648,0.751-5.116,2.183
	c-0.716,1.467-1.466,3.684-1.466,6.618c0,3.649,0,5.832,1.466,7.298c1.468,2.217,2.934,3.684,5.116,3.684v6.583
	c-0.716-0.751-1.467-0.751-2.933-1.467c-1.434-0.751-2.899-2.217-4.366-3.684v4.4H500.006 M515.354,319.614c0.75,0,1.468,0,2.218,0
	c4.348,0,7.28,1.467,9.464,4.4c2.933,2.182,4.4,6.583,4.4,11.698s-1.468,9.516-4.4,12.449c-2.184,2.933-5.832,4.4-9.464,4.4
	c-0.75,0-1.468,0-2.218,0v-6.583h0.75c1.468,0,2.935-0.75,4.348-2.217c1.468-1.466,2.218-4.399,2.218-7.333
	c0-3.649-0.75-6.583-2.218-8.049c-1.413-1.432-2.88-2.183-5.098-2.183V319.614z"/>
<path d="M435.682,670.812h-55.577V460.833c-20.481,19.015-44.628,33.647-71.658,42.412v-50.496
	c13.881-5.116,29.962-13.88,46.777-27.063c17.548-13.165,29.246-29.246,35.112-46.811h45.345V670.812"/>
<path d="M679.115,619.583v51.229H483.907c2.183-19.03,8.049-38.028,19.032-55.628c10.231-17.531,31.429-40.229,62.856-69.493
	c24.864-23.396,40.229-39.512,46.062-47.562c7.333-11.698,11.733-22.663,11.733-34.396c0-12.449-3.702-21.965-10.268-28.53
	c-6.565-6.583-16.098-10.232-27.797-10.232c-11.663,0-21.196,3.649-27.762,10.965c-6.6,6.583-11,18.316-11.699,34.415l-55.575-5.151
	c2.933-30.713,13.165-52.678,30.713-65.843c17.565-13.898,39.46-20.481,65.79-20.481c28.565,0,51.194,8.049,67.328,23.414
	c16.796,15.348,24.794,34.362,24.794,57.794c0,13.166-2.167,25.597-7.265,37.331c-4.4,11.698-11.733,24.13-21.93,37.295
	c-6.636,8.801-19.032,20.48-36.598,37.313c-17.565,16.133-28.495,26.399-33.593,32.196c-4.4,5.168-8.067,10.268-11,15.365H679.115"
	/>
</svg>
