<?xml version="1.0" encoding="utf-8"?>
<!-- Generator: Adobe Illustrator 15.0.1, SVG Export Plug-In . SVG Version: 6.00 Build 0)  -->
<!DOCTYPE svg PUBLIC "-//W3C//DTD SVG 1.1//EN" "http://www.w3.org/Graphics/SVG/1.1/DTD/svg11.dtd">
<svg version="1.1" id="Ebene_1" xmlns="http://www.w3.org/2000/svg" xmlns:xlink="http://www.w3.org/1999/xlink" x="0px" y="0px"
	 width="1016.063px" height="1016.031px" viewBox="0 0 1016.063 1016.031" enable-background="new 0 0 1016.063 1016.031"
	 xml:space="preserve">
<path fill="#65B8E3" d="M102.568,17.629h810.926c46.795,0,84.929,41.766,84.929,92.89v794.252c0,51.858-38.134,93.623-84.929,93.623
	H102.568c-46.777,0-84.929-41.765-84.929-93.623V110.519C17.639,59.395,55.791,17.629,102.568,17.629"/>
<path fill="none" stroke="#1DA2D8" stroke-width="35.262" d="M102.568,17.629h810.926c46.795,0,84.929,41.766,84.929,92.89v794.252
	c0,51.858-38.134,93.623-84.929,93.623H102.568c-46.777,0-84.929-41.765-84.929-93.623V110.519
	C17.639,59.395,55.791,17.629,102.568,17.629z"/>
<path fill="#1DA2D8" d="M539.486,96.865l374.637,365.522c21.722,21.022,20.254,57.167-2.898,81.053L553.943,910.428
	c-23.188,23.188-59.296,25.319-81.017,5.029L98.272,549.97c-21.704-20.988-20.237-57.899,2.898-81.052l357.298-366.989
	C481.587,78.042,517.765,75.877,539.486,96.865"/>
<path fill="none" stroke="#000000" stroke-width="20.123" d="M539.486,96.865l374.637,365.522
	c21.722,21.022,20.254,57.167-2.898,81.053L553.943,910.428c-23.188,23.188-59.296,25.319-81.017,5.029L98.272,549.97
	c-21.704-20.988-20.237-57.899,2.898-81.052l357.298-366.989C481.587,78.042,517.765,75.877,539.486,96.865z"/>
<path d="M390.023,203.131h16.063v43.092c0,7.334,0,11.734,0.768,13.898c0.699,2.934,2.166,5.868,5.099,8.067
	c2.165,1.467,5.832,2.934,10.232,2.934c5.099,0,8.032-1.467,10.93-2.934c2.235-2.2,3.702-4.4,3.702-7.298
	c0.699-2.2,0.699-7.333,0.699-13.2v-44.56h16.099v42.394c0,9.499,0,16.064-0.733,20.464c-1.467,3.667-2.934,6.6-5.134,9.534
	c-2.2,2.897-5.832,5.133-9.534,6.53c-3.631,1.467-8.73,2.235-15.331,2.235c-7.298,0-13.165-0.768-17.496-2.235
	c-3.667-2.165-6.6-4.331-9.534-7.264c-2.2-2.2-3.667-5.133-4.365-8.8c-0.768-4.4-1.467-10.965-1.467-19.766V203.131"/>
<path d="M466.71,257.225l15.366-1.467c1.467,5.134,2.933,8.765,5.867,11.699c2.933,2.165,7.298,3.631,11.699,3.631
	c5.099,0,9.464-1.467,11.699-3.631c2.863-2.2,4.33-4.4,4.33-7.334c0-2.165-0.699-3.631-1.467-5.098
	c-1.466-1.467-3.631-2.2-5.797-3.632c-2.2,0-6.6-1.466-13.165-2.968c-8.765-2.2-14.631-5.063-18.264-7.997
	c-5.133-4.4-7.333-9.533-7.333-16.134c0-4.4,1.467-8.032,3.667-11.664c2.2-3.701,5.133-5.867,9.533-8.032
	c4.33-1.466,9.464-2.933,16.029-2.933c10.232,0,17.565,2.165,22.663,6.564c5.134,4.4,7.335,10.233,8.032,18.265h-16.063
	c-0.768-3.667-2.165-6.601-4.4-8.766c-2.899-1.466-5.832-2.165-10.232-2.165c-5.099,0-8.766,0.699-10.931,2.899
	c-2.235,0.733-2.934,2.897-2.934,4.365c0,2.2,0.699,3.667,2.165,5.133c2.235,1.467,7.334,3.667,15.366,5.133
	c7.333,2.2,13.13,4.4,16.797,5.867c4.4,2.166,7.333,5.099,9.534,8.033c1.466,3.631,2.933,8.032,2.933,13.129
	c0,4.4-1.467,8.801-3.666,12.467c-2.935,4.365-6.602,7.299-11,9.464c-4.4,1.467-10.198,2.933-17.497,2.933
	c-10.232,0-17.565-2.933-23.397-7.264C471.11,273.323,467.479,265.99,466.71,257.225"/>
<polyline points="545.632,283.52 545.632,203.131 561.695,203.131 561.695,238.96 593.858,203.131 615.756,203.131 585.862,234.561 
	617.221,283.52 596.792,283.52 574.862,245.491 561.695,259.425 561.695,283.52 545.632,283.52 "/>
<path d="M336.664,731.771h5.133v-2.199c0-2.935,0-4.4,0.734-5.867c0-1.468,1.466-2.2,2.933-3.667
	c1.432-0.697,3.667-0.697,5.832-0.697c2.2,0,4.365,0,6.601,0.697l-0.768,5.866c-1.467,0-2.899,0-3.632,0c-1.467,0-2.2,0-2.933,0.733
	c-0.734,0.733-0.734,1.467-0.734,2.935v2.199h6.601v6.565h-6.601V763.2h-8.032v-24.864h-5.133V731.771"/>
<path d="M368.826,763.2h-8.766v-31.43h8.032v4.366c1.467-2.201,2.934-2.898,3.667-3.633c0.733-0.733,2.2-1.467,3.667-1.467
	c2.165,0,3.631,0.733,5.098,1.467l-2.165,7.299c-1.466-0.733-2.933-0.733-3.667-0.733c-1.466,0-2.2,0-3.667,0.733
	c-0.734,0.732-1.467,1.466-1.467,3.667c-0.733,1.466-0.733,5.133-0.733,10.232V763.2"/>
<path d="M397.321,763.934c-5.832,0-9.534-1.467-12.397-5.134c-2.234-2.933-2.933-6.565-2.933-10.966
	c0-5.098,1.467-9.498,4.33-12.431c2.235-2.899,5.867-4.366,10.267-4.366h0.733v6.565c-2.2,0-3.667,0.733-5.133,2.2
	c-0.698,1.466-1.466,2.934-1.466,5.099h6.6v5.168h-6.6c0,2.864,0.768,4.33,2.2,5.798c0.733,1.465,2.199,2.199,4.399,2.199V763.934
	 M397.321,731.037c4.4,0,7.334,2.201,10.232,5.1c2.934,2.933,4.4,7.333,3.632,13.933h-13.864v-5.168h5.867
	c0-2.165-0.733-4.366-2.199-5.099c-0.734-1.467-2.2-2.2-3.667-2.2V731.037z M402.455,753.702l8.73,1.466
	c-1.397,2.898-2.864,5.099-5.099,6.564c-2.165,1.468-5.098,2.201-8.765,2.201v-5.867c1.467,0,2.2-0.734,3.667-1.466
	C401.722,755.867,402.455,755.168,402.455,753.702z"/>
<path d="M426.55,763.2h-8.032v-31.43h8.032V763.2z M426.55,727.37h-8.032v-7.299h8.032V727.37z"/>
<path d="M449.214,763.2c-1.466,0-2.2,0-2.933,0c-4.365,0-7.299-1.468-10.232-5.099c-1.466-2.934-2.934-6.564-2.934-10.231
	c0-5.867,1.467-9.534,4.4-12.467c2.165-2.934,5.099-4.366,9.498-4.366c0.734,0,1.467,0,2.2,0.733v5.868h-0.733
	c-1.467,0-3.667,0.697-4.4,2.164c-1.466,1.466-2.165,4.399-2.165,7.334c0,3.666,0.699,5.866,2.165,7.333
	c0.734,1.466,2.933,2.165,4.4,2.165h0.733V763.2 M434.583,765.399l9.498,1.468c0,0.733,0.734,1.467,0.734,2.199
	c0.733,0.733,2.199,0.733,4.399,0.733v6.565c-5.832,0-9.533-0.734-11.698-2.898c-2.165-1.466-2.933-3.667-2.933-6.6
	C434.583,766.133,434.583,766.133,434.583,765.399z M449.214,769.8c2.2,0,3.667,0,4.4-0.733c0.733-0.732,1.432-1.466,2.2-2.199
	c0-0.734,0-2.2,0-3.667v-5.099c-2.2,2.934-4.4,4.399-6.601,5.099v-6.565c1.467,0,3.667-0.699,4.4-2.165
	c1.432-1.467,2.2-3.667,2.2-7.333c0-2.935-0.768-5.868-2.2-7.334c-0.733-1.467-2.933-2.164-4.4-2.164v-5.868
	c2.934,0,5.134,2.165,7.299,4.4v-4.4h7.333v28.496c0,3.701,0,6.601-0.768,8.067c-0.699,2.199-1.467,3.667-2.165,4.364
	c-1.467,1.468-2.934,2.201-4.4,2.933c-2.165,0.734-4.365,0.734-7.299,0.734V769.8z"/>
<path d="M485.009,763.934c-5.098,0-9.498-1.467-11.698-5.134c-2.2-2.933-3.667-6.565-3.667-10.966c0-5.098,1.467-9.498,4.4-12.431
	c2.933-2.899,6.565-4.366,10.267-4.366h0.698v6.565c-2.165,0-3.631,0.733-4.399,2.2c-1.432,1.466-2.166,2.934-2.166,5.099h6.565
	v5.168h-6.565c0,2.864,0.734,4.33,2.166,5.798c1.466,1.465,2.933,2.199,4.399,2.199V763.934 M485.009,731.037
	c4.4,0,8.033,2.201,10.232,5.1c2.934,2.933,4.4,7.333,4.4,13.933h-14.632v-5.168h5.867c0-2.165,0-4.366-1.466-5.099
	c-1.467-1.467-2.933-2.2-4.4-2.2V731.037z M490.875,753.702l7.998,1.466c-0.699,2.898-2.898,5.099-5.099,6.564
	c-2.2,1.468-5.133,2.201-8.766,2.201v-5.867h0.699c0.769,0,2.235-0.734,2.934-1.466
	C489.409,755.867,490.107,755.168,490.875,753.702z"/>
<path d="M520.07,763.2c-0.733,0-1.467,0-2.933,0c-3.633,0-7.265-1.468-9.464-5.099c-2.201-2.934-2.934-6.564-2.934-10.231
	c0-5.867,0.733-9.534,3.666-12.467c2.167-2.934,5.797-4.366,9.463-4.366c0.734,0,1.468,0,2.201,0.733v5.868
	c-2.201,0-3.632,0.697-5.1,2.164c-1.466,1.466-2.233,4.399-2.233,7.334c0,3.666,0.768,5.866,2.233,7.333
	c1.468,1.466,2.898,2.165,5.1,2.165V763.2 M505.473,765.399l9.498,1.468c0,0.733,0.699,1.467,1.468,2.199
	c0.699,0.733,1.431,0.733,3.632,0.733v6.565c-5.1,0-8.73-0.734-10.965-2.898c-2.165-1.466-3.632-3.667-3.632-6.6
	C505.473,766.133,505.473,766.133,505.473,765.399z M520.07,769.8c2.199,0,3.667,0,4.4-0.733c0.732-0.732,1.466-1.466,2.199-2.199
	c0-0.734,0-2.2,0-3.667v-5.099c-1.467,2.934-3.666,4.399-6.6,5.099v-6.565c2.199,0,3.667-0.699,5.133-2.165
	c1.467-1.467,1.467-3.667,1.467-7.333c0-2.935,0-5.868-1.467-7.334c-1.466-1.467-2.934-2.164-5.133-2.164v-5.868
	c2.934,0,5.133,2.165,7.333,4.4v-4.4h8.033v28.496c0,3.701-0.699,6.601-1.468,8.067c0,2.199-1.467,3.667-2.165,4.364
	c-1.467,1.468-2.933,2.201-4.4,2.933c-2.2,0.734-4.399,0.734-7.333,0.734V769.8z"/>
<path d="M555.9,763.934c-5.134,0-9.534-1.467-11.734-5.134c-2.166-2.933-2.934-6.565-2.934-10.966c0-5.098,1.467-9.498,3.702-12.431
	c2.898-2.899,6.565-4.366,10.966-4.366v6.565c-1.468,0-2.935,0.733-4.4,2.2c-1.468,1.466-1.468,2.934-1.468,5.099h5.868v5.168
	h-6.602c0,2.864,0.733,4.33,2.201,5.798c1.466,1.465,2.933,2.199,4.4,2.199V763.934 M555.9,731.037c4.398,0,8.03,2.201,10.93,5.1
	c2.2,2.933,3.666,7.333,3.666,13.933H555.9v-5.168h6.564c0-2.165-0.77-4.366-2.166-5.099c-0.768-1.467-2.233-2.2-4.398-2.2V731.037z
	 M561.695,753.702l8.067,1.466c-0.732,2.898-2.199,5.099-4.364,6.564c-2.934,1.468-5.867,2.201-8.801,2.201H555.9v-5.867h0.697
	c1.468,0,2.235-0.734,2.934-1.466C560.998,755.867,560.998,755.168,561.695,753.702z"/>
<path d="M577.062,763.2v-43.163h8.032v15.366c2.235-2.165,4.4-3.633,7.334-3.633v5.832c-2.235,0-3.703,0.733-5.099,2.2
	c-1.467,1.466-2.235,4.399-2.235,7.334c0,2.862,0.769,5.797,1.466,7.263c1.468,2.201,3.633,2.933,5.868,2.933v6.602
	c-1.468,0-2.235-0.733-2.934-0.733c-2.165-1.468-3.632-2.199-4.4-4.4v4.4H577.062 M592.428,731.771
	c0.697-0.733,1.431-0.733,2.165-0.733c3.666,0,6.6,1.467,9.498,4.366c2.235,2.933,3.702,6.6,3.702,11.733
	c0,5.797-1.467,9.464-3.702,12.396c-2.898,2.934-5.832,4.4-9.498,4.4c-0.734,0-1.468,0-2.165,0v-6.602
	c2.165,0,3.632-0.731,5.098-2.164c0.733-1.466,1.467-3.701,1.467-7.334c0-3.632-0.733-6.565-1.467-8.031
	c-1.466-1.467-2.933-2.2-5.098-2.2V731.771z"/>
<path d="M626.755,763.934c-5.134,0-8.766-1.467-11.698-5.134c-2.165-2.933-2.934-6.565-2.934-10.966c0-5.098,1.466-9.498,4.4-12.431
	c2.165-2.899,5.832-4.366,10.231-4.366v6.565c-1.467,0-2.934,0.733-4.399,2.2c-0.734,1.466-1.468,2.934-1.468,5.099h5.867v5.168
	h-5.867c0,2.864,0.733,4.33,1.468,5.798c1.466,1.465,2.933,2.199,4.399,2.199V763.934 M626.755,731.037
	c5.133,0,8.067,2.201,10.93,5.1c2.934,2.933,3.703,7.333,3.703,13.933h-14.633v-5.168h6.601c0-2.165-0.769-4.366-2.2-5.099
	c-0.733-1.467-2.2-2.2-4.4-2.2V731.037z M632.587,753.702l8.801,1.466c-1.468,2.898-2.935,5.099-5.1,6.564
	c-2.233,1.468-5.133,2.201-8.799,2.201h-0.734v-5.867h0.734c1.466,0,2.199-0.734,3.666-1.466
	C631.888,755.867,632.587,755.168,632.587,753.702z"/>
<path d="M677.182,763.2h-8.067v-16.063c0-2.935-0.733-5.134-0.733-6.602c-0.732-0.732-1.432-1.466-2.129-2.199
	c-0.77-0.733-1.468-0.733-3.004-0.733c-1.396,0-2.165,0.733-3.598,1.467c-0.733,0.733-2.199,1.466-2.199,2.934
	c-0.733,1.467-0.733,3.666-0.733,7.333V763.2h-8.033v-31.43h7.299v5.099c2.934-3.631,6.565-5.832,10.269-5.832
	c2.129,0,3.631,0.733,5.063,1.467c1.466,0.734,2.933,1.432,3.666,2.2c0.732,1.433,1.466,2.165,1.466,3.632
	c0.734,1.467,0.734,2.933,0.734,5.866V763.2"/>
<path d="M478.443,351.547c-1.466,0-2.2,0.699-3.667,0.699c-2.933,0-5.832-1.397-7.298-2.934c-2.235-1.397-2.934-3.631-2.934-6.495
	c0-2.235,0-3.702,1.467-5.168c0.698-1.467,1.467-2.166,3.632-2.898c1.467-0.734,3.667-1.467,6.6-2.2c0.733,0,1.467,0,2.2,0v5.099
	c-2.2,0-3.667,0.768-3.667,1.466c-1.466,0.768-2.2,1.467-2.2,2.933c0,0.769,0.734,2.166,1.467,2.934
	c0.733,0.699,2.2,1.467,3.667,1.467h0.732V351.547 M472.577,329.616l-7.333-1.466c0.768-2.933,2.235-5.133,4.4-6.6
	c2.2-1.432,5.133-2.2,8.8-2.2v5.867c-1.466,0-2.933,0.733-3.667,0.733C474.044,326.683,473.311,328.149,472.577,329.616z
	 M478.443,319.35h0.734c3.667,0,6.53,0,7.997,0.768c2.235,1.432,2.934,2.165,3.702,3.631c0.699,1.467,1.432,3.667,1.432,7.334
	v10.267c0,2.166,0,4.331,0,5.797c0.734,1.467,0.734,2.934,1.467,4.4h-8.067c0-0.698-0.699-1.466-0.699-2.934v-0.699
	c-1.466,1.397-2.933,2.166-5.098,2.934c0,0.698-0.733,0.698-1.467,0.698v-5.099c1.467-0.768,2.166-0.768,3.632-1.467
	c0.768-0.768,1.467-2.165,1.467-2.934c0.768-0.698,0.768-2.165,0.768-4.399v-1.467c-1.467,0-2.933,0.769-5.133,1.467h-0.734v-5.099
	c2.934-0.734,4.4-1.467,5.867-1.467v-1.467c0-1.466-0.768-2.199-1.467-2.933c-0.768-0.733-2.234-1.466-4.4-1.466V319.35z"/>
<path d="M500.339,351.547v-43.861h8.066v16.063c2.167-2.933,4.332-4.399,7.264-4.399v5.867c-2.165,0-3.632,0.733-5.098,2.2
	c-1.467,2.199-2.167,4.399-2.167,7.333c0,3.667,0.699,5.832,1.467,7.298c1.467,2.166,3.632,2.934,5.797,3.632v5.867
	c-1.467,0-2.165,0-2.933-0.698c-2.165-0.768-3.632-2.235-5.064-4.4v5.099H500.339 M515.67,319.35c0.769,0,1.468,0,2.199,0
	c3.667,0,6.602,0.768,9.534,3.667c2.165,2.933,3.633,7.333,3.633,12.466c0,5.099-1.468,9.499-3.633,12.432
	c-2.933,2.934-5.867,4.331-9.534,4.331c-0.731,0-1.431,0-2.199-0.699v-5.867c2.199,0,3.667-0.699,5.134-2.863
	c0.732-1.467,1.466-3.702,1.466-7.334c0-3.667-0.733-5.867-1.466-7.333c-1.467-2.2-3.666-2.933-5.134-2.933V319.35z"/>
<path d="M437.516,663.743h-55.525V453.167c-20.464,19.033-44.56,33.665-72.357,42.429v-50.46
	c14.632-5.1,30.696-13.899,47.494-27.029c16.832-13.201,28.496-28.566,35.061-46.795h45.328V663.743"/>
<path d="M593.125,417.338c-10.93,0.77-19.73,5.868-27.727,16.1c-8.032,10.232-13.165,32.163-15.366,65.792
	c11.663-13.898,26.296-21.965,43.093-24.13v40.23c-10.93,0-19.73,4.364-27.029,13.165c-7.263,8.067-10.93,20.429-10.93,37.295
	c0,17.565,3.667,32.163,12.397,41.661c7.299,8.801,16.063,13.898,25.562,14.598v46.096c-29.194,0-53.29-10.965-72.321-33.628
	c-18.998-23.434-28.496-60.66-28.496-112.622c0-53.36,10.232-91.389,29.229-114.751c18.998-22.699,43.094-34.362,71.589-35.9
	V417.338 M593.125,475.099c2.935,0,5.867-0.699,8.801-0.699c23.362,0,43.093,9.5,59.926,27.031
	c16.063,17.529,24.864,40.228,24.864,68.724c0,29.265-8.801,53.361-26.332,71.658c-17.564,17.531-39.496,26.331-67.259,26.331
	v-46.096c0.733,0,2.201,0,2.935,0c10.267,0,18.997-3.632,25.562-11.663c6.6-8.032,10.267-21.932,10.267-40.23
	s-3.667-32.163-11-40.927c-7.299-8.8-16.797-13.201-27.763-13.898V475.099z M680.848,443.669l-53.358,5.867
	c-1.468-10.965-5.134-19.032-10.966-24.166c-5.1-5.098-12.433-8.033-21.197-8.033c-0.733,0-1.468,0-2.201,0v-46.096
	c2.201,0,3.667,0,5.134,0c22.629,0,40.894,6.636,54.826,19.033C667.648,402.742,677.182,420.272,680.848,443.669z"/>
</svg>
