<?xml version="1.0" encoding="utf-8"?>
<!-- Generator: Adobe Illustrator 15.0.1, SVG Export Plug-In . SVG Version: 6.00 Build 0)  -->
<!DOCTYPE svg PUBLIC "-//W3C//DTD SVG 1.1//EN" "http://www.w3.org/Graphics/SVG/1.1/DTD/svg11.dtd">
<svg version="1.1" id="Ebene_1" xmlns="http://www.w3.org/2000/svg" xmlns:xlink="http://www.w3.org/1999/xlink" x="0px" y="0px"
	 width="1016.047px" height="1016.031px" viewBox="-176.672 -176.656 1016.047 1016.031"
	 enable-background="new -176.672 -176.656 1016.047 1016.031" xml:space="preserve">
<path fill="#EC7054" d="M737.494,821.743H-74.763c-46.811,0-84.263-41.8-84.263-93.62v-794.24c0-51.141,37.453-92.907,84.263-92.907
	h812.257c46.096,0,84.265,41.766,84.265,92.907v794.24C821.76,779.943,783.59,821.743,737.494,821.743"/>
<path fill="none" stroke="#E42528" stroke-width="35.262" d="M-74.763-159.025h812.257c46.096,0,84.265,41.766,84.265,92.907
	v794.239c0,51.822-38.169,93.62-84.265,93.62H-74.763c-46.811,0-84.263-41.799-84.263-93.62V-66.117
	C-159.027-117.259-121.574-159.025-74.763-159.025z"/>
<path fill="#E42528" d="M362.445-79.789l374.945,365.533c21.722,20.987,20.255,57.183-2.9,81.07L376.937,733.777
	c-23.135,23.188-59.33,26.052-81.032,5.063L-79.057,373.326c-21.704-21.006-20.238-57.935,2.933-81.07L281.428-74.707
	C304.563-98.593,340.742-100.776,362.445-79.789"/>
<path fill="none" stroke="#000000" stroke-width="20.123" d="M362.445-79.789l374.945,365.533
	c21.722,20.987,20.255,57.183-2.9,81.07L376.937,733.777c-23.135,23.188-59.33,26.052-81.032,5.063L-79.057,373.326
	c-21.704-21.006-20.238-57.935,2.933-81.07L281.428-74.707C304.563-98.593,340.742-100.776,362.445-79.789z"/>
<path d="M212.914,26.422h16.081v43.879c0,6.582,0.751,10.983,0.751,13.148l5.116,8.049c2.181,1.467,5.833,2.935,10.948,2.935
	c4.4,0,8.049-1.467,10.266-2.935l3.649-7.317c0.751-2.181,0.751-7.297,0.751-13.165V26.423h16.045v42.412
	c0,9.516,0,16.082-0.716,20.481c-1.467,3.649-2.933,7.298-5.116,9.516c-2.217,2.899-5.114,5.116-9.499,6.548
	c-3.648,1.501-8.765,2.933-15.381,2.933c-7.3,0-13.165-1.432-17.53-2.933c-3.667-2.183-6.564-4.365-8.783-7.299
	c-2.899-2.182-4.365-5.116-5.116-8.765c-0.716-4.399-1.467-10.965-1.467-19.729V26.422"/>
<path d="M289.687,80.566l16.082-1.467c0.751,5.117,2.935,8.748,5.868,11.681c2.183,2.216,6.582,3.648,11.697,3.648
	c5.116,0,8.765-1.432,11.7-3.648l3.648-7.281l-1.468-5.151l-5.831-2.898c-2.217-0.751-6.582-2.218-13.165-3.684
	c-8.801-2.182-14.614-5.116-18.265-8.014c-5.15-4.4-7.333-9.516-7.333-16.133c0-4.347,1.467-7.997,3.648-11.646
	c2.217-3.648,5.868-5.867,9.499-8.049c4.4-1.467,10.232-2.935,16.098-2.935c10.232,0,17.565,2.184,22.665,6.583
	c5.116,4.399,8.05,10.232,8.05,18.264l-16.082,0.716c-0.716-4.365-2.183-7.281-4.4-9.464c-2.183-1.467-5.832-2.217-10.232-2.217
	c-5.116,0-8.765,0.752-10.983,2.933l-2.898,4.383l2.183,5.116c2.181,1.467,7.297,3.649,15.348,5.115
	c8.049,2.219,13.165,4.4,17.547,5.867c3.649,2.183,6.584,5.116,8.765,8.049c2.218,3.648,2.935,8.014,2.935,13.165
	c0,4.348-1.467,8.749-3.649,12.397c-2.934,4.4-6.582,7.333-10.965,9.516c-4.365,1.467-10.231,2.935-17.53,2.935
	c-10.268,0-17.549-2.935-23.415-7.333C294.087,96.649,291.154,89.314,289.687,80.566"/>
<polyline points="368.696,106.879 368.696,26.422 384.726,26.422 384.726,62.285 417.654,26.422 438.816,26.422 408.854,57.887 
	441.052,106.879 419.854,106.879 397.925,68.869 384.726,82.75 384.726,106.879 368.696,106.879 "/>
<path d="M304.301,174.853l-4.348,0.751c-3.685,0-6.618-1.467-8.8-2.935l-2.933-8.032l1.467-5.833l3.648-3.684
	c2.218-0.717,4.4-1.467,8.085-2.184l2.881-0.715v6.582l-5.1,1.467l-1.467,3.649l1.467,2.916l3.632,1.432h1.467V174.853
	 M297.736,149.291l-8.765-1.467c0.716-3.649,2.933-6.582,5.116-8.049c2.181-2.183,5.866-2.933,10.214-2.933v7.333l-4.348,1.467
	L297.736,149.291z M304.301,136.842h0.768c4.348,0,7.281,0.75,9.464,1.467l4.4,4.4c0.751,1.467,1.467,4.365,1.467,8.765v10.983
	c0,3.649,0,5.813,0,7.281l2.217,5.116h-9.517l-1.467-2.899v-1.467l-5.116,3.649l-2.217,0.716v-6.582l3.685-1.432l2.183-2.916
	l0.715-5.116v-1.467l-5.813,1.467h-0.768v-6.582l6.582-1.467v-0.751l-1.467-4.365l-5.116-1.467V136.842L304.301,136.842z"/>
<path d="M329.916,174.853v-51.159h9.516v18.262l8.032-4.399v6.582l-5.85,2.933c-1.466,2.183-2.183,4.399-2.183,8.049
	c0,4.399,0.717,7.28,1.435,8.747l6.6,3.649v7.333l-3.633-0.715l-5.15-5.116v5.832h-8.767 M347.464,137.558l2.184-0.751
	c5.115,0,8.765,1.501,11.697,5.149c2.951,2.935,4.418,8.049,4.418,13.881c0,6.565-1.467,10.965-4.418,14.614
	c-2.933,3.684-6.582,5.116-10.982,5.116l-2.898-0.716v-7.333l5.832-2.184c1.467-2.164,2.183-5.097,2.183-8.747
	c0-4.4-0.716-7.333-2.183-9.517l-5.832-2.933V137.558L347.464,137.558z"/>
<path d="M267.757,533.158h-55.559V323.32c-20.498,18.997-44.593,32.912-72.374,41.66v-50.444
	c14.614-4.364,30.678-13.165,47.509-27.046c17.53-13.147,29.263-28.531,35.095-46.043h45.327v291.712"/>
<path d="M370.861,375.909c-14.633-5.813-24.864-13.862-31.43-24.828c-6.582-10.232-10.266-21.93-10.266-35.078
	c0-21.214,8.048-39.479,22.663-53.393c15.4-14.632,37.296-21.214,65.093-21.214v43.878c-10.231,0-18.996,3.649-24.862,9.517
	c-6.602,6.582-9.534,14.63-9.534,25.563c0,10.983,2.933,19.748,8.799,25.614c6.602,6.584,14.598,9.516,25.597,9.516v44.596
	c-13.165,0-23.397,5.097-29.997,13.897c-6.563,9.498-9.496,19.766-9.496,30.66c0,15.399,3.666,27.098,11.697,35.828
	c7.333,8.066,16.797,12.467,27.797,13.199v44.629c-25.596-0.769-46.759-7.334-63.625-20.499
	c-20.446-16.797-31.43-39.496-31.43-68.025c0-15.331,4.4-29.962,11.698-43.127C341.597,393.509,354.046,383.244,370.861,375.909
	 M416.921,241.394c27.763,0,48.995,6.583,64.325,21.214c15.399,13.916,22.663,32.179,22.663,53.393
	c0,13.864-3.633,25.563-10.196,36.546c-7.333,10.213-16.832,18.262-29.996,23.359c16.099,6.603,28.529,16.134,37.293,28.565
	c7.999,12.433,12.397,27.029,12.397,43.091c0,27.102-8.729,49.029-25.562,65.862c-17.529,16.798-40.228,24.864-68.723,24.864h-2.202
	v-44.629h1.468c11.697,0,21.195-4.4,28.494-12.431c7.334-8.031,11-20.464,11-35.828c0-13.899-3.666-24.866-11-32.896
	c-8.066-8.032-17.529-12.432-29.227-12.432h-0.735v-44.594c10.232,0,19.032-2.934,25.598-9.517
	c5.832-6.582,9.497-14.631,9.497-26.313c0-10.233-3.667-18.282-9.497-24.863c-6.565-6.582-14.632-9.517-24.864-9.517h-0.734
	L416.921,241.394L416.921,241.394z"/>
</svg>
