<?xml version="1.0" encoding="utf-8"?>
<!-- Generator: Adobe Illustrator 15.0.1, SVG Export Plug-In . SVG Version: 6.00 Build 0)  -->
<!DOCTYPE svg PUBLIC "-//W3C//DTD SVG 1.1//EN" "http://www.w3.org/Graphics/SVG/1.1/DTD/svg11.dtd">
<svg version="1.1" id="Ebene_1" xmlns="http://www.w3.org/2000/svg" xmlns:xlink="http://www.w3.org/1999/xlink" x="0px" y="0px"
	 width="1016.047px" height="1016.031px" viewBox="0 0 1016.047 1016.031" enable-background="new 0 0 1016.047 1016.031"
	 xml:space="preserve">
<path fill="#FFEC6B" d="M101.894,17.637H914.15c46.096,0,84.264,41.766,84.264,93.623v794.254c0,51.125-38.168,92.89-84.264,92.89
	H101.894c-46.811,0-84.264-41.765-84.264-92.89V111.259C17.63,59.402,55.083,17.637,101.894,17.637"/>
<path fill="none" stroke="#FEE606" stroke-width="35.262" d="M101.894,17.637H914.15c46.096,0,84.264,41.766,84.264,93.623v794.254
	c0,51.125-38.168,92.89-84.264,92.89H101.894c-46.811,0-84.264-41.765-84.264-92.89V111.259
	C17.63,59.402,55.083,17.637,101.894,17.637z"/>
<path fill="#FEE606" d="M539.136,96.872L914.08,462.404c21.687,20.988,20.22,57.899-2.897,81.068l-357.59,366.932
	c-23.135,23.885-59.33,26.085-81.067,5.098L97.599,549.986c-21.704-21.005-20.237-57.183,2.898-81.069L458.05,101.953
	C481.22,78.783,517.398,75.884,539.136,96.872"/>
<path fill="none" stroke="#000000" stroke-width="20.123" d="M539.136,96.872L914.08,462.404
	c21.687,20.988,20.22,57.899-2.897,81.068l-357.59,366.932c-23.135,23.885-59.33,26.085-81.067,5.098L97.599,549.986
	c-21.704-21.005-20.237-57.183,2.898-81.069L458.05,101.953C481.22,78.783,517.398,75.884,539.136,96.872z"/>
<path d="M389.571,203.834h16.081v43.127c0,7.333,0.716,11.734,0.716,13.148c0.75,3.685,2.217,5.867,5.151,8.05
	c2.933,2.217,5.832,2.933,10.948,2.933c4.399,0,8.049-0.715,10.266-2.933c2.183-1.467,3.649-3.649,3.649-6.583
	c0.716-2.881,0.716-7.282,0.716-13.864v-43.878h16.082v41.696c0,9.481,0,16.796-0.716,20.446c-0.751,4.4-2.933,7.298-5.116,10.232
	c-2.217,2.933-5.15,5.116-9.498,6.583c-3.649,1.466-8.8,2.217-15.382,2.217c-7.299,0-13.13-0.751-17.53-2.217
	c-3.667-2.182-6.6-4.365-8.782-7.298c-2.183-2.934-4.365-5.867-5.116-8.8c-0.716-4.365-1.466-11.681-1.466-20.446V203.834"/>
<path d="M466.344,257.944l16.081-1.467c0.751,5.099,2.934,8.783,5.867,10.965c2.183,2.934,6.583,4.4,11.699,4.4
	c5.116,0,8.765-1.466,11.699-3.684c2.182-2.183,3.648-4.365,3.648-8.05c0-1.414-0.716-2.881-1.467-4.347
	c-1.466-1.467-2.899-2.934-5.832-3.649c-2.182-0.751-6.583-1.467-13.165-3.684c-8.8-2.183-14.614-4.365-18.298-7.299
	c-5.082-4.399-7.299-10.232-7.299-16.099c0-4.399,1.467-8.032,3.649-11.681c2.217-3.685,5.867-6.583,10.249-8.05
	c3.649-2.182,9.481-2.933,15.348-2.933c10.232,0,17.564,2.183,22.664,6.583c5.116,4.4,8.049,10.231,8.049,17.548l-16.081,0.716
	c-0.75-3.65-2.184-7.298-4.4-8.748c-2.183-1.467-5.832-2.934-10.232-2.934c-5.116,0-8.8,1.467-10.982,2.934
	c-2.183,1.449-2.899,2.916-2.899,5.098c0,2.183,0.716,3.65,2.899,5.116c1.466,1.466,6.582,2.934,14.632,5.116
	c8.049,2.218,13.915,3.684,17.548,5.867c3.648,2.182,6.583,4.4,8.765,8.049c2.217,3.649,2.935,8.05,2.935,12.397
	c0,5.151-1.468,9.516-3.65,13.165c-2.934,3.685-6.582,7.334-10.964,8.8c-4.4,2.182-10.233,2.933-17.566,2.933
	c-10.232,0-17.513-2.217-23.38-6.583C470.745,273.274,467.811,266.691,466.344,257.944"/>
<polyline points="545.353,283.541 545.353,203.834 561.416,203.834 561.416,238.947 594.312,203.834 615.543,203.834 
	585.511,234.547 617.708,283.541 596.511,283.541 574.581,246.246 561.416,259.41 561.416,283.541 545.353,283.541 "/>
<path d="M336.212,732.481h5.115v-2.165c0-2.933,0-5.134,0.716-6.6c0.751-0.733,1.466-2.2,2.933-2.933
	c1.466-0.733,3.649-1.468,5.832-1.468c2.218,0,4.4,0.734,7.333,1.468l-1.466,5.866c-1.466-0.733-2.933-0.733-3.649-0.733
	c-1.467,0-2.218,0.733-2.934,0.733c0,0.733-0.716,2.199-0.716,3.666v2.165h6.583v6.6h-6.583v24.864h-8.049v-24.864h-5.115V732.481"
	/>
<path d="M368.356,763.945h-8.049v-31.498h7.333v4.4c1.467-2.166,2.933-3.632,3.649-4.4c1.467-0.699,2.183-0.699,3.649-0.699
	c2.217,0,3.684,0.699,5.867,1.468l-2.934,7.263c-1.467-0.698-2.933-1.466-3.649-1.466c-1.466,0-2.183,0.768-2.934,0.768
	c-0.716,0.698-1.466,2.165-2.182,3.633c-0.751,2.199-0.751,5.132-0.751,11V763.945"/>
<path d="M396.904,764.68c-5.867,0-9.516-1.468-11.733-5.135c-2.183-2.933-3.649-6.564-3.649-10.965c0-5.099,1.466-9.499,4.4-12.432
	c2.933-2.898,5.867-4.364,10.232-4.364h0.75v6.565c-2.218,0-3.649,0.731-4.4,1.431c-1.467,1.466-2.183,3.701-2.183,5.866h6.583v5.1
	h-6.583c0,2.234,0.716,4.398,2.183,5.866c0.75,0.733,2.182,1.467,4.4,2.199V764.68 M396.904,731.784
	c4.347,0,8.032,1.466,10.214,4.364c2.933,3.632,4.4,8.032,4.4,14.598h-14.614v-5.1h5.814c0-2.898-0.716-4.4-1.467-5.866
	c-1.414-0.699-2.916-1.431-4.347-1.431V731.784z M402.718,753.68l8.05,1.465c-0.717,2.935-2.934,5.868-5.116,7.334
	c-2.183,1.467-5.116,2.201-8.748,2.201v-5.868c1.432,0,2.933-0.732,3.632-1.466C401.251,756.612,402.002,755.879,402.718,753.68z"/>
<path d="M426.15,763.945h-8.049v-31.464h8.049V763.945z M426.15,728.117h-8.049v-8.066h8.049V728.117z"/>
<path d="M448.814,763.945c-0.75,0-1.467,0-2.934,0c-4.399,0-7.316-1.467-10.214-5.134c-1.467-2.933-2.217-6.6-2.217-11
	c0-5.098,0.75-9.498,3.648-11.663c2.2-2.933,5.85-4.364,9.499-4.364c0.75,0,1.467,0,2.217,0v6.529c-2.217,0-3.685,0.768-5.151,2.235
	c-1.467,1.467-2.182,3.632-2.182,7.263c0,2.935,0.715,5.868,2.182,7.333c1.466,1.468,2.934,2.201,4.4,2.201h0.75V763.945
	 M434.2,766.11l9.463,1.468c0,0.768,0.75,1.466,1.466,2.165c0.751,0,1.467,0.768,3.685,0.768v6.565
	c-5.151,0-8.783-1.468-10.965-2.934c-2.182-2.166-3.649-4.399-3.649-7.264V766.11z M448.814,770.511
	c2.182,0,3.649-0.768,4.365-0.768c0.751-0.699,1.466-1.397,2.182-2.165c0-0.699,0-2.165,0-4.366v-4.4
	c-1.431,2.935-4.365,4.4-6.547,5.134v-6.6c1.432,0,3.649-0.733,5.116-2.201c0.715-2.199,1.431-4.398,1.431-7.333
	c0-3.631,0-5.796-1.431-7.263c-1.467-1.468-2.934-2.235-5.116-2.235v-6.529c2.898,0.732,5.116,2.129,7.298,5.098v-4.365h8.049
	v28.496c0,3.631-0.716,6.565-1.466,8.031c0,2.235-1.467,3.632-2.182,4.399c-1.467,0.699-2.934,2.165-4.4,2.165
	c-2.182,0.769-4.4,1.468-7.298,1.468V770.511z"/>
<path d="M484.642,764.68c-5.116,0-9.498-1.468-11.715-5.135c-2.182-2.933-2.899-6.564-2.899-10.965
	c0-5.099,1.467-9.499,3.649-12.432c2.899-2.898,6.583-4.364,10.214-4.364h0.75v6.565c-1.466,0-2.933,0.731-4.382,1.431
	c-1.466,1.466-1.466,3.701-1.466,5.866h5.849v5.1h-6.617c0,2.234,0.768,4.398,2.234,5.866c1.449,0.733,2.916,1.467,4.382,2.199
	V764.68 M484.642,731.784c4.365,0,8.015,1.466,10.948,4.364c2.183,3.632,3.649,8.032,3.649,14.598h-14.597v-5.1h6.548
	c0-2.898-0.716-4.4-2.183-5.866c-1.466-0.699-2.933-1.431-4.365-1.431V731.784z M490.475,753.68l8.049,1.465
	c-0.75,2.935-2.183,5.868-5.116,7.334c-2.217,1.467-5.116,2.201-8.049,2.201h-0.716v-5.868h0.716c1.467,0,2.183-0.732,2.933-1.466
	C489.007,756.612,489.724,755.879,490.475,753.68z"/>
<path d="M519.721,763.945c-0.698,0-1.468,0-2.165,0c-4.4,0-8.05-1.467-10.267-5.134c-2.183-2.933-2.898-6.6-2.898-11
	c0-5.098,1.466-9.498,3.648-11.663c2.183-2.933,5.832-4.364,9.517-4.364c0.697,0,1.467,0,2.165,0v6.529
	c-2.165,0-3.633,0.768-5.099,2.235c-1.467,1.467-2.217,3.632-2.217,7.263c0,2.935,0.75,5.868,2.217,7.333
	c1.466,1.468,2.934,2.201,5.099,2.201V763.945 M505.106,766.11l9.516,1.468c0.716,0.768,0.716,1.466,1.466,2.165
	c0.718,0,2.165,0.768,3.633,0.768v6.565c-5.099,0-8.749-1.468-10.965-2.934c-2.183-2.166-3.649-4.399-3.649-7.264V766.11z
	 M519.721,770.511c2.183,0,3.648-0.768,5.115-0.768c0.716-0.699,0.716-1.397,1.468-2.165c0-0.699,0-2.165,0-4.366v-4.4
	c-1.468,2.935-3.65,4.4-6.583,5.134v-6.6c2.183,0,3.648-0.733,5.115-2.201c1.468-2.199,2.218-4.398,2.218-7.333
	c0-3.631-0.75-5.796-2.218-7.263c-1.467-1.468-2.933-2.235-5.115-2.235v-6.529c2.933,0.732,5.115,2.129,7.333,5.098v-4.365h8.015
	v28.496c0,3.631-0.716,6.565-0.716,8.031c-0.752,2.235-1.468,3.632-2.933,4.399c-0.718,0.699-2.184,2.165-4.366,2.165
	c-2.218,0.769-4.4,1.468-7.333,1.468V770.511z"/>
<path d="M555.549,764.68c-5.099,0-8.8-1.468-11.664-5.135c-2.233-2.933-2.933-6.564-2.933-10.965c0-5.099,1.468-9.499,4.4-12.432
	c2.165-2.898,5.797-4.364,10.196-4.364v6.565c-1.466,0-2.934,0.731-4.399,1.431c-0.699,1.466-1.467,3.701-1.467,5.866h5.866v5.1
	h-5.866c0,2.234,0.768,4.398,1.467,5.866c1.466,0.733,2.934,1.467,4.399,2.199V764.68 M555.549,731.784
	c4.365,0,8.032,1.466,10.965,4.364c2.934,3.632,3.667,8.032,3.667,14.598h-14.632v-5.1h6.564c0-2.898-0.697-4.4-2.199-5.866
	c-0.699-0.699-2.165-1.431-4.365-1.431V731.784z M561.416,753.68l8.765,1.465c-1.466,2.935-2.933,5.868-5.133,7.334
	c-2.166,1.467-5.134,2.201-8.766,2.201h-0.733v-5.868h0.733c1.467,0,2.201-0.732,2.933-1.466
	C560.647,756.612,561.416,755.879,561.416,753.68z"/>
<path d="M576.78,763.945v-43.86h8.73v16.063c1.467-2.199,3.666-3.632,6.601-4.364v6.565c-2.2,0-3.666,0.731-5.134,2.199
	c-1.467,1.467-2.165,3.632-2.165,7.333c0,2.864,0.698,5.099,2.165,6.565c0.769,2.165,2.934,3.632,5.134,3.632v6.601
	c-0.733-0.734-2.2-0.734-2.935-1.468c-1.431-0.733-3.666-2.199-4.364-3.667v4.4H576.78 M592.111,731.784c0.732,0,1.466,0,2.2,0
	c3.666,0,7.299,1.466,9.498,4.364c2.933,2.201,3.666,6.6,3.666,11.733c0,5.099-0.733,9.498-3.666,12.397
	c-2.934,2.933-5.832,4.4-9.498,4.4c-0.734,0-1.468,0-2.2,0v-6.601c2.2,0,3.667-0.699,5.133-2.2c1.433-1.432,2.201-4.364,2.201-7.299
	c0-3.631-0.769-6.564-2.201-8.031c-1.466-1.468-2.933-2.199-5.133-2.199V731.784z"/>
<path d="M627.206,764.68c-5.866,0-9.498-1.468-12.431-5.135c-1.468-2.933-2.934-6.564-2.934-10.965
	c0-5.099,1.466-9.499,4.398-12.432c2.935-2.898,5.868-4.364,10.232-4.364h0.733v6.565c-2.199,0-3.631,0.731-5.098,1.431
	c-0.769,1.466-1.468,3.701-1.468,5.866h6.565v5.1h-6.565c0,2.234,0.699,4.398,2.165,5.866c0.77,0.733,2.201,1.467,4.4,2.199V764.68
	 M627.206,731.784c4.4,0,8.067,1.466,10.232,4.364c2.933,3.632,4.4,8.032,4.4,14.598h-14.633v-5.1h5.868
	c0-2.898-0.734-4.4-1.468-5.866c-1.467-0.699-2.933-1.431-4.4-1.431V731.784z M633.074,753.68l8.03,1.465
	c-1.467,2.935-2.933,5.868-5.132,7.334c-2.167,1.467-5.1,2.201-8.767,2.201v-5.868c1.468,0,2.934-0.732,3.667-1.466
	S632.34,755.879,633.074,753.68z"/>
<path d="M676.933,763.945h-8.03v-16.134c0-3.631-0.734-5.866-0.734-6.565c-0.733-0.768-0.733-1.466-1.466-2.233
	c-1.467-0.699-2.2-0.699-2.935-0.699c-1.466,0-2.933,0-4.398,0.699c-0.733,0.768-1.433,2.233-2.201,3.701
	c-0.697,0.699-0.697,3.632-0.697,7.299v13.933h-8.032v-31.498h7.264v4.4c2.934-3.632,6.6-5.1,11-5.1c1.466,0,2.934,0,5.133,0.699
	c1.467,0.769,2.165,1.466,2.933,2.934c0.699,0.768,1.434,2.234,2.165,3.632c0,0.768,0,2.933,0,5.168V763.945"/>
<path d="M478.042,352.265c-0.716,0-2.183,0-3.649,0c-2.898,0-5.867-0.715-7.298-2.182c-2.217-2.218-2.934-4.4-2.934-6.583
	c0-2.217,0.716-3.667,1.467-5.098c0.716-1.466,2.182-2.217,3.649-2.934c1.467-0.75,3.649-1.467,6.582-2.217
	c0.717,0,1.467,0,2.183-0.716v5.867c-2.183,0-2.898,0.698-3.649,0.698c-1.466,0.733-2.182,2.183-2.182,2.933
	c0,1.467,0.716,2.183,1.466,3.649c0.716,0.751,2.182,0.751,3.649,0.751h0.716V352.265 M472.927,329.602l-8.049-1.467
	c0.751-2.933,2.217-5.116,4.4-6.583c2.217-1.466,5.116-2.182,8.765-2.182v6.583c-1.466,0-2.183,0-3.649,0.716
	C473.677,327.418,472.927,328.134,472.927,329.602z M478.042,319.37h0.751c3.631,0,6.565,0.716,8.032,1.466
	c2.182,0.716,3.649,2.183,4.365,3.65c0.75,0.715,0.75,3.648,0.75,7.333v9.463c0,2.934,0,5.151,0.716,6.582
	c0,0.751,0.751,2.218,1.466,3.685h-8.765c0,0,0-1.467-0.716-2.218c0-0.716,0-0.716,0-0.716c-1.466,1.467-2.916,2.183-4.382,2.934
	c-0.715,0-1.466,0.715-2.217,0.715v-5.832c1.502,0,2.217-0.751,3.684-1.466c0.698-0.751,1.449-1.467,1.449-2.934
	c0.716-0.75,0.716-1.466,0.716-3.631v-1.466c-1.467,0-2.933,0.715-5.098,0.715l-0.751,0.751v-5.867c2.916,0,4.382-0.716,5.849-1.467
	v-0.716c0-1.466-0.716-2.933-1.467-3.684c-0.698-0.716-2.165-0.716-4.382-0.716V319.37z"/>
<path d="M499.99,351.549v-43.163h8.049v15.382c2.183-2.217,4.366-3.684,7.299-4.399v6.583c-2.183,0-3.648,0.716-5.116,2.182
	c-1.466,1.467-2.183,3.685-2.183,7.333c0,2.934,0.716,5.814,1.467,7.281c1.466,2.218,3.649,2.934,5.832,2.934v6.583
	c-1.467,0-2.183-0.715-2.933-1.466c-2.184-0.716-3.65-2.183-4.366-3.649v4.4H499.99 M515.338,319.37c0.75,0,1.468,0,2.218,0
	c3.632,0,7.28,1.466,9.498,4.399c2.183,2.899,3.648,6.583,3.648,11.699c0,5.814-1.466,9.499-3.648,12.396
	c-2.934,2.934-5.866,4.4-9.498,4.4c-0.75,0-1.468,0-2.218,0v-6.583c2.218,0,3.685-0.715,5.098-2.183
	c1.468-1.467,1.468-3.667,1.468-7.315c0-3.649,0-6.583-1.468-8.05c-1.413-1.466-2.88-2.182-5.098-2.182V319.37z"/>
<path d="M502.924,429.038c-10.983,0.751-19.748,5.867-27.78,16.099c-8.049,10.214-13.165,32.144-15.382,65.79
	c11.733-13.881,26.313-21.913,43.162-24.13v40.229c-10.983,0-19.748,4.4-27.064,13.146c-7.333,8.049-10.982,20.464-10.982,37.296
	c0,17.53,3.649,31.429,12.449,41.661c7.315,8.799,16.081,13.933,25.597,14.631v46.062c-29.247,0-53.394-10.932-72.409-33.629
	c-18.997-23.396-28.513-60.692-28.513-112.586c0-53.393,9.516-91.404,29.264-115.552c18.979-21.913,42.411-33.611,71.658-35.078
	V429.038 M502.924,486.797c2.933,0,5.832-0.715,8.766-0.715c23.379,0,43.161,8.765,59.958,27.063
	c16.099,17.53,24.863,40.193,24.863,67.956c0,29.997-8.765,54.127-26.33,71.692c-17.565,18.263-40.229,27.029-67.257,27.029v-46.062
	c0.716,0,2.182,0,2.933,0c10.231,0,18.263-3.631,25.563-11.698c6.581-8.032,10.231-21.895,10.231-40.193
	c0-18.997-3.65-32.896-10.949-41.696c-7.333-8.03-16.831-13.146-27.778-13.146V486.797z M590.645,455.351l-53.359,5.866
	c-1.467-10.965-5.115-19.014-10.981-24.13c-5.116-5.867-12.433-8.05-21.198-8.05c-0.715,0-1.466,0-2.182,0v-46.06
	c2.182,0,3.649,0,5.115,0c22.663,0,40.945,6.583,54.843,18.997C577.479,413.708,586.978,431.972,590.645,455.351z"/>
</svg>
