<?xml version="1.0" encoding="UTF-8" standalone="no"?>
<!-- Created with Inkscape (http://www.inkscape.org/) -->

<svg
   xmlns:svg="http://www.w3.org/2000/svg"
   xmlns="http://www.w3.org/2000/svg"
   version="1.1"
   width="199.99998"
   height="173.49731"
   id="svg6003">
  <defs
     id="defs6005" />
  <g
     transform="translate(-459.30081,-261.39893)"
     id="layer1">
    <path
       d="m 658.21823,433.81068 -197.83485,0.003 98.91742,-171.33218 98.91743,171.32791 z"
       id="path4661"
       style="fill:#ffffff;fill-opacity:1;fill-rule:nonzero;stroke:none" />
    <path
       d="m 658.21823,433.81068 -197.83485,0.003 98.91742,-171.33218 98.91743,171.32791 z"
       id="path4663"
       style="fill:none;stroke:#006bb6;stroke-width:2.16514015;stroke-linecap:butt;stroke-linejoin:miter;stroke-miterlimit:3.86400008;stroke-opacity:1;stroke-dasharray:none" />
    <path
       d="m 556.17053,345.83852 c 0.0308,-0.0512 0.11104,-0.14519 0.29894,-0.28629 0.81993,-0.62349 3.1986,-1.45197 3.2712,-1.47759 2.30606,-0.80713 3.5744,0.55516 4.65483,2.3445 1.042,1.73382 2.35304,5.04772 2.45127,7.4093 0.0769,1.96016 -0.84983,2.61782 -2.31461,3.5616 -1.05481,0.679 -2.5623,0.29893 -2.57511,0.29483 -0.20054,-0.0642 -1.49894,-0.48257 -3.31817,-1.33666 -0.75161,-0.35018 -0.9267,-0.74734 -0.98221,-0.94805 -0.0342,-0.12368 -0.0383,-0.27776 -0.0342,-0.35018 l 0.0386,-0.22617 c 0,0 0.11103,-1.69111 0.11103,-2.46834 0,-0.96514 -0.59787,-3.40359 -1.26407,-5.06481 -0.32865,-0.8242 -0.35445,-1.28115 -0.33754,-1.45197 m 26.46425,-5.69683 -0.10659,-0.50819 c -0.0813,-0.67901 -0.94378,-7.98155 -0.84983,-9.39936 0.10659,-1.58862 0.23061,-10.12961 -0.49111,-12.93959 -0.3331,-1.28969 -1.10606,-2.63063 -2.56229,-2.19931 -0.46122,0.13666 -0.79004,0.43986 -0.95659,0.61068 -0.13666,0.1411 -0.23471,0.27332 -0.28186,0.34164 -0.35872,0.45268 -4.93669,6.23919 -6.49115,8.20362 -1.05054,1.33667 -1.16157,2.8655 -1.05481,3.96302 0.0557,0.55516 0.17082,1.03346 0.27331,1.37083 0.0728,0.24769 0.13666,0.42705 0.17527,0.51673 l 4.75305,15.92039 c 0.54663,1.57582 0.68328,3.63846 0.70036,3.90323 0.1025,5.56019 -0.87972,11.51752 -0.94804,11.92749 -0.35873,1.85767 -0.35873,3.24985 0.41423,3.99291 0.46976,0.45268 1.02492,0.48257 1.3751,0.43132 0.11958,-0.0171 0.23061,-0.0512 0.32456,-0.0813 0.44413,-0.0639 0.79858,-0.28185 1.042,-0.47829 0.29893,-0.23915 0.54662,-0.52954 0.73025,-0.77296 0.17936,-0.24769 0.32866,-0.49538 0.43559,-0.67901 l 0.1066,-0.20498 c 0.14519,-0.17492 0.26067,-0.23915 0.32011,-0.26477 0.0642,-0.0308 0.11958,-0.0342 0.17082,-0.0308 0.0642,0.007 0.19234,0.0642 0.24359,0.0899 1.03773,0.60214 2.59219,1.18293 3.77085,1.56727 1.20855,0.39289 2.29752,0.67901 2.29752,0.67901 l 0.12812,0.003 c 1.7936,0.0598 3.21995,-0.29449 4.2107,-0.679 0.50392,-0.19235 0.88826,-0.39289 1.14876,-0.54236 0.24359,-0.13665 0.38862,-0.24359 0.43559,-0.27775 0,0 0.884,-0.6363 2.00287,-1.50748 1.10605,-0.86264 2.48115,-1.98578 3.4591,-2.968 0.48256,-0.47829 0.86264,-0.84555 1.16157,-1.18292 0.3372,-0.37154 0.62349,-0.75588 0.84556,-1.23417 0.43132,-0.9267 0.52527,-2.04984 0.58078,-3.76658 0.11104,-3.58294 -0.53808,-9.13885 -1.81068,-12.16663 -1.42208,-3.39505 -4.24915,-4.36872 -7.42639,-4.36872 -2.72031,0 -6.35023,1.66549 -8.12675,2.72885 m 30.65787,26.29769 -45.04516,0 c 2.084,-0.47402 3.83063,-1.66122 4.85128,-4.10394 1.26834,-3.02778 1.91745,-8.58796 1.80642,-12.16664 -0.0512,-1.71673 -0.1452,-2.8356 -0.57652,-3.76657 -0.22206,-0.4783 -0.51246,-0.86264 -0.84556,-1.23417 -0.29893,-0.3372 -0.67901,-0.70463 -1.16157,-1.18293 -0.97794,-0.98221 -2.35731,-2.10535 -3.46337,-2.96799 -1.02065,-0.79858 -1.84485,-1.39645 -1.97724,-1.49468 0,0 -0.15818,-0.11957 -0.45694,-0.29039 -0.26067,-0.1493 -0.64485,-0.35018 -1.14876,-0.54235 -0.99076,-0.38435 -2.4171,-0.7388 -4.21498,-0.67901 l -0.12367,0.003 c 0,0 -1.09325,0.28629 -2.29753,0.67901 -1.17866,0.38434 -2.80144,1.00356 -3.83917,1.6057 -0.0513,0.0239 -0.11104,0.0472 -0.17526,0.0513 -0.0512,0.003 -0.1066,0 -0.17492,-0.0308 -0.0557,-0.0239 -0.17082,-0.0899 -0.31602,-0.26477 l -0.10659,-0.20499 c -0.10659,-0.18346 -0.25623,-0.43132 -0.43986,-0.679 -0.17936,-0.24359 -0.42705,-0.53382 -0.72599,-0.77296 -0.24324,-0.19645 -0.60214,-0.41424 -1.04627,-0.4783 -0.0899,-0.0342 -0.20054,-0.0639 -0.32011,-0.081 -0.35018,-0.0512 -0.90962,-0.0205 -1.3751,0.43132 -0.77296,0.7388 -0.77723,2.12244 -0.42278,3.97156 0,0 1.05481,6.16232 0.95659,11.91895 0,0 -0.11513,2.24628 -0.70036,3.93312 l -2.49397,8.34455 -7.91322,0 c 0.0984,-1.6356 0.14519,-2.97227 0.0939,-3.7196 -0.21353,-3.24131 -0.42705,-13.46487 -0.42705,-13.46487 l -0.0512,-0.54662 6.58083,0 c 0,0 0.55517,-0.0557 1.16158,-0.17082 0.50392,-0.094 1.25125,-0.26067 1.81923,-0.5509 0.24769,-0.0769 0.55943,-0.22616 0.7815,-0.51245 0.5936,-0.75588 0.26033,-1.66123 -0.1452,-2.30607 l -3.25412,-5.75235 c 0,0 -0.0728,-0.12368 -0.19234,-0.26888 -0.0984,-0.12367 -0.24769,-0.28185 -0.43986,-0.44413 -0.38007,-0.32455 -0.99929,-0.69609 -1.83204,-0.69609 -0.95232,0 -2.05838,0.31192 -4.4285,0.38862 -0.003,-0.12812 0.0137,-0.3331 0.081,-0.64485 0.54235,-2.4171 2.31033,-9.12177 5.59007,-13.11468 0.0854,-0.0899 0.21353,-0.20088 0.36726,-0.28629 0.25623,-0.13666 0.69609,-0.28186 1.43489,0.12367 2.18222,1.18293 5.94453,3.21141 5.94453,3.21141 0,0 -0.11104,-2.82707 -0.27741,-4.11248 -0.17082,-1.28115 -0.47403,-2.968 -1.00357,-4.6036 -1.00784,-3.10892 -3.23276,-7.01215 -7.75949,-5.88901 -4.11675,1.02065 -6.8456,5.67549 -8.49828,9.54456 -1.71247,4.00572 -2.55375,7.96019 -2.55375,7.96019 l 0.0171,0.17082 c 0.0642,0.67047 0.45267,6.99934 -0.86264,7.55451 -0.7089,0.30337 -1.1146,0.13665 -1.47332,-0.12812 -0.11513,-0.0854 -0.22207,-0.17492 -0.31602,-0.26477 -0.11957,-0.11103 -0.2306,-0.22206 -0.32865,-0.32011 -0.13222,-0.13666 -0.26067,-0.25623 -0.37154,-0.35019 -0.12811,-0.10659 -0.34164,-0.26887 -0.62349,-0.36299 l -0.67474,-0.22616 -6.92247,7.38795 c 0,0 -0.13665,0.16638 -0.25623,0.36726 -0.10249,0.17082 -0.26032,0.46122 -0.34163,0.79859 -0.27332,1.14022 0.48256,2.07118 1.87047,2.07118 l 7.17443,0 0.11957,-0.0239 c 0.51246,-0.11513 0.75161,-0.0728 0.61922,0.68755 -0.39715,2.32742 -3.1687,12.39297 -3.51461,13.64422 -0.0468,0.0854 -0.10249,0.20499 -0.16228,0.35873 -0.12367,0.30337 -0.25623,0.73025 -0.34591,1.27687 -0.12811,0.82421 -0.15374,1.8961 0.10659,3.21568 l -20.9425,0 53.99185,-93.51525 53.99184,93.51525 z m -28.46284,-6.3972 c -0.0728,-0.0239 -2.45126,-0.85409 -3.26692,-1.47759 -0.19201,-0.14075 -0.30748,-0.34591 -0.34164,-0.39715 -0.0137,-0.17082 0.0471,-0.51673 0.38007,-1.34094 0.66193,-1.66122 1.2598,-4.10394 1.2598,-5.0648 0,-0.77723 -0.1066,-2.46835 -0.1452,-2.73312 -0.007,-0.0769 -0.003,-0.1879 0.0308,-0.31191 0.0557,-0.20055 0.2306,-0.59787 0.98221,-0.95232 1.81923,-0.84983 3.11746,-1.26834 3.31817,-1.3324 0.0171,-0.003 1.5203,-0.38434 2.57511,0.29484 1.46905,0.94378 2.39575,1.60143 2.31461,3.56159 -0.0984,2.36158 -1.40499,5.67548 -2.45127,7.4093 -1.08043,1.78934 -2.34877,3.15163 -4.65483,2.3445 m -21.26706,6.3972 -6.35022,0 c 0.11103,-1.00356 0.20088,-1.75944 0.22206,-1.95588 l 0.11104,-0.50819 c 1.34093,0.80712 3.74949,1.95161 6.01712,2.46407"
       id="path4665"
       style="fill:#006bb6;fill-opacity:1;fill-rule:nonzero;stroke:none" />
    <path
       d="m 580.88815,359.45285 c -0.99503,-0.7516 -0.9694,-1.42207 -0.32012,-3.03632 0.64485,-1.61424 1.18293,-3.90323 1.18293,-4.65483 0,-0.75588 -0.10659,-2.39575 -0.10659,-2.39575 0,0 -0.46122,-1.63987 1.61424,-2.60927 2.06692,-0.9694 3.49327,-1.39645 3.49327,-1.39645 0,0 1.96442,-0.53809 3.47191,0.42705 1.50748,0.9694 2.92955,1.9388 2.82279,4.54807 -0.10659,2.60927 -1.50321,6.10681 -2.60927,7.93458 -1.10179,1.83204 -2.82279,3.92885 -5.97015,2.82706 0,0 -2.58365,-0.88826 -3.57867,-1.64414 m -9.54882,-29.72263 4.7616,15.95029 c 0.64484,1.85767 0.7516,4.22352 0.7516,4.22352 0.11104,5.86339 -0.9694,12.1581 -0.9694,12.1581 -0.75161,3.90323 0.75588,3.04059 0.75588,3.04059 0.86264,0 1.63987,-1.63987 1.63987,-1.63987 1.07616,-1.42635 2.28898,-0.53809 2.28898,-0.53809 1.8534,1.07617 5.61997,2.07119 5.61997,2.07119 3.25412,0.1066 5.11178,-1.28968 5.11178,-1.28968 0,0 3.46764,-2.50251 5.32531,-4.36018 1.85766,-1.85339 2.15232,-1.93453 2.25909,-5.43207 0.10659,-3.49753 -0.53809,-8.87835 -1.72101,-11.70115 -1.18293,-2.82706 -3.47191,-3.68543 -6.40147,-3.68543 -2.93383,0 -7.28973,2.25909 -8.25913,3.04059 -0.96941,0.77723 -0.75161,-0.24359 -0.75161,-0.24359 l -0.32456,-1.50748 c 0,0 -0.9694,-8.04134 -0.85837,-9.65559 0.10659,-1.61424 0.21353,-9.98014 -0.45694,-12.58941 -0.67474,-2.60927 -1.83204,-0.85837 -1.83204,-0.85837 0,0 -4.89399,6.18367 -6.50823,8.22924 -1.61425,2.04557 -0.43132,4.78722 -0.43132,4.78722"
       id="path4667"
       style="fill:#000000;fill-opacity:1;fill-rule:nonzero;stroke:none" />
    <path
       d="m 551.4431,325.78002 c 0,0 -0.53808,-13.36665 -7.58867,-11.62002 -7.04631,1.74664 -10.19367,16.48838 -10.19367,16.48838 0,0 0.75161,7.72105 -1.5331,8.68618 -2.28472,0.9694 -3.25412,-1.18293 -3.89896,-1.39645 l -6.40147,6.83279 c 0,0 -1.10179,1.39645 0.42705,1.39645 l 7.05058,0 c 0,0 2.39148,-0.53808 1.96016,1.96443 -0.42705,2.50251 -3.5744,13.8791 -3.5744,13.8791 0,0 -1.18293,1.85766 0,5.5431 1.18292,3.68543 5.53883,15.27982 6.93955,16.81293 1.39645,1.53311 2.39147,1.72101 2.39147,-0.43132 0,-2.15233 1.72101,-17.88909 1.50749,-21.14321 -0.21353,-3.25412 -0.43132,-13.47768 -0.43132,-13.47768 l -0.10659,-1.18292 c 0,0 -0.35018,-0.53809 0.64484,-0.53809 l 7.05058,0 c 0,0 1.82778,-0.1879 2.60928,-0.64484 0,0 0.85836,-0.0239 0.10659,-1.20855 l -3.25839,-5.75662 c 0,0 -0.53381,-0.86264 -1.50321,-0.86264 -0.9694,0 -2.09682,0.32455 -4.36018,0.32455 0,0 -1.60997,0.45695 -1.07616,-1.9388 0.53808,-2.39148 2.18222,-9.14313 5.64986,-13.36664 0,0 1.18293,-1.83204 3.36515,-0.64485 2.17795,1.18293 4.22352,2.28472 4.22352,2.28472"
       id="path4669"
       style="fill:#e03a3e;fill-opacity:1;fill-rule:nonzero;stroke:none" />
    <path
       d="m 555.799,344.66414 c -0.99502,0.7516 -0.9694,1.42634 -0.32456,3.03632 0.64912,1.61424 1.1872,3.90323 1.1872,4.65483 0,0.75588 -0.11103,2.39575 -0.11103,2.39575 0,0 -0.45695,1.63987 1.61424,2.60927 2.07119,0.9694 3.49754,1.39645 3.49754,1.39645 0,0 1.96442,0.53809 3.47191,-0.42705 1.50321,-0.9694 2.92956,-1.9388 2.82279,-4.54807 -0.10659,-2.60927 -1.50748,-6.10681 -2.60927,-7.93458 -1.10178,-1.82777 -2.82279,-3.92885 -5.97015,-2.82279 0,0 -2.58364,0.88399 -3.57867,1.63987 m -9.54882,29.72263 4.7616,-15.95029 c 0.64484,-1.85767 0.7516,-4.22352 0.7516,-4.22352 0.1066,-5.86339 -0.9694,-12.15809 -0.9694,-12.15809 -0.7516,-3.90324 0.75588,-3.0406 0.75588,-3.0406 0.85837,0 1.63987,1.63987 1.63987,1.63987 1.07616,1.42635 2.28471,0.53809 2.28471,0.53809 1.85767,-1.07617 5.62424,-2.07119 5.62424,-2.07119 3.25412,-0.10659 5.11178,1.29396 5.11178,1.29396 0,0 3.46764,2.49823 5.32531,4.3559 1.85339,1.85766 2.15233,1.93453 2.25909,5.43207 0.10659,3.49753 -0.53808,8.87835 -1.72101,11.70115 -1.18293,2.82706 -3.47191,3.68543 -6.40147,3.68543 -2.93383,0 -7.28973,-2.25909 -8.25913,-3.04059 -0.9694,-0.77723 -0.75161,0.24359 -0.75161,0.24359 l -0.32456,1.50748 c 0,0 -0.9694,8.04134 -0.86264,9.65559 0.11104,1.61425 0.21763,9.98014 -0.45694,12.58941 -0.67047,2.60927 -1.82777,0.85837 -1.82777,0.85837 0,0 -4.89399,-6.18367 -6.50823,-8.22924 -1.61425,-2.04556 -0.43132,-4.78722 -0.43132,-4.78722"
       id="path4671"
       style="fill:#ffe11a;fill-opacity:1;fill-rule:nonzero;stroke:none" />
    <path
       d="m 545.04163,402.37558 0,20.26349 6.74311,0 0,-25.99449 -10.44563,0 0,5.731 3.70252,0 z"
       id="path4673"
       style="fill:#006bb6;fill-opacity:1;fill-rule:nonzero;stroke:none" />
    <path
       d="m 570.98914,395.67091 c -6.5851,0 -11.02641,5.61142 -11.02641,13.9517 0,8.3787 4.40288,13.99013 11.02641,13.99013 6.5851,0 10.98798,-5.61143 10.98798,-13.99013 0,-8.34028 -4.40288,-13.9517 -10.98798,-13.9517 m 0,6.04274 c 2.53241,0 4.28758,3.2712 4.28758,7.98582 0,4.71463 -1.75517,7.9901 -4.28758,7.9901 -2.57083,0 -4.32601,-3.27547 -4.32601,-7.9901 0,-4.71462 1.75518,-7.98582 4.32601,-7.98582"
       id="path4675"
       style="fill:#006bb6;fill-opacity:1;fill-rule:nonzero;stroke:none" />
  </g>
</svg>
