<?xml version="1.0" encoding="UTF-8" standalone="no"?>
<!-- Created with Inkscape (http://www.inkscape.org/) -->

<svg
   xmlns:svg="http://www.w3.org/2000/svg"
   xmlns="http://www.w3.org/2000/svg"
   version="1.1"
   width="199.99998"
   height="173.49731"
   id="svg6056">
  <defs
     id="defs6058" />
  <g
     transform="translate(-216.44367,-358.54179)"
     id="layer1">
    <path
       d="m 415.36109,530.95354 -197.83485,0.003 98.91742,-171.33218 98.91743,171.32791 z"
       id="path4677"
       style="fill:#ffffff;fill-opacity:1;fill-rule:nonzero;stroke:none" />
    <path
       d="m 415.36109,530.95354 -197.83485,0.003 98.91742,-171.33218 98.91743,171.32791 z"
       id="path4679"
       style="fill:none;stroke:#006bb6;stroke-width:2.16514015;stroke-linecap:butt;stroke-linejoin:miter;stroke-miterlimit:3.86400008;stroke-opacity:1;stroke-dasharray:none" />
    <path
       d="m 313.31339,442.98138 c 0.0342,-0.0512 0.11548,-0.14519 0.30338,-0.28629 0.81993,-0.62349 3.19433,-1.45197 3.2712,-1.47759 2.30179,-0.80713 3.5744,0.55516 4.65056,2.3445 1.04627,1.73382 2.35305,5.04772 2.45127,7.4093 0.0813,1.96016 -0.84556,2.61782 -2.31461,3.5616 -1.05054,0.679 -2.55803,0.29893 -2.57084,0.29483 -0.20088,-0.0642 -1.50321,-0.48257 -3.32244,-1.33666 -0.75161,-0.35018 -0.9267,-0.74734 -0.97794,-0.94805 -0.0342,-0.12368 -0.0383,-0.27776 -0.0342,-0.35018 l 0.0383,-0.22617 c 0,0 0.11103,-1.69111 0.11103,-2.46834 0,-0.96514 -0.59787,-3.40359 -1.26407,-5.06481 -0.32865,-0.8242 -0.35445,-1.28115 -0.34164,-1.45197 m 26.46852,-5.69683 -0.11103,-0.50819 c -0.081,-0.67901 -0.94378,-7.98155 -0.84983,-9.39936 0.10659,-1.58862 0.23505,-10.12961 -0.48684,-12.93959 -0.3331,-1.28969 -1.11033,-2.63063 -2.56229,-2.19931 -0.46549,0.13666 -0.79004,0.43986 -0.95659,0.61068 -0.13666,0.14076 -0.23915,0.27332 -0.2863,0.34164 -0.35445,0.45268 -4.93669,6.23919 -6.48688,8.20362 -1.05481,1.33667 -1.16584,2.8655 -1.05481,3.96302 0.0553,0.55516 0.17082,1.03346 0.26887,1.37083 0.0728,0.24769 0.14076,0.42705 0.17936,0.51673 l 4.75306,15.92039 c 0.54662,1.57582 0.68328,3.63846 0.69609,3.90323 0.10249,5.56019 -0.87972,11.51752 -0.94805,11.92749 -0.35872,1.85767 -0.35872,3.24985 0.41424,3.99291 0.46975,0.45268 1.02919,0.48257 1.37937,0.43132 0.11957,-0.0171 0.23061,-0.0512 0.32012,-0.0813 0.44413,-0.0642 0.79858,-0.28185 1.04627,-0.47829 0.29893,-0.23915 0.54662,-0.52954 0.72598,-0.77296 0.1838,-0.24769 0.3331,-0.49538 0.43559,-0.67901 l 0.11103,-0.20498 c 0.1452,-0.17527 0.25623,-0.23915 0.31602,-0.26477 0.0683,-0.0308 0.11957,-0.0342 0.17526,-0.0308 0.0642,0.007 0.19234,0.0642 0.24325,0.0899 1.03773,0.60214 2.59219,1.18293 3.77084,1.56727 1.20428,0.39289 2.29753,0.67901 2.29753,0.67901 l 0.12367,0.003 c 1.79788,0.0598 3.22422,-0.29483 4.21498,-0.679 0.49965,-0.192 0.88826,-0.39289 1.14876,-0.54236 0.23915,-0.13665 0.38435,-0.24359 0.43559,-0.27775 0,0 0.87972,-0.6363 1.99859,-1.50748 1.10606,-0.86264 2.48543,-1.98578 3.46337,-2.968 0.4783,-0.47829 0.85837,-0.84555 1.16158,-1.18292 0.33309,-0.37154 0.62349,-0.75588 0.84555,-1.23417 0.43132,-0.9267 0.52527,-2.04984 0.57652,-3.76658 0.11103,-3.58294 -0.53808,-9.13885 -1.80642,-12.16663 -1.42207,-3.39505 -4.24914,-4.36872 -7.43066,-4.36872 -2.71603,0 -6.34595,1.66549 -8.12247,2.72885 m 30.6536,26.29769 -45.04089,0 c 2.07973,-0.47402 3.82636,-1.66122 4.85128,-4.10394 1.26833,-3.02778 1.91745,-8.58796 1.80641,-12.16664 -0.0512,-1.71673 -0.14519,-2.8356 -0.57651,-3.76657 -0.22207,-0.4783 -0.51246,-0.86264 -0.84556,-1.23417 -0.30338,-0.3372 -0.68328,-0.70463 -1.16157,-1.18293 -0.98222,-0.98221 -2.35732,-2.10535 -3.46337,-2.96799 -1.02492,-0.79858 -1.84913,-1.39645 -1.98151,-1.49468 0,0 -0.15374,-0.11957 -0.45695,-0.29039 -0.25623,-0.1493 -0.64484,-0.35018 -1.14449,-0.54235 -0.99075,-0.38435 -2.4171,-0.7388 -4.21497,-0.67901 l -0.12812,0.003 c 0,0 -1.08898,0.28629 -2.29752,0.67901 -1.17866,0.38434 -2.80145,1.00356 -3.83918,1.6057 -0.0471,0.0239 -0.11103,0.0471 -0.17082,0.0512 -0.0553,0.003 -0.10659,0 -0.17526,-0.0308 -0.0598,-0.0239 -0.17082,-0.0899 -0.31602,-0.26477 l -0.11103,-0.20499 c -0.10249,-0.1838 -0.25623,-0.43132 -0.43559,-0.679 -0.18346,-0.24359 -0.42705,-0.53382 -0.73025,-0.77296 -0.24325,-0.19645 -0.59787,-0.41424 -1.042,-0.4783 -0.094,-0.0342 -0.20089,-0.0642 -0.32456,-0.0813 -0.34591,-0.0512 -0.90534,-0.0205 -1.3751,0.43132 -0.76869,0.7388 -0.77296,2.12244 -0.41851,3.97156 0,0 1.05481,6.16232 0.95232,11.91895 0,0 -0.11103,2.24628 -0.70036,3.93312 l -2.4897,8.34454 -7.91322,0 c 0.0984,-1.6356 0.1452,-2.97226 0.094,-3.7196 -0.21352,-3.2413 -0.43132,-13.46486 -0.43132,-13.46486 l -0.0471,-0.54662 6.58083,0 c 0,0 0.55516,-0.0557 1.1573,-0.17082 0.50819,-0.094 1.25552,-0.26033 1.81923,-0.5509 0.24769,-0.0769 0.5637,-0.22616 0.78577,-0.51246 0.5936,-0.75587 0.25623,-1.66122 -0.1493,-2.30606 l -3.25411,-5.75236 c 0,0 -0.0724,-0.12367 -0.19235,-0.26921 -0.0984,-0.12367 -0.24324,-0.28185 -0.43559,-0.44413 -0.38007,-0.32456 -1.00356,-0.69609 -1.83631,-0.69609 -0.94805,0 -2.05411,0.31192 -4.4285,0.38861 0,-0.12811 0.0137,-0.33309 0.0854,-0.64484 0.54235,-2.4171 2.30607,-9.12177 5.58581,-13.11468 0.0899,-0.0899 0.21352,-0.20055 0.37153,-0.2863 0.25213,-0.13665 0.69182,-0.28185 1.43488,0.12368 2.17796,1.18292 5.94453,3.21141 5.94453,3.21141 0,0 -0.11513,-2.82707 -0.28185,-4.11249 -0.16672,-1.28115 -0.46976,-2.96799 -0.9993,-4.60359 -1.0121,-3.10892 -3.23703,-7.01215 -7.76375,-5.88901 -4.11249,1.02065 -6.8456,5.67549 -8.49401,9.54455 -1.71247,4.00572 -2.55803,7.9602 -2.55803,7.9602 l 0.0171,0.17082 c 0.0642,0.67047 0.45267,6.99934 -0.85837,7.5545 -0.71317,0.30338 -1.1146,0.13666 -1.47332,-0.12811 -0.11957,-0.0854 -0.22206,-0.17492 -0.32011,-0.26477 -0.11958,-0.11103 -0.22617,-0.22207 -0.32456,-0.32012 -0.13666,-0.13665 -0.26033,-0.25623 -0.3758,-0.35018 -0.12368,-0.10659 -0.3372,-0.26921 -0.61923,-0.36299 l -0.679,-0.22617 -6.9182,7.38796 c 0,0 -0.13666,0.16672 -0.26067,0.36726 -0.1025,0.17082 -0.26033,0.46121 -0.3372,0.79858 -0.27741,1.14022 0.48256,2.07119 1.87047,2.07119 l 7.17016,0 0.11958,-0.0273 c 0.51673,-0.11513 0.75587,-0.0724 0.62349,0.68755 -0.40143,2.32742 -3.17298,12.39297 -3.51889,13.64422 -0.0427,0.0854 -0.10249,0.20499 -0.16228,0.35873 -0.11957,0.30337 -0.25623,0.73025 -0.34164,1.27687 -0.13221,0.82421 -0.15783,1.8961 0.1025,3.21568 l -20.9425,0 53.99184,-93.51525 53.99184,93.51525 z m -28.45857,-6.3972 c -0.0769,-0.0239 -2.45126,-0.85409 -3.2712,-1.47759 -0.1879,-0.14075 -0.30337,-0.34591 -0.3372,-0.39715 -0.0137,-0.17082 0.0471,-0.51673 0.37581,-1.34094 0.66619,-1.66122 1.26406,-4.10394 1.26406,-5.0648 0,-0.77723 -0.11103,-2.46835 -0.14964,-2.73312 -0.003,-0.0769 0,-0.1879 0.0342,-0.31191 0.0557,-0.20055 0.22651,-0.59787 0.98221,-0.95232 1.81923,-0.84983 3.11746,-1.26834 3.31818,-1.3324 0.0137,-0.003 1.52029,-0.38434 2.57083,0.29484 1.46905,0.94378 2.39575,1.60143 2.31461,3.56159 -0.0939,2.36158 -1.40499,5.67548 -2.44699,7.4093 -1.08044,1.78934 -2.34877,3.15163 -4.65484,2.3445 m -21.27133,6.3972 -6.35022,0 c 0.11103,-1.00356 0.20088,-1.75944 0.22617,-1.95588 l 0.11103,-0.50819 c 1.34093,0.80712 3.74522,1.95161 6.01285,2.46407"
       id="path4681"
       style="fill:#006bb6;fill-opacity:1;fill-rule:nonzero;stroke:none" />
    <path
       d="m 338.03528,456.59571 c -0.99503,-0.7516 -0.9694,-1.42207 -0.32456,-3.03632 0.64484,-1.61424 1.18293,-3.90323 1.18293,-4.65483 0,-0.75588 -0.10659,-2.39575 -0.10659,-2.39575 0,0 -0.45695,-1.63987 1.61424,-2.60927 2.07119,-0.9694 3.49754,-1.39645 3.49754,-1.39645 0,0 1.96442,-0.53809 3.46764,0.42705 1.50748,0.9694 2.93382,1.9388 2.82706,4.54807 -0.10659,2.60927 -1.50748,6.10681 -2.60927,7.93458 -1.10179,1.83204 -2.82279,3.92885 -5.97442,2.82706 0,0 -2.57938,-0.88826 -3.5744,-1.64414 m -9.54882,-29.72263 4.7616,15.95029 c 0.64484,1.85767 0.7516,4.22352 0.7516,4.22352 0.10659,5.86339 -0.9694,12.1581 -0.9694,12.1581 -0.75161,3.90323 0.75588,3.04059 0.75588,3.04059 0.85837,0 1.63987,-1.63987 1.63987,-1.63987 1.07616,-1.42635 2.28471,-0.53809 2.28471,-0.53809 1.85767,1.07617 5.62424,2.07119 5.62424,2.07119 3.25412,0.1066 5.10751,-1.28968 5.10751,-1.28968 0,0 3.47191,-2.50251 5.32958,-4.36018 1.85339,-1.85339 2.15232,-1.93453 2.25909,-5.43207 0.10659,-3.49753 -0.53809,-8.87835 -1.72101,-11.70115 -1.18293,-2.82706 -3.47191,-3.68543 -6.40574,-3.68543 -2.92956,0 -7.28546,2.25909 -8.25487,3.04059 -0.9694,0.77723 -0.75587,-0.24359 -0.75587,-0.24359 l -0.32012,-1.50748 c 0,0 -0.9694,-8.04134 -0.86264,-9.65559 0.11103,-1.61424 0.21763,-9.98014 -0.45694,-12.58941 -0.67047,-2.60927 -1.82777,-0.85837 -1.82777,-0.85837 0,0 -4.89826,6.18367 -6.50823,8.22924 -1.61852,2.04557 -0.43132,4.78722 -0.43132,4.78722"
       id="path4683"
       style="fill:#000000;fill-opacity:1;fill-rule:nonzero;stroke:none" />
    <path
       d="m 308.58596,422.92288 c 0,0 -0.53808,-13.36665 -7.5844,-11.62002 -7.04631,1.74664 -10.19794,16.48838 -10.19794,16.48838 0,0 0.75588,7.72105 -1.52883,8.68618 -2.28899,0.9694 -3.25839,-1.18293 -3.90323,-1.39645 l -6.40147,6.83279 c 0,0 -1.10179,1.39645 0.43132,1.39645 l 7.04631,0 c 0,0 2.39575,-0.53808 1.96443,1.96443 -0.43132,2.50251 -3.57867,13.8791 -3.57867,13.8791 0,0 -1.18293,1.85766 0,5.5431 1.18292,3.68543 5.5431,15.27982 6.93955,16.81293 1.40072,1.53311 2.39574,1.72101 2.39574,-0.43132 0,-2.15233 1.72101,-17.88909 1.50749,-21.14321 -0.21763,-3.25412 -0.43132,-13.47768 -0.43132,-13.47768 l -0.10659,-1.18292 c 0,0 -0.35018,-0.53809 0.64484,-0.53809 l 7.04631,0 c 0,0 1.83205,-0.1879 2.60928,-0.64484 0,0 0.86263,-0.0239 0.10659,-1.20855 l -3.25412,-5.75662 c 0,0 -0.53808,-0.86264 -1.50748,-0.86264 -0.96513,0 -2.09682,0.32455 -4.35591,0.32455 0,0 -1.61424,0.45695 -1.07616,-1.9388 0.53808,-2.39148 2.17795,-9.14313 5.64986,-13.36664 0,0 1.18293,-1.83204 3.36088,-0.64485 2.17795,1.18293 4.22352,2.28472 4.22352,2.28472"
       id="path4685"
       style="fill:#e03a3e;fill-opacity:1;fill-rule:nonzero;stroke:none" />
    <path
       d="m 312.94613,441.807 c -0.99929,0.7516 -0.9694,1.42634 -0.32456,3.03632 0.64485,1.61424 1.18293,3.90323 1.18293,4.65483 0,0.75588 -0.10659,2.39575 -0.10659,2.39575 0,0 -0.45694,1.63987 1.61425,2.60927 2.07118,0.9694 3.49753,1.39645 3.49753,1.39645 0,0 1.96443,0.53809 3.46764,-0.42705 1.50748,-0.9694 2.93383,-1.9388 2.8228,-4.54807 -0.1066,-2.60927 -1.50322,-6.10681 -2.60501,-7.93458 -1.10605,-1.82777 -2.82706,-3.92885 -5.97442,-2.82279 0,0 -2.58364,0.88399 -3.5744,1.63987 m -9.55309,29.72263 4.7616,-15.95029 c 0.64911,-1.85767 0.75588,-4.22352 0.75588,-4.22352 0.10659,-5.86339 -0.96941,-12.15809 -0.96941,-12.15809 -0.7516,-3.90324 0.75161,-3.0406 0.75161,-3.0406 0.86264,0 1.63987,1.63987 1.63987,1.63987 1.07616,1.42635 2.28898,0.53809 2.28898,0.53809 1.8534,-1.07617 5.61997,-2.07119 5.61997,-2.07119 3.25412,-0.10659 5.11178,1.29396 5.11178,1.29396 0,0 3.47191,2.49823 5.32531,4.3559 1.85766,1.85766 2.15233,1.93453 2.25909,5.43207 0.11103,3.49753 -0.53808,8.87835 -1.72101,11.70115 -1.18293,2.82706 -3.46764,3.68543 -6.40147,3.68543 -2.92956,0 -7.28973,-2.25909 -8.25913,-3.04059 -0.96513,-0.77723 -0.75161,0.24325 -0.75161,0.24325 l -0.32012,1.50748 c 0,0 -0.9694,8.04134 -0.86263,9.65559 0.10659,1.61424 0.21352,9.98014 -0.45695,12.58941 -0.67474,2.60927 -1.83204,0.85837 -1.83204,0.85837 0,0 -4.89398,-6.18367 -6.50823,-8.22924 -1.61425,-2.04557 -0.43132,-4.78722 -0.43132,-4.78722"
       id="path4687"
       style="fill:#ffe11a;fill-opacity:1;fill-rule:nonzero;stroke:none" />
    <path
       d="m 302.18876,499.51844 0,20.26349 6.73884,0 0,-25.99449 -10.44136,0 0,5.731 3.70252,0 z"
       id="path4689"
       style="fill:#006bb6;fill-opacity:1;fill-rule:nonzero;stroke:none" />
    <path
       d="m 326.85086,508.40106 c 0.54235,-0.11547 1.0121,-0.192 1.28541,-0.192 1.78934,0 3.42921,1.6356 3.42921,3.46764 0,1.98578 -1.44343,3.42921 -3.51034,3.42921 -2.18223,0 -3.54451,-1.32812 -3.69825,-3.62565 l -6.90112,0 c 0.0386,1.55873 0.39289,2.64771 1.24699,4.21071 1.95161,3.4292 5.14594,5.25697 9.27551,5.25697 6.11961,0 10.28761,-3.46764 10.28761,-8.57088 0,-3.27546 -1.63559,-5.80787 -4.24487,-6.66196 1.94735,-1.24699 2.76301,-2.92529 2.76301,-5.53456 0,-4.36445 -3.39077,-7.3666 -8.37443,-7.3666 -5.49613,0 -8.8869,3.04059 -9.58726,8.49828 l 6.27335,0 c 0.0769,-1.87048 1.08898,-2.96372 2.76728,-2.96372 1.55873,0 2.64771,1.09324 2.64771,2.57083 0,1.75517 -1.17012,2.92529 -2.88258,2.92529 -0.11548,0 -0.50819,-0.0427 -0.77723,-0.0427 l 0,4.59933 z"
       id="path4691"
       style="fill:#006bb6;fill-opacity:1;fill-rule:nonzero;stroke:none" />
  </g>
</svg>
