<?xml version="1.0" encoding="UTF-8" standalone="no"?>
<!-- Created with Inkscape (http://www.inkscape.org/) -->

<svg
   xmlns:svg="http://www.w3.org/2000/svg"
   xmlns="http://www.w3.org/2000/svg"
   version="1.1"
   width="199.99998"
   height="173.49731"
   id="svg6109">
  <defs
     id="defs6111" />
  <g
     transform="translate(-165.01509,-324.25607)"
     id="layer1">
    <path
       d="m 363.93251,496.66782 -197.83485,0.003 98.91742,-171.33218 98.91743,171.32791 z"
       id="path4693"
       style="fill:#ffffff;fill-opacity:1;fill-rule:nonzero;stroke:none" />
    <path
       d="m 363.93251,496.66782 -197.83485,0.003 98.91742,-171.33218 98.91743,171.32791 z"
       id="path4695"
       style="fill:none;stroke:#006bb6;stroke-width:2.16514015;stroke-linecap:butt;stroke-linejoin:miter;stroke-miterlimit:3.86400008;stroke-opacity:1;stroke-dasharray:none" />
    <path
       d="m 261.88481,408.69566 c 0.0308,-0.0512 0.11104,-0.14519 0.29894,-0.28629 0.81993,-0.62349 3.1986,-1.45197 3.2712,-1.47759 2.30606,-0.80713 3.5744,0.55516 4.65483,2.3445 1.04627,1.73382 2.35304,5.04772 2.45127,7.4093 0.0813,1.96016 -0.84983,2.61782 -2.31461,3.5616 -1.05481,0.679 -2.55803,0.29893 -2.57511,0.29483 -0.20088,-0.0642 -1.49894,-0.48257 -3.31817,-1.33666 -0.75161,-0.35018 -0.9267,-0.74734 -0.98221,-0.94805 -0.0342,-0.12402 -0.0342,-0.27776 -0.0308,-0.35018 l 0.0383,-0.22651 c 0,0 0.10659,-1.69112 0.10659,-2.46835 0,-0.96513 -0.59787,-3.40358 -1.25979,-5.0648 -0.329,-0.82421 -0.35445,-1.28115 -0.34164,-1.45197 m 26.46424,-5.69684 -0.10659,-0.50818 c -0.0813,-0.67901 -0.94378,-7.98156 -0.84983,-9.39936 0.1066,-1.58862 0.23471,-10.12961 -0.4911,-12.93959 -0.3331,-1.28969 -1.10606,-2.63063 -2.5623,-2.19931 -0.46121,0.13666 -0.79004,0.43986 -0.95232,0.61068 -0.13665,0.14076 -0.23915,0.27331 -0.28629,0.34164 -0.35872,0.45267 -4.93669,6.23919 -6.49115,8.20362 -1.05054,1.33666 -1.16158,2.8655 -1.05054,3.96302 0.0557,0.55516 0.16672,1.03346 0.26921,1.37082 0.0728,0.24769 0.14075,0.42705 0.17526,0.51673 l 4.75306,15.9204 c 0.54662,1.57581 0.68755,3.63846 0.70036,3.90323 0.10249,5.56019 -0.87972,11.51752 -0.94805,11.92749 -0.35872,1.85766 -0.35872,3.24985 0.41424,3.99291 0.46975,0.45267 1.02919,0.48257 1.3751,0.43132 0.12367,-0.0171 0.2306,-0.0512 0.32455,-0.0813 0.44413,-0.0642 0.79859,-0.28185 1.042,-0.47829 0.30338,-0.23915 0.54663,-0.52955 0.73026,-0.77296 0.17936,-0.24769 0.3331,-0.49538 0.43559,-0.67901 l 0.11103,-0.20499 c 0.1452,-0.17492 0.25623,-0.23914 0.31602,-0.26477 0.0642,-0.0307 0.11957,-0.0342 0.17526,-0.0307 0.0598,0.007 0.19234,0.0642 0.23915,0.0899 1.03773,0.60214 2.59219,1.18292 3.77084,1.56727 1.20855,0.39288 2.29753,0.67901 2.29753,0.67901 l 0.12811,0.003 c 1.79788,0.0598 3.22422,-0.29483 4.21071,-0.67901 0.50392,-0.19234 0.88826,-0.39288 1.14876,-0.54235 0.24359,-0.13665 0.38862,-0.24325 0.43986,-0.27741 0,0 0.87972,-0.6363 1.99859,-1.50748 1.10606,-0.86264 2.48116,-1.98578 3.4591,-2.968 0.48257,-0.47829 0.86264,-0.84555 1.16585,-1.18292 0.33309,-0.37154 0.62349,-0.75588 0.84555,-1.23417 0.42705,-0.9267 0.521,-2.04984 0.57652,-3.76658 0.11103,-3.58294 -0.53808,-9.13885 -1.80642,-12.16663 -1.42634,-3.39505 -4.25341,-4.36872 -7.43066,-4.36872 -2.71603,0 -6.35022,1.66549 -8.12674,2.72885 m 30.65787,26.29769 -45.04517,0 c 2.08401,-0.47402 3.83064,-1.66122 4.85128,-4.10394 1.26834,-3.02778 1.91746,-8.58796 1.81069,-12.16664 -0.0557,-1.71673 -0.14963,-2.8356 -0.57651,-3.76657 -0.22207,-0.4783 -0.51673,-0.86264 -0.84983,-1.23417 -0.29894,-0.3372 -0.67901,-0.70463 -1.16158,-1.18293 -0.97794,-0.98221 -2.35731,-2.10535 -3.45909,-2.96799 -1.02492,-0.79858 -1.84913,-1.39645 -1.98151,-1.49468 0,0 -0.15374,-0.11957 -0.45695,-0.29039 -0.26033,-0.1493 -0.64484,-0.35018 -1.14876,-0.54235 -0.99075,-0.38435 -2.4171,-0.7388 -4.21498,-0.67901 l -0.12367,0.003 c 0,0 -1.08897,0.28629 -2.29752,0.67901 -1.17866,0.38434 -2.80145,1.00356 -3.83918,1.6057 -0.0512,0.0239 -0.11103,0.0468 -0.17492,0.0512 -0.0512,0.003 -0.10659,0 -0.17082,-0.0307 -0.0598,-0.0239 -0.17492,-0.0895 -0.32011,-0.26477 l -0.10659,-0.20499 c -0.1066,-0.18346 -0.25623,-0.43132 -0.43986,-0.679 -0.17937,-0.24359 -0.42278,-0.53382 -0.72599,-0.77296 -0.24325,-0.19645 -0.60214,-0.41424 -1.04627,-0.4783 -0.0899,-0.0342 -0.20088,-0.0642 -0.32012,-0.0813 -0.35018,-0.0512 -0.90534,-0.0205 -1.37509,0.43132 -0.76869,0.7388 -0.77296,2.12244 -0.41851,3.97156 0,0 1.05481,6.16232 0.95232,11.91895 0,0 -0.11514,2.24628 -0.70036,3.93312 l -2.49397,8.34454 -7.90895,0 c 0.0984,-1.6356 0.14075,-2.97226 0.094,-3.7196 -0.21797,-3.2413 -0.43132,-13.46486 -0.43132,-13.46486 l -0.0513,-0.54662 6.58083,0 c 0,0 0.55516,-0.0557 1.16157,-0.17082 0.50392,-0.094 1.25126,-0.26067 1.81923,-0.5509 0.24769,-0.0769 0.55944,-0.2265 0.78578,-0.51246 0.59359,-0.75587 0.25622,-1.66122 -0.1493,-2.30606 l -3.25412,-5.75236 c 0,0 -0.0728,-0.12367 -0.19234,-0.26921 -0.0984,-0.12367 -0.24769,-0.28185 -0.43986,-0.44413 -0.38007,-0.32456 -0.9993,-0.69609 -1.83204,-0.69609 -0.95232,0 -2.05838,0.31192 -4.4285,0.38861 -0.003,-0.12811 0.0137,-0.33309 0.0813,-0.64484 0.54235,-2.4171 2.31033,-9.12177 5.59007,-13.11468 0.0895,-0.0895 0.21353,-0.20055 0.37154,-0.28596 0.25178,-0.13665 0.69181,-0.28185 1.43061,0.12368 2.18222,1.18292 5.94453,3.21141 5.94453,3.21141 0,0 -0.11104,-2.82707 -0.27741,-4.11249 -0.16672,-1.28114 -0.46976,-2.96799 -0.9993,-4.60359 -1.01211,-3.10892 -3.23703,-7.01215 -7.76376,-5.88901 -4.11675,1.02065 -6.8456,5.67549 -8.49828,9.54455 -1.71247,4.00573 -2.55375,7.9602 -2.55375,7.9602 l 0.0171,0.17082 c 0.0642,0.67047 0.45267,6.99934 -0.85837,7.55451 -0.71317,0.30303 -1.11887,0.13665 -1.47759,-0.12812 -0.11513,-0.0854 -0.21762,-0.17492 -0.31602,-0.26477 -0.11957,-0.11103 -0.22616,-0.22207 -0.32865,-0.32012 -0.13222,-0.13665 -0.25623,-0.25623 -0.37154,-0.35018 -0.12811,-0.10659 -0.34164,-0.26921 -0.62349,-0.36299 l -0.67474,-0.22651 -6.92247,7.38796 c 0,0 -0.13665,0.16638 -0.25623,0.36726 -0.10249,0.17082 -0.26032,0.46121 -0.34163,0.79858 -0.27332,1.14022 0.48256,2.07119 1.87474,2.07119 l 7.17016,0 0.11957,-0.0239 c 0.51246,-0.11514 0.75161,-0.0728 0.6235,0.68755 -0.40143,2.32741 -3.17298,12.39297 -3.51889,13.64422 -0.0472,0.0854 -0.10249,0.20498 -0.16228,0.35872 -0.12367,0.30338 -0.25623,0.73026 -0.34591,1.27688 -0.12811,0.8242 -0.15374,1.8961 0.10659,3.21568 l -20.9425,0 53.99185,-93.51526 53.99184,93.51526 z m -28.45857,-6.3972 c -0.0769,-0.0239 -2.45126,-0.85409 -3.2712,-1.47759 -0.1879,-0.14075 -0.30747,-0.34591 -0.34164,-0.39715 -0.0137,-0.17082 0.0512,-0.51673 0.38008,-1.34094 0.66619,-1.66122 1.26406,-4.10394 1.26406,-5.0648 0,-0.77723 -0.11103,-2.46835 -0.14929,-2.73312 -0.003,-0.0769 -0.003,-0.1879 0.0307,-0.31191 0.0554,-0.20089 0.23061,-0.59787 0.98222,-0.95232 1.81923,-0.84983 3.12173,-1.26834 3.31817,-1.3324 0.0171,-0.003 1.52457,-0.38434 2.57511,0.29449 1.46905,0.94378 2.39574,1.60144 2.3146,3.5616 -0.0984,2.36158 -1.40499,5.67548 -2.45126,7.4093 -1.07616,1.78934 -2.34877,3.15163 -4.65057,2.3445 m -21.27132,6.3972 -6.35022,0 c 0.11103,-1.00357 0.20088,-1.75944 0.22616,-1.95589 l 0.10659,-0.50818 c 1.34094,0.80712 3.7495,1.95161 6.01713,2.46407"
       id="path4697"
       style="fill:#006bb6;fill-opacity:1;fill-rule:nonzero;stroke:none" />
    <path
       d="m 286.60243,422.30999 c -0.99503,-0.7516 -0.96513,-1.42207 -0.32012,-3.03632 0.64485,-1.61424 1.18293,-3.90323 1.18293,-4.65483 0,-0.75588 -0.10659,-2.39575 -0.10659,-2.39575 0,0 -0.45695,-1.63987 1.61424,-2.60927 2.07119,-0.9694 3.49754,-1.39645 3.49754,-1.39645 0,0 1.96015,-0.53809 3.46764,0.42705 1.50748,0.9694 2.93383,1.9388 2.82279,4.54807 -0.10659,2.60927 -1.50321,6.10681 -2.605,7.93458 -1.10606,1.83204 -2.82706,3.92885 -5.97442,2.82706 0,0 -2.58365,-0.88826 -3.57867,-1.64414 m -9.54882,-29.72263 4.7616,15.95029 c 0.64484,1.85767 0.75587,4.22352 0.75587,4.22352 0.10659,5.86339 -0.9694,12.1581 -0.9694,12.1581 -0.75588,3.90323 0.75161,3.04059 0.75161,3.04059 0.86264,0 1.63987,-1.63987 1.63987,-1.63987 1.07616,-1.42635 2.28898,-0.53809 2.28898,-0.53809 1.8534,1.07617 5.61997,2.07119 5.61997,2.07119 3.25412,0.1066 5.11178,-1.28968 5.11178,-1.28968 0,0 3.46764,-2.50251 5.32531,-4.36018 1.85766,-1.85339 2.15232,-1.93453 2.25909,-5.43207 0.11103,-3.49753 -0.53809,-8.87835 -1.72101,-11.70115 -1.18293,-2.82706 -3.46764,-3.68543 -6.40147,-3.68543 -2.93383,0 -7.28973,2.25909 -8.25913,3.04059 -0.96514,0.77723 -0.75161,-0.24325 -0.75161,-0.24325 l -0.32456,-1.50748 c 0,0 -0.96513,-8.04134 -0.85837,-9.65559 0.10659,-1.61424 0.21353,-9.98014 -0.45694,-12.58941 -0.67474,-2.60927 -1.83204,-0.85837 -1.83204,-0.85837 0,0 -4.89399,6.18367 -6.50823,8.22924 -1.61425,2.04557 -0.43132,4.78722 -0.43132,4.78722"
       id="path4699"
       style="fill:#000000;fill-opacity:1;fill-rule:nonzero;stroke:none" />
    <path
       d="m 257.15738,388.63716 c 0,0 -0.53808,-13.36665 -7.5844,-11.62002 -7.05058,1.74664 -10.19794,16.48838 -10.19794,16.48838 0,0 0.75588,7.72105 -1.5331,8.68618 -2.28472,0.9694 -3.25412,-1.18293 -3.89896,-1.39645 l -6.40147,6.83279 c 0,0 -1.10179,1.39645 0.43132,1.39645 l 7.04631,0 c 0,0 2.39148,-0.53808 1.96443,1.96443 -0.43132,2.50251 -3.57867,13.8791 -3.57867,13.8791 0,0 -1.18293,1.85766 0,5.5431 1.18292,3.68543 5.53883,15.27982 6.93955,16.81293 1.40072,1.53311 2.39574,1.72101 2.39574,-0.43132 0,-2.15233 1.72101,-17.88909 1.50322,-21.14321 -0.21353,-3.25412 -0.42705,-13.47768 -0.42705,-13.47768 l -0.11104,-1.18292 c 0,0 -0.34591,-0.53809 0.64485,-0.53809 l 7.05058,0 c 0,0 1.82777,-0.1879 2.60927,-0.64484 0,0 0.85837,-0.0239 0.1066,-1.20855 l -3.25412,-5.75662 c 0,0 -0.53808,-0.86264 -1.50748,-0.86264 -0.96941,0 -2.09682,0.32455 -4.35591,0.32455 0,0 -1.61424,0.45695 -1.07616,-1.9388 0.53808,-2.39148 2.17795,-9.14313 5.64986,-13.36664 0,0 1.18293,-1.83204 3.36088,-0.64485 2.17795,1.18293 4.22352,2.28472 4.22352,2.28472"
       id="path4701"
       style="fill:#e03a3e;fill-opacity:1;fill-rule:nonzero;stroke:none" />
    <path
       d="m 261.51328,407.52128 c -0.99502,0.7516 -0.9694,1.42634 -0.32012,3.03632 0.64485,1.61424 1.18293,3.90323 1.18293,4.65483 0,0.75588 -0.10659,2.39575 -0.10659,2.39575 0,0 -0.45694,1.63987 1.60998,2.60927 2.07118,0.9694 3.49753,1.39645 3.49753,1.39645 0,0 1.96443,0.53809 3.47191,-0.42705 1.50748,-0.9694 2.92956,-1.9388 2.8228,-4.54807 -0.1066,-2.60927 -1.50749,-6.10681 -2.60928,-7.93458 -1.10178,-1.82777 -2.82279,-3.92885 -5.97014,-2.82279 0,0 -2.58365,0.88399 -3.57868,1.63987 m -9.54882,29.72263 4.7616,-15.95029 c 0.64484,-1.85767 0.75161,-4.22352 0.75161,-4.22352 0.11103,-5.86339 -0.96513,-12.15809 -0.96513,-12.15809 -0.75588,-3.90324 0.7516,-3.0406 0.7516,-3.0406 0.86264,0 1.63987,1.63987 1.63987,1.63987 1.07617,1.42635 2.28899,0.53809 2.28899,0.53809 1.85339,-1.07617 5.61996,-2.07119 5.61996,-2.07119 3.25412,-0.10659 5.11178,1.29396 5.11178,1.29396 0,0 3.46764,2.49823 5.32531,4.3559 1.85339,1.85766 2.15233,1.93453 2.25909,5.43207 0.10659,3.49753 -0.53808,8.87835 -1.72101,11.70115 -1.18293,2.82706 -3.47191,3.68543 -6.40147,3.68543 -2.93383,0 -7.28973,-2.25909 -8.25913,-3.04059 -0.9694,-0.77723 -0.75161,0.24359 -0.75161,0.24359 l -0.32456,1.50748 c 0,0 -0.9694,8.04134 -0.85836,9.65559 0.10659,1.61425 0.21352,9.98014 -0.46122,12.58941 -0.67047,2.60927 -1.82777,0.85837 -1.82777,0.85837 0,0 -4.89398,-6.18367 -6.50823,-8.22924 -1.61425,-2.04556 -0.43132,-4.78722 -0.43132,-4.78722"
       id="path4703"
       style="fill:#ffe11a;fill-opacity:1;fill-rule:nonzero;stroke:none" />
    <path
       d="m 250.75591,465.23272 0,20.26349 6.74311,0 0,-25.99449 -10.44136,0 0,5.731 3.69825,0 z"
       id="path4705"
       style="fill:#006bb6;fill-opacity:1;fill-rule:nonzero;stroke:none" />
    <path
       d="m 275.37957,459.50172 -5.76943,7.63991 c -2.41283,3.19433 -3.93313,6.93528 -3.93313,9.77943 0,5.731 4.40288,9.62569 10.87268,9.62569 6.5851,0 11.14598,-4.01426 11.14598,-9.82213 0,-5.25698 -3.58721,-9.19438 -8.3787,-9.19438 -1.24699,0 -2.10536,0.19645 -3.62565,0.81994 l 7.3666,-8.84846 -7.67835,0 z m 1.17012,13.13176 c 2.33596,0 4.24487,1.91318 4.24487,4.28758 0,2.37866 -1.90891,4.28757 -4.24487,4.28757 -2.37867,0 -4.28758,-1.90891 -4.28758,-4.28757 0,-2.3744 1.90891,-4.28758 4.28758,-4.28758"
       id="path4707"
       style="fill:#006bb6;fill-opacity:1;fill-rule:nonzero;stroke:none" />
  </g>
</svg>
