<?xml version="1.0" encoding="UTF-8" standalone="no"?>
<!-- Created with Inkscape (http://www.inkscape.org/) -->

<svg
   xmlns:svg="http://www.w3.org/2000/svg"
   xmlns="http://www.w3.org/2000/svg"
   version="1.1"
   width="200"
   height="173.49361"
   id="svg6162">
  <defs
     id="defs6164" />
  <g
     transform="translate(-382.15732,-447.11692)"
     id="layer1">
    <path
       d="m 581.07478,619.52499 -197.83491,0.003 98.91959,-171.32852 98.91532,171.32425 z"
       id="path4709"
       style="fill:#ffffff;fill-opacity:1;fill-rule:nonzero;stroke:none" />
    <path
       d="m 581.07478,619.52499 -197.83491,0.003 98.91959,-171.32852 98.91532,171.32425 z"
       id="path4711"
       style="fill:none;stroke:#006bb6;stroke-width:2.1650939;stroke-linecap:butt;stroke-linejoin:miter;stroke-miterlimit:3.86400008;stroke-opacity:1;stroke-dasharray:none" />
    <path
       d="m 479.02499,531.55471 c 0.0342,-0.0512 0.11513,-0.14519 0.30336,-0.28628 0.81992,-0.62348 3.19427,-1.45194 3.27113,-1.47756 2.30602,-0.80711 3.57433,0.55515 4.65047,2.34445 1.04625,1.73378 2.35299,5.04761 2.45121,7.40914 0.0813,1.96012 -0.84554,2.61776 -2.31456,3.56152 -1.05052,0.67899 -2.55797,0.29893 -2.57078,0.29449 -0.20088,-0.0639 -1.49891,-0.48256 -3.32237,-1.33664 -0.75159,-0.35017 -0.92241,-0.74732 -0.97792,-0.94803 -0.0342,-0.12367 -0.0386,-0.2774 -0.0342,-0.35017 l 0.0386,-0.22616 c 0,0 0.11103,-1.69108 0.11103,-2.46829 0,-0.96511 -0.59786,-3.40351 -1.26404,-5.0647 -0.32865,-0.82419 -0.35444,-1.28112 -0.34163,-1.45194 m 26.46795,-5.69671 -0.11103,-0.50818 c -0.0813,-0.67899 -0.94376,-7.98138 -0.84554,-9.39916 0.10249,-1.58858 0.2306,-10.12939 -0.4911,-12.93931 -0.33309,-1.28966 -1.1103,-2.63057 -2.56224,-2.19926 -0.4612,0.13665 -0.79002,0.43985 -0.95657,0.61067 -0.13665,0.14075 -0.23504,0.2733 -0.28629,0.34163 -0.35444,0.45266 -4.93658,6.23906 -6.48674,8.20344 -1.05052,1.33664 -1.16582,2.86544 -1.05479,3.96293 0.0553,0.55516 0.17082,1.03344 0.26887,1.3708 0.0769,0.24769 0.14109,0.42704 0.17935,0.51672 l 4.75296,15.92006 c 0.54661,1.57578 0.68327,3.63838 0.70035,3.90315 0.0984,5.56006 -0.87971,11.51727 -0.9523,11.92723 -0.35872,1.85762 -0.35445,3.24978 0.4185,3.99283 0.46547,0.45266 1.02489,0.48255 1.37507,0.43131 0.11957,-0.0171 0.2306,-0.0513 0.32011,-0.081 0.44412,-0.0642 0.80283,-0.28185 1.04624,-0.47829 0.29893,-0.23914 0.54662,-0.52953 0.72597,-0.77294 0.18346,-0.24768 0.33309,-0.49536 0.43558,-0.67899 l 0.11103,-0.20498 c 0.1452,-0.17526 0.26067,-0.23914 0.32011,-0.26477 0.0642,-0.0307 0.11957,-0.0342 0.17082,-0.0307 0.0642,0.0103 0.192,0.0642 0.24358,0.0899 1.03771,0.60212 2.59214,1.1829 3.77077,1.56723 1.20425,0.39288 2.29747,0.679 2.29747,0.679 l 0.12367,0.003 c 1.79784,0.0598 3.22416,-0.29482 4.21489,-0.67899 0.50391,-0.192 0.88825,-0.39288 1.14874,-0.54234 0.23914,-0.13665 0.38861,-0.24324 0.43558,-0.27741 0,0 0.88397,-0.63629 2.00282,-1.50745 1.10176,-0.86262 2.4811,-1.98574 3.45902,-2.96793 0.48256,-0.47828 0.85836,-0.84554 1.16155,-1.1829 0.3331,-0.37152 0.62348,-0.75586 0.84554,-1.23415 0.43131,-0.92667 0.52526,-2.04979 0.58078,-3.76649 0.10659,-3.58287 -0.54234,-9.13866 -1.81065,-12.16637 -1.42205,-3.39497 -4.24905,-4.36863 -7.42623,-4.36863 -2.72025,0 -6.35009,1.66546 -8.12658,2.72879 m 30.65722,26.29714 -45.0442,0 c 2.07969,-0.47402 3.82628,-1.66119 4.85118,-4.10386 1.26831,-3.02772 1.91741,-8.58778 1.80638,-12.16638 -0.0512,-1.7167 -0.1452,-2.83554 -0.57651,-3.76649 -0.22206,-0.47828 -0.51245,-0.86262 -0.84554,-1.23415 -0.30337,-0.33719 -0.68326,-0.70461 -1.16155,-1.1829 -0.97792,-0.98219 -2.35726,-2.10531 -3.46329,-2.96793 -1.02063,-0.79856 -1.84909,-1.39642 -1.98147,-1.49464 0,0 -0.15373,-0.11957 -0.45266,-0.29038 -0.26067,-0.14964 -0.64483,-0.35018 -1.14874,-0.54235 -0.99073,-0.38433 -2.41705,-0.73877 -4.21489,-0.67899 l -0.12367,0.003 c 0,0 -1.09322,0.28628 -2.30174,0.67899 -1.17436,0.38434 -2.80139,1.00355 -3.83482,1.60567 -0.0513,0.0239 -0.11513,0.0468 -0.17492,0.0512 -0.0512,0.003 -0.10659,0 -0.17492,-0.0308 -0.0557,-0.0273 -0.17081,-0.0898 -0.31601,-0.26476 l -0.11103,-0.20498 c -0.10249,-0.18346 -0.25212,-0.43131 -0.43558,-0.679 -0.18379,-0.24324 -0.42704,-0.5338 -0.73024,-0.77294 -0.24358,-0.19644 -0.59785,-0.41423 -1.04197,-0.47829 -0.0899,-0.0342 -0.20088,-0.0642 -0.32455,-0.0813 -0.34591,-0.0512 -0.90533,-0.0205 -1.37507,0.43131 -0.76868,0.73878 -0.77295,2.12239 -0.4185,3.97147 0,0 1.05479,6.16219 0.95657,11.91869 0,0 -0.11513,2.24623 -0.70035,3.93304 l -2.49391,8.34437 -7.91306,0 c 0.0984,-1.63557 0.1452,-2.9722 0.094,-3.71952 -0.21352,-3.24124 -0.43131,-13.46458 -0.43131,-13.46458 l -0.0471,-0.54661 6.58068,0 c 0,0 0.55516,-0.0554 1.16155,-0.17082 0.50391,-0.0939 1.25123,-0.26032 1.81492,-0.55088 0.24769,-0.0769 0.5637,-0.22616 0.78576,-0.51245 0.59358,-0.75586 0.25622,-1.66118 -0.14929,-2.30601 l -3.25405,-5.75224 c 0,0 -0.0683,-0.12367 -0.1879,-0.2692 -0.10249,-0.12367 -0.24768,-0.28185 -0.43985,-0.44412 -0.38007,-0.32455 -1.00354,-0.69608 -1.832,-0.69608 -0.9523,0 -2.05834,0.31157 -4.43268,0.38861 0,-0.12811 0.0137,-0.33309 0.0854,-0.64483 0.54234,-2.41705 2.31029,-9.12158 5.58995,-13.11441 0.0854,-0.0899 0.21352,-0.20054 0.36726,-0.28629 0.25622,-0.13665 0.69607,-0.28184 1.43485,0.12368 2.17791,1.1829 5.9444,3.21134 5.9444,3.21134 0,0 -0.11103,-2.82701 -0.28184,-4.1124 -0.16638,-1.28112 -0.46975,-2.96793 -0.99928,-4.60349 -1.01208,-3.10886 -3.23269,-7.012 -7.76359,-5.88889 -4.11239,1.02063 -6.84118,5.67537 -8.49383,9.54435 -1.71243,4.00564 -2.55797,7.96003 -2.55797,7.96003 l 0.0171,0.17082 c 0.0683,0.67045 0.45267,6.99919 -0.85835,7.55434 -0.71315,0.30337 -1.11457,0.13665 -1.47329,-0.12811 -0.11513,-0.0854 -0.22206,-0.17492 -0.3201,-0.26477 -0.11513,-0.11103 -0.22617,-0.22206 -0.32456,-0.32011 -0.13665,-0.13665 -0.26066,-0.25622 -0.37579,-0.35017 -0.12367,-0.10659 -0.33719,-0.26921 -0.61921,-0.36299 l -0.67899,-0.22616 -6.91805,7.3878 c 0,0 -0.13666,0.16637 -0.25623,0.36725 -0.10659,0.17082 -0.26066,0.46121 -0.34163,0.79857 -0.27331,1.1402 0.48256,2.07114 1.87044,2.07114 l 7.17,0 0.12401,-0.0273 c 0.51245,-0.11513 0.75159,-0.0728 0.61921,0.68754 -0.39715,2.32737 -3.16864,12.3927 -3.51881,13.64393 -0.0427,0.0854 -0.0984,0.20498 -0.16228,0.35872 -0.11957,0.30336 -0.25212,0.73023 -0.34163,1.27685 -0.13221,0.82418 -0.15373,1.89605 0.10659,3.21561 l -20.94632,0 53.99496,-93.51326 53.99069,93.51326 z m -28.46223,-6.39707 c -0.0728,-0.0239 -2.45121,-0.85408 -3.27113,-1.47756 -0.18789,-0.14109 -0.30337,-0.3459 -0.33719,-0.39714 -0.0137,-0.17082 0.0468,-0.51672 0.3758,-1.34091 0.66618,-1.66119 1.26404,-4.10385 1.26404,-5.0647 0,-0.77721 -0.11103,-2.46829 -0.1493,-2.73305 -0.003,-0.0769 0,-0.1879 0.0342,-0.31157 0.0557,-0.20088 0.2306,-0.59786 0.98219,-0.9523 1.81919,-0.84981 3.11739,-1.26831 3.3181,-1.33237 0.0137,-0.003 1.52026,-0.38433 2.57505,0.29483 1.46475,0.94376 2.39143,1.6014 2.31456,3.56152 -0.0984,2.36153 -1.40496,5.67536 -2.45121,7.40914 -1.08041,1.7893 -2.34872,3.15156 -4.65474,2.34446 m -21.2666,6.39706 -6.35009,0 c 0.11103,-1.00355 0.20088,-1.75941 0.22206,-1.95585 l 0.11104,-0.50817 c 1.3409,0.8071 3.74514,1.95157 6.01699,2.46402"
       id="path4713"
       style="fill:#006bb6;fill-opacity:1;fill-rule:nonzero;stroke:none" />
    <path
       d="m 503.74634,545.16875 c -0.995,-0.75159 -0.96938,-1.42204 -0.32455,-3.03625 0.6491,-1.61421 1.18717,-3.90315 1.18717,-4.65474 0,-0.75586 -0.11103,-2.39569 -0.11103,-2.39569 0,0 -0.45693,-1.63984 1.61421,-2.60922 2.07115,-0.96938 3.49746,-1.39642 3.49746,-1.39642 0,0 1.96439,-0.53807 3.47184,0.42704 1.50745,0.96938 2.9295,1.93876 2.82274,4.54798 -0.10659,2.60921 -1.50746,6.10667 -2.60922,7.9344 -1.10176,1.83201 -2.82274,3.92877 -5.97002,2.82701 0,0 -2.58359,-0.88824 -3.5786,-1.64411 m -9.54862,-29.72199 4.7615,15.94995 c 0.64483,1.85762 0.75159,4.22343 0.75159,4.22343 0.11103,5.86326 -0.96938,12.15783 -0.96938,12.15783 -0.75159,3.90315 0.75586,3.04053 0.75586,3.04053 0.85835,0 1.63984,-1.63984 1.63984,-1.63984 1.07614,-1.42631 2.28466,-0.53807 2.28466,-0.53807 1.85763,1.07614 5.62412,2.07115 5.62412,2.07115 3.25405,0.10659 5.11167,-1.28966 5.11167,-1.28966 0,0 3.46757,-2.50246 5.32519,-4.36009 1.85336,-1.85335 2.15228,-1.93449 2.25904,-5.43195 0.10659,-3.49746 -0.53807,-8.87816 -1.72097,-11.7009 -1.1829,-2.827 -3.47183,-3.68535 -6.40133,-3.68535 -2.93377,0 -7.28958,2.25904 -8.25896,3.04052 -0.96938,0.77722 -0.75159,-0.24358 -0.75159,-0.24358 l -0.32455,-1.50745 c 0,0 -0.96938,-8.04117 -0.86262,-9.65538 0.11103,-1.61421 0.21796,-9.97993 -0.45693,-12.58915 -0.67046,-2.60921 -1.82773,-0.85835 -1.82773,-0.85835 0,0 -4.89388,6.18354 -6.5081,8.22907 -1.61421,2.04552 -0.43131,4.78712 -0.43131,4.78712"
       id="path4715"
       style="fill:#000000;fill-opacity:1;fill-rule:nonzero;stroke:none" />
    <path
       d="m 474.29765,511.49664 c 0,0 -0.53807,-13.36636 -7.58423,-11.61977 -7.04617,1.7466 -10.19345,16.48802 -10.19345,16.48802 0,0 0.75159,7.72089 -1.53308,8.686 -2.28466,0.96938 -3.25404,-1.1829 -3.90314,-1.39642 l -6.40134,6.83264 c 0,0 -1.10176,1.39642 0.43131,1.39642 l 7.05044,0 c 0,0 2.39142,-0.53807 1.96011,1.96439 -0.43131,2.50246 -3.57859,13.87881 -3.57859,13.87881 0,0 -1.18291,1.85762 0,5.54298 1.18717,3.68535 5.54298,15.27949 6.94367,16.81257 1.39642,1.53307 2.39142,1.72097 2.39142,-0.43131 0,-2.15228 1.72098,-17.88871 1.50746,-21.14276 -0.21762,-3.25405 -0.43131,-13.47739 -0.43131,-13.47739 l -0.10659,-1.1829 c 0,0 -0.35018,-0.53807 0.64483,-0.53807 l 7.04616,0 c 0,0 1.832,-0.1879 2.60922,-0.64483 0,0 0.86262,-0.0239 0.11103,-1.20853 l -3.25832,-5.7565 c 0,0 -0.5338,-0.86262 -1.50318,-0.86262 -0.96938,0 -2.09677,0.32455 -4.36008,0.32455 0,0 -1.61421,0.45694 -1.07614,-1.93876 0.53807,-2.39143 2.18217,-9.14293 5.64974,-13.36636 0,0 1.1829,-1.832 3.3608,-0.64483 2.18218,1.1829 4.22343,2.28467 4.22343,2.28467"
       id="path4717"
       style="fill:#e03a3e;fill-opacity:1;fill-rule:nonzero;stroke:none" />
    <path
       d="m 478.65773,530.38035 c -0.995,0.75159 -0.96938,1.42632 -0.32455,3.03626 0.64483,1.61421 1.1829,3.90315 1.1829,4.65474 0,0.75586 -0.10659,2.39569 -0.10659,2.39569 0,0 -0.45693,1.63984 1.61421,2.60922 2.07115,0.96938 3.49746,1.39642 3.49746,1.39642 0,0 1.96439,0.53807 3.46757,-0.42704 1.50745,-0.96938 2.93377,-1.93876 2.82701,-4.54798 -0.10659,-2.60921 -1.50746,-6.10667 -2.60922,-7.93441 -1.10176,-1.82773 -2.82701,-3.92877 -5.97002,-2.82273 0,0 -2.58359,0.88397 -3.5786,1.63983 m -9.54862,29.722 4.7615,-15.94995 c 0.64483,-1.85763 0.75159,-4.22343 0.75159,-4.22343 0.10659,-5.86326 -0.96938,-12.15783 -0.96938,-12.15783 -0.75159,-3.90315 0.75586,-3.04053 0.75586,-3.04053 0.85835,0 1.63984,1.63984 1.63984,1.63984 1.07614,1.42631 2.28466,0.53807 2.28466,0.53807 1.85763,-1.07614 5.62412,-2.07115 5.62412,-2.07115 3.25405,-0.10659 5.1074,1.29393 5.1074,1.29393 0,0 3.47184,2.49819 5.32946,4.35581 1.85336,1.85763 2.14801,1.9345 2.25904,5.43195 0.10659,3.49746 -0.53807,8.87817 -1.72524,11.70091 -1.1829,2.827 -3.46756,3.68535 -6.40133,3.68535 -2.9295,0 -7.28958,-2.25904 -8.25469,-3.04052 -0.96938,-0.77722 -0.75586,0.24324 -0.75586,0.24324 l -0.32011,1.50745 c 0,0 -0.96938,8.04117 -0.86262,9.65538 0.10659,1.61421 0.21796,9.97993 -0.45693,12.58914 -0.67045,2.60922 -1.82773,0.85835 -1.82773,0.85835 0,0 -4.89815,-6.18354 -6.51237,-8.22906 -1.60994,-2.04552 -0.42704,-4.78712 -0.42704,-4.78712"
       id="path4719"
       style="fill:#ffe11a;fill-opacity:1;fill-rule:nonzero;stroke:none" />
    <path
       d="m 467.90059,588.09056 0,20.26306 6.74296,0 0,-25.99394 -10.4454,0 0,5.73088 3.70244,0 z"
       id="path4721"
       style="fill:#006bb6;fill-opacity:1;fill-rule:nonzero;stroke:none" />
    <path
       d="m 489.05616,594.67552 c -3.51027,1.32383 -5.14584,3.46757 -5.14584,6.66183 0,4.44549 4.21062,7.67818 9.97566,7.67818 5.61131,0 9.86036,-3.31383 9.86036,-7.67818 0,-3.11739 -1.7167,-5.26113 -5.30384,-6.66183 3.12167,-1.52026 4.24905,-3.00209 4.24905,-5.6113 0,-4.47966 -3.46756,-7.40488 -8.80557,-7.40488 -5.338,0 -8.92514,3.00209 -8.92514,7.36644 0,2.53235 1.4434,4.51809 4.09532,5.64974 m 4.79139,-8.49383 c 1.5587,0 2.84409,1.2854 2.84409,2.84409 0,1.59713 -1.28539,2.88252 -2.84409,2.88252 -1.59713,0 -2.88252,-1.28539 -2.88252,-2.88252 0,-1.55869 1.28539,-2.84409 2.88252,-2.84409 m 0,11.22262 c 1.71243,0 3.07896,1.40069 3.07896,3.11312 0,1.7167 -1.40496,3.12167 -3.07896,3.12167 -1.7167,0 -3.11739,-1.40497 -3.11739,-3.12167 0,-1.71243 1.40069,-3.11312 3.11739,-3.11312"
       id="path4723"
       style="fill:#006bb6;fill-opacity:1;fill-rule:nonzero;stroke:none" />
  </g>
</svg>
