<?xml version="1.0" encoding="UTF-8" standalone="no"?>
<!-- Created with Inkscape (http://www.inkscape.org/) -->

<svg
   xmlns:svg="http://www.w3.org/2000/svg"
   xmlns="http://www.w3.org/2000/svg"
   version="1.1"
   width="199.99998"
   height="173.49731"
   id="svg5843">
  <defs
     id="defs5845" />
  <g
     transform="translate(-230.72938,-138.54179)"
     id="layer1">
    <path
       d="m 429.6468,310.95354 -197.83485,0.003 98.91742,-171.33218 98.91743,171.32791 z"
       id="path4613"
       style="fill:#ffffff;fill-opacity:1;fill-rule:nonzero;stroke:none" />
    <path
       d="m 429.6468,310.95354 -197.83485,0.003 98.91742,-171.33218 98.91743,171.32791 z"
       id="path4615"
       style="fill:none;stroke:#006bb6;stroke-width:2.16514015;stroke-linecap:butt;stroke-linejoin:miter;stroke-miterlimit:3.86400008;stroke-opacity:1;stroke-dasharray:none" />
    <path
       d="m 327.5991,222.98138 c 0.0342,-0.0512 0.11104,-0.14519 0.30338,-0.28629 0.81566,-0.62349 3.19433,-1.45197 3.26693,-1.47759 2.30606,-0.80713 3.5744,0.55516 4.65483,2.3445 1.04627,1.73382 2.35305,5.04772 2.45127,7.4093 0.0813,1.96016 -0.84983,2.61782 -2.31461,3.5616 -1.05481,0.679 -2.55803,0.29893 -2.57511,0.29483 -0.20054,-0.0642 -1.49894,-0.48257 -3.31817,-1.33666 -0.75161,-0.35018 -0.9267,-0.74734 -0.98221,-0.94805 -0.0342,-0.12368 -0.0342,-0.27776 -0.0308,-0.35018 l 0.0386,-0.22617 c 0,0 0.1066,-1.69111 0.1066,-2.46834 0,-0.96514 -0.59787,-3.40359 -1.2598,-5.06481 -0.3331,-0.8242 -0.35445,-1.28115 -0.34164,-1.45197 m 26.46425,-5.69683 -0.1066,-0.50819 c -0.0813,-0.67901 -0.94377,-7.98155 -0.84982,-9.39936 0.10659,-1.58862 0.23504,-10.12961 -0.49111,-12.93959 -0.3331,-1.28969 -1.10606,-2.63063 -2.5623,-2.19931 -0.46121,0.13666 -0.79004,0.43986 -0.95232,0.61068 -0.14075,0.14076 -0.23914,0.27332 -0.28629,0.34164 -0.35445,0.45268 -4.93669,6.23919 -6.49115,8.20362 -1.05054,1.33667 -1.16157,2.8655 -1.05481,3.96302 0.0598,0.55516 0.17082,1.03346 0.27331,1.37083 0.0728,0.24769 0.14076,0.42705 0.17492,0.51673 l 4.75306,15.92039 c 0.54662,1.57582 0.68755,3.63846 0.70036,3.90323 0.10249,5.56019 -0.87972,11.51752 -0.94805,11.92749 -0.35872,1.85767 -0.35872,3.24985 0.41424,3.99291 0.46975,0.45268 1.02919,0.48257 1.3751,0.43132 0.12367,-0.0171 0.2306,-0.0512 0.32455,-0.0813 0.44413,-0.0642 0.79859,-0.28185 1.042,-0.47829 0.30338,-0.23915 0.54663,-0.52954 0.73026,-0.77296 0.17936,-0.24769 0.3331,-0.49538 0.43559,-0.67901 l 0.10659,-0.20498 c 0.1493,-0.17527 0.26067,-0.23915 0.32012,-0.26477 0.0642,-0.0307 0.11957,-0.0342 0.17492,-0.0307 0.0598,0.007 0.19234,0.0642 0.23914,0.0898 1.03773,0.60214 2.59219,1.18293 3.77085,1.56727 1.20855,0.39289 2.29752,0.67901 2.29752,0.67901 l 0.12368,0.003 c 1.79787,0.0598 3.22849,-0.29483 4.21497,-0.679 0.50392,-0.192 0.88827,-0.39289 1.14877,-0.54236 0.24324,-0.13665 0.38861,-0.24359 0.43559,-0.27775 0,0 0.88399,-0.6363 2.00286,-1.50748 1.10606,-0.86264 2.48115,-1.98578 3.4591,-2.968 0.48256,-0.47829 0.86264,-0.84555 1.16157,-1.18292 0.3372,-0.37154 0.62776,-0.75588 0.84983,-1.23417 0.42705,-0.9267 0.521,-2.04984 0.57652,-3.76658 0.11103,-3.58294 -0.53809,-9.13885 -1.80642,-12.16663 -1.42635,-3.39505 -4.25341,-4.36872 -7.43066,-4.36872 -2.71603,0 -6.35022,1.66549 -8.12675,2.72885 m 30.65787,26.29769 -45.04516,0 c 2.084,-0.47402 3.83063,-1.66122 4.85128,-4.10394 1.26834,-3.02778 1.91745,-8.58796 1.81069,-12.16664 -0.0557,-1.71673 -0.1493,-2.8356 -0.58079,-3.76657 -0.22206,-0.4783 -0.50819,-0.86264 -0.84556,-1.23417 -0.29893,-0.3372 -0.679,-0.70463 -1.16157,-1.18293 -0.97794,-0.98221 -2.35731,-2.10535 -3.4591,-2.96799 -1.02492,-0.79858 -1.84912,-1.39645 -1.98151,-1.49468 0,0 -0.15374,-0.11957 -0.45694,-0.29039 -0.26067,-0.1493 -0.64484,-0.35018 -1.14876,-0.54235 -0.99076,-0.38435 -2.4171,-0.7388 -4.21498,-0.67901 l -0.12367,0.003 c 0,0 -1.08898,0.28629 -2.29753,0.67901 -1.17865,0.38434 -2.80144,1.00356 -3.83917,1.6057 -0.0512,0.0239 -0.11103,0.0472 -0.17492,0.0513 -0.0512,0.003 -0.10659,0 -0.17082,-0.0308 -0.0598,-0.0239 -0.17492,-0.0898 -0.32012,-0.26477 l -0.10659,-0.20499 c -0.10659,-0.1838 -0.25623,-0.43132 -0.43986,-0.679 -0.17936,-0.24359 -0.42705,-0.53382 -0.72598,-0.77296 -0.24359,-0.19645 -0.60214,-0.41424 -1.04627,-0.4783 -0.0899,-0.0342 -0.20089,-0.0642 -0.32012,-0.0813 -0.35018,-0.0512 -0.90534,-0.0205 -1.3751,0.43132 -0.76869,0.7388 -0.77296,2.12244 -0.41851,3.97156 0,0 1.05482,6.16232 0.95232,11.91895 0,0 -0.11513,2.24628 -0.70036,3.93312 l -2.49397,8.34454 -7.91322,0 c 0.10249,-1.6356 0.1452,-2.97226 0.0984,-3.7196 -0.21762,-3.2413 -0.43132,-13.46486 -0.43132,-13.46486 l -0.0512,-0.54662 6.58083,0 c 0,0 0.55516,-0.0557 1.16157,-0.17082 0.50392,-0.094 1.25553,-0.26033 1.81923,-0.5509 0.24769,-0.0769 0.55944,-0.22616 0.78577,-0.51246 0.5936,-0.75587 0.25623,-1.66122 -0.14929,-2.30606 l -3.25412,-5.75236 c 0,0 -0.0724,-0.12367 -0.192,-0.26921 -0.0984,-0.12367 -0.24359,-0.28185 -0.43986,-0.44413 -0.38008,-0.32456 -0.9993,-0.69609 -1.83204,-0.69609 -0.95232,0 -2.05838,0.31192 -4.42851,0.38861 -0.003,-0.12811 0.0137,-0.33309 0.0813,-0.64484 0.54662,-2.4171 2.31033,-9.12177 5.59007,-13.11468 0.0854,-0.0899 0.21353,-0.20055 0.37153,-0.2863 0.25179,-0.13665 0.69182,-0.28185 1.43489,0.12368 2.17795,1.18292 5.94025,3.21141 5.94025,3.21141 0,0 -0.11103,-2.82707 -0.27775,-4.11249 -0.17082,-1.28115 -0.46975,-2.96799 -1.00356,-4.60359 -1.00784,-3.10892 -3.23277,-7.01215 -7.75949,-5.88901 -4.11675,1.02065 -6.8456,5.67549 -8.49828,9.54455 -1.71247,4.00572 -2.55376,7.9602 -2.55376,7.9602 l 0.0171,0.17082 c 0.0642,0.67047 0.45267,6.99934 -0.85837,7.5545 -0.71318,0.30338 -1.11887,0.13666 -1.47759,-0.12811 -0.11514,-0.0854 -0.21763,-0.17492 -0.31602,-0.26477 -0.11957,-0.11103 -0.22617,-0.22207 -0.32866,-0.32012 -0.13221,-0.13665 -0.25623,-0.25623 -0.37153,-0.35018 -0.12811,-0.10659 -0.34164,-0.26921 -0.62349,-0.36299 l -0.67474,-0.22617 -6.92247,7.38796 c 0,0 -0.13665,0.16672 -0.25623,0.36726 -0.10249,0.17082 -0.26033,0.46121 -0.34164,0.79858 -0.27331,1.14022 0.48257,2.07119 1.87475,2.07119 l 7.17016,0 0.11957,-0.0273 c 0.51246,-0.11513 0.75161,-0.0724 0.62349,0.68755 -0.40142,2.32742 -3.17297,12.39297 -3.51888,13.64422 -0.0471,0.0854 -0.1025,0.20499 -0.16228,0.35873 -0.12368,0.30337 -0.25623,0.73025 -0.34591,1.27687 -0.12812,0.82421 -0.15374,1.8961 0.10659,3.21568 l -20.9425,0 53.99184,-93.51525 53.99185,93.51525 z m -28.45856,-6.3972 c -0.0769,-0.0239 -2.45554,-0.85409 -3.2712,-1.47759 -0.1879,-0.14075 -0.30748,-0.34591 -0.34164,-0.39715 -0.0137,-0.17082 0.0512,-0.51673 0.38007,-1.34094 0.66193,-1.66122 1.26407,-4.10394 1.26407,-5.0648 0,-0.77723 -0.11103,-2.46835 -0.14964,-2.73312 -0.003,-0.0769 0,-0.1879 0.0308,-0.31191 0.0557,-0.20055 0.2306,-0.59787 0.98221,-0.95232 1.81923,-0.84983 3.11746,-1.26834 3.31817,-1.3324 0.0171,-0.003 1.52457,-0.38434 2.57511,0.29484 1.46905,0.94378 2.39575,1.60143 2.31461,3.56159 -0.0984,2.36158 -1.40499,5.67548 -2.45126,7.4093 -1.08044,1.78934 -2.34878,3.15163 -4.65057,2.3445 m -21.27133,6.3972 -6.35022,0 c 0.11103,-1.00356 0.20054,-1.75944 0.22617,-1.95588 l 0.10659,-0.50819 c 1.34093,0.80712 3.74949,1.95161 6.01712,2.46407"
       id="path4617"
       style="fill:#006bb6;fill-opacity:1;fill-rule:nonzero;stroke:none" />
    <path
       d="m 352.31672,236.59571 c -0.99503,-0.7516 -0.96513,-1.42207 -0.32012,-3.03632 0.64485,-1.61424 1.18293,-3.90323 1.18293,-4.65483 0,-0.75588 -0.10659,-2.39575 -0.10659,-2.39575 0,0 -0.45695,-1.63987 1.61424,-2.60927 2.07119,-0.9694 3.49754,-1.39645 3.49754,-1.39645 0,0 1.96015,-0.53809 3.46764,0.42705 1.50748,0.9694 2.93383,1.9388 2.82279,4.54807 -0.10659,2.60927 -1.50321,6.10681 -2.60927,7.93458 -1.10179,1.83204 -2.82279,3.92885 -5.97015,2.82706 0,0 -2.58365,-0.88826 -3.57867,-1.64414 m -9.54882,-29.72263 4.7616,15.95029 c 0.64484,1.85767 0.7516,4.22352 0.7516,4.22352 0.11104,5.86339 -0.96513,12.1581 -0.96513,12.1581 -0.75588,3.90323 0.75161,3.04059 0.75161,3.04059 0.86264,0 1.63987,-1.63987 1.63987,-1.63987 1.07616,-1.42635 2.28898,-0.53809 2.28898,-0.53809 1.8534,1.07617 5.61997,2.07119 5.61997,2.07119 3.25412,0.1066 5.11178,-1.28968 5.11178,-1.28968 0,0 3.47191,-2.50251 5.32531,-4.36018 1.85766,-1.85339 2.15232,-1.93453 2.25909,-5.43207 0.11103,-3.49753 -0.53809,-8.87835 -1.72101,-11.70115 -1.18293,-2.82706 -3.46764,-3.68543 -6.40147,-3.68543 -2.92956,0 -7.28973,2.25909 -8.25913,3.04059 -0.96514,0.77723 -0.75161,-0.24359 -0.75161,-0.24359 l -0.32456,-1.50748 c 0,0 -0.9694,-8.04134 -0.85837,-9.65559 0.10659,-1.61424 0.21353,-9.98014 -0.45694,-12.58941 -0.67474,-2.60927 -1.83204,-0.85837 -1.83204,-0.85837 0,0 -4.89399,6.18367 -6.50823,8.22924 -1.61425,2.04557 -0.43132,4.78722 -0.43132,4.78722"
       id="path4619"
       style="fill:#000000;fill-opacity:1;fill-rule:nonzero;stroke:none" />
    <path
       d="m 322.87167,202.92288 c 0,0 -0.53808,-13.36665 -7.58867,-11.62002 -7.04631,1.74664 -10.19367,16.48838 -10.19367,16.48838 0,0 0.75161,7.72105 -1.5331,8.68618 -2.28472,0.9694 -3.25412,-1.18293 -3.89896,-1.39645 l -6.40147,6.83279 c 0,0 -1.10179,1.39645 0.43132,1.39645 l 7.04631,0 c 0,0 2.39575,-0.53808 1.96443,1.96443 -0.43132,2.50251 -3.57867,13.8791 -3.57867,13.8791 0,0 -1.18293,1.85766 0,5.5431 1.18292,3.68543 5.53883,15.27982 6.93955,16.81293 1.40072,1.53311 2.39574,1.72101 2.39574,-0.43132 0,-2.15233 1.72101,-17.88909 1.50322,-21.14321 -0.21353,-3.25412 -0.42705,-13.47768 -0.42705,-13.47768 l -0.11104,-1.18292 c 0,0 -0.34591,-0.53809 0.64912,-0.53809 l 7.04631,0 c 0,0 1.82777,-0.1879 2.60927,-0.64484 0,0 0.85837,-0.0239 0.1066,-1.20855 l -3.25412,-5.75662 c 0,0 -0.53808,-0.86264 -1.50748,-0.86264 -0.96941,0 -2.09682,0.32455 -4.35591,0.32455 0,0 -1.61424,0.45695 -1.07616,-1.9388 0.53808,-2.39148 2.17795,-9.14313 5.64559,-13.36664 0,0 1.1872,-1.83204 3.36515,-0.64485 2.17795,1.18293 4.22352,2.28472 4.22352,2.28472"
       id="path4621"
       style="fill:#e03a3e;fill-opacity:1;fill-rule:nonzero;stroke:none" />
    <path
       d="m 327.22757,221.807 c -0.99502,0.7516 -0.9694,1.42634 -0.32456,3.03632 0.64912,1.61424 1.1872,3.90323 1.1872,4.65483 0,0.75588 -0.10659,2.39575 -0.10659,2.39575 0,0 -0.46121,1.63987 1.61425,2.60927 2.06691,0.9694 3.49326,1.39645 3.49326,1.39645 0,0 1.96443,0.53809 3.47191,-0.42705 1.50321,-0.9694 2.92956,-1.9388 2.8228,-4.54807 -0.1066,-2.60927 -1.50749,-6.10681 -2.60928,-7.93458 -1.10178,-1.82777 -2.82279,-3.92885 -5.97015,-2.82279 0,0 -2.58364,0.88399 -3.57867,1.63987 m -9.54882,29.72263 4.7616,-15.95029 c 0.64484,-1.85767 0.75161,-4.22352 0.75161,-4.22352 0.10659,-5.86339 -0.96514,-12.15809 -0.96514,-12.15809 -0.75587,-3.90324 0.75161,-3.0406 0.75161,-3.0406 0.86264,0 1.63987,1.63987 1.63987,1.63987 1.07616,1.42635 2.28471,0.53809 2.28471,0.53809 1.85767,-1.07617 5.62424,-2.07119 5.62424,-2.07119 3.25412,-0.10659 5.11178,1.29396 5.11178,1.29396 0,0 3.46764,2.49823 5.32531,4.3559 1.85339,1.85766 2.15233,1.93453 2.25909,5.43207 0.10659,3.49753 -0.53808,8.87835 -1.72101,11.70115 -1.18293,2.82706 -3.47191,3.68543 -6.40147,3.68543 -2.93383,0 -7.28973,-2.25909 -8.25913,-3.04059 -0.9694,-0.77723 -0.75161,0.24325 -0.75161,0.24325 l -0.32456,1.50748 c 0,0 -0.9694,8.04134 -0.86264,9.65559 0.11104,1.61424 0.21797,9.98014 -0.45694,12.58941 -0.67047,2.60927 -1.82777,0.85837 -1.82777,0.85837 0,0 -4.89398,-6.18367 -6.50823,-8.22924 -1.61425,-2.04557 -0.43132,-4.78722 -0.43132,-4.78722"
       id="path4623"
       style="fill:#ffe11a;fill-opacity:1;fill-rule:nonzero;stroke:none" />
    <path
       d="m 335.40556,295.25948 1.67831,4.52245 7.20859,0 -9.7837,-25.99449 -7.36233,0 -9.97587,25.99449 7.13172,0 1.78934,-4.52245 9.31394,0 z m -1.83204,-5.14168 -5.61142,0 2.84414,-8.30184 2.76728,8.30184 z"
       id="path4625"
       style="fill:#006bb6;fill-opacity:1;fill-rule:nonzero;stroke:none" />
  </g>
</svg>
