<?xml version="1.0" encoding="UTF-8" standalone="no"?>
<!-- Created with Inkscape (http://www.inkscape.org/) -->

<svg
   xmlns:svg="http://www.w3.org/2000/svg"
   xmlns="http://www.w3.org/2000/svg"
   version="1.1"
   width="200"
   height="173.49361"
   id="svg5894">
  <defs
     id="defs5896" />
  <g
     transform="translate(6.4141071,-324.26019)"
     id="layer1">
    <path
       d="M 192.50335,496.66784 -5.3315602,496.67126 93.588028,325.34274 192.50335,496.66699 z"
       id="path4627"
       style="fill:#ffffff;fill-opacity:1;fill-rule:nonzero;stroke:none" />
    <path
       d="M 192.50335,496.66784 -5.3315602,496.67126 93.588028,325.34274 192.50335,496.66699 z"
       id="path4629"
       style="fill:none;stroke:#006bb6;stroke-width:2.1650939;stroke-linecap:butt;stroke-linejoin:miter;stroke-miterlimit:3.86400008;stroke-opacity:1;stroke-dasharray:none" />
    <path
       d="m 90.453553,408.69756 c 0.03416,-0.0512 0.115301,-0.14519 0.303199,-0.28628 0.819917,-0.62348 3.198531,-1.45194 3.271128,-1.47756 2.306017,-0.80711 3.574326,0.55515 4.650467,2.34445 1.046249,1.73378 2.352993,5.04761 2.451213,7.40914 0.0811,1.96012 -0.84554,2.61776 -2.31456,3.56152 -1.050519,0.67899 -2.557971,0.29893 -2.570782,0.29483 -0.200709,-0.0642 -1.498911,-0.48256 -3.318102,-1.33664 -0.751591,-0.35017 -0.926677,-0.74732 -0.982192,-0.94803 -0.03416,-0.12401 -0.03843,-0.27774 -0.03416,-0.35017 l 0.03843,-0.2265 c 0,0 0.11103,-1.69108 0.11103,-2.46829 0,-0.96511 -0.597856,-3.40351 -1.264039,-5.0647 -0.32882,-0.82419 -0.354443,-1.28112 -0.341632,-1.45194 m 26.467947,-5.69671 -0.11103,-0.50818 c -0.0811,-0.67899 -0.94376,-7.98138 -0.84554,-9.39916 0.10249,-1.58858 0.23061,-10.12939 -0.49109,-12.93931 -0.33309,-1.28966 -1.11031,-2.63057 -2.56224,-2.19926 -0.46121,0.13665 -0.79003,0.43985 -0.95657,0.61067 -0.13666,0.14075 -0.23488,0.2733 -0.28612,0.34163 -0.35444,0.45266 -4.93658,6.23906 -6.48674,8.20344 -1.05052,1.33664 -1.16582,2.86544 -1.05479,3.96293 0.0555,0.55516 0.17082,1.03344 0.27331,1.3708 0.0726,0.24769 0.13665,0.42704 0.17508,0.51672 l 4.75296,15.92006 c 0.54661,1.57578 0.68326,3.63838 0.69607,3.90315 0.10249,5.56006 -0.87543,11.51727 -0.94375,11.92723 -0.35872,1.85762 -0.35872,3.24978 0.40995,3.99283 0.46975,0.45266 1.02917,0.48255 1.37934,0.43131 0.11958,-0.0171 0.23061,-0.0512 0.32028,-0.0813 0.44413,-0.0642 0.80284,-0.28185 1.04625,-0.47829 0.29893,-0.23914 0.54661,-0.52953 0.72597,-0.77294 0.18363,-0.24768 0.33309,-0.49537 0.43558,-0.67899 l 0.11103,-0.20498 c 0.1452,-0.17492 0.2605,-0.23915 0.32028,-0.26477 0.0641,-0.0307 0.11957,-0.0342 0.17082,-0.0307 0.0641,0.007 0.19217,0.0642 0.24341,0.0898 1.03771,0.60213 2.59214,1.18291 3.77077,1.56724 1.20852,0.39288 2.29747,0.679 2.29747,0.679 l 0.12384,0.003 c 1.79784,0.0598 3.22416,-0.29483 4.21489,-0.67899 0.50391,-0.19234 0.88824,-0.39288 1.14874,-0.54234 0.23914,-0.13666 0.38861,-0.24324 0.43558,-0.27741 0,0 0.88397,-0.63629 2.00282,-1.50745 1.10176,-0.86262 2.4811,-1.98574 3.45902,-2.96793 0.48256,-0.47828 0.86263,-0.84554 1.16155,-1.1829 0.33309,-0.37153 0.62348,-0.75586 0.84554,-1.23415 0.43131,-0.92667 0.52526,-2.04979 0.58078,-3.76649 0.10676,-3.58287 -0.54234,-9.13866 -1.81065,-12.16638 -1.42205,-3.39497 -4.24905,-4.36862 -7.42623,-4.36862 -2.72025,0 -6.35009,1.66546 -8.12658,2.72879 m 30.65295,26.29713 -45.03993,0 c 2.07969,-0.47401 3.83055,-1.66118 4.85118,-4.10385 1.26831,-3.02772 1.91741,-8.58778 1.80638,-12.16638 -0.0513,-1.7167 -0.1452,-2.83554 -0.57651,-3.76649 -0.22206,-0.47829 -0.51245,-0.86262 -0.84554,-1.23415 -0.3032,-0.33719 -0.68326,-0.70461 -1.16155,-1.1829 -0.98219,-0.98219 -2.35726,-2.10531 -3.46329,-2.96793 -1.02063,-0.79856 -1.84909,-1.39642 -1.98147,-1.49464 0,0 -0.15373,-0.11957 -0.45266,-0.29039 -0.2605,-0.14929 -0.64483,-0.35017 -1.14874,-0.54234 -0.990733,-0.38433 -2.417047,-0.73878 -4.214886,-0.67899 l -0.123842,0.003 c 0,0 -1.093223,0.28628 -2.301746,0.67899 -1.174361,0.38434 -2.797114,1.00354 -3.834821,1.60567 -0.05124,0.0239 -0.115301,0.0468 -0.175087,0.0512 -0.05551,0.003 -0.10676,0 -0.175086,-0.0308 -0.05979,-0.0239 -0.170816,-0.0895 -0.31601,-0.26477 l -0.11103,-0.20498 c -0.10249,-0.18345 -0.251954,-0.43131 -0.435581,-0.67899 -0.183628,-0.24358 -0.427041,-0.5338 -0.725969,-0.77294 -0.247683,-0.19644 -0.602126,-0.41423 -1.046248,-0.47829 -0.08968,-0.0342 -0.200709,-0.0642 -0.324551,-0.0813 -0.345902,-0.0512 -0.905325,-0.0205 -1.375069,0.43131 -0.768672,0.73878 -0.772943,2.12239 -0.418499,3.97148 0,0 1.054789,6.16219 0.952299,11.91869 0,0 -0.11103,2.24623 -0.696075,3.93304 l -2.493915,8.34437 -7.913055,0 c 0.09822,-1.63557 0.145194,-2.9722 0.09395,-3.71952 -0.21352,-3.24124 -0.43131,-13.46458 -0.43131,-13.46458 l -0.04698,-0.54661 6.580689,0 c 0,0 0.555153,-0.0557 1.16155,-0.17082 0.503907,-0.094 1.251227,-0.26066 1.814921,-0.55088 0.247683,-0.0769 0.563693,-0.2265 0.785753,-0.51245 0.593586,-0.75586 0.256225,-1.66119 -0.149464,-2.30602 l -3.254046,-5.75223 c 0,0 -0.06833,-0.12367 -0.187897,-0.2692 -0.10249,-0.12367 -0.247684,-0.28185 -0.439852,-0.44413 -0.380066,-0.32455 -1.003544,-0.69607 -1.832002,-0.69607 -0.9523,0 -2.058334,0.31191 -4.432677,0.38861 0,-0.12812 0.01298,-0.3331 0.08541,-0.64484 0.542341,-2.41704 2.310287,-9.12157 5.589956,-13.1144 0.08541,-0.0895 0.209249,-0.20054 0.367254,-0.28595 0.256224,-0.13665 0.696076,-0.28184 1.434855,0.12368 2.177905,1.1829 5.9444,3.21134 5.9444,3.21134 0,0 -0.111031,-2.82701 -0.281847,-4.1124 -0.166546,-1.28112 -0.469744,-2.96793 -0.999274,-4.60349 -1.012085,-3.10885 -3.232694,-7.012 -7.76359,-5.88889 -4.112397,1.02063 -6.841184,5.67537 -8.49383,9.54435 -1.712431,4.00564 -2.55797,7.96003 -2.55797,7.96003 l 0.01708,0.17082 c 0.06833,0.67045 0.452663,6.99919 -0.858351,7.55434 -0.713157,0.30303 -1.114574,0.13665 -1.473288,-0.12811 -0.115301,-0.0854 -0.222061,-0.17492 -0.32028,-0.26477 -0.115301,-0.11103 -0.226332,-0.22206 -0.324551,-0.32011 -0.136653,-0.13665 -0.260494,-0.25622 -0.375795,-0.35017 -0.123842,-0.10659 -0.337362,-0.26921 -0.619209,-0.36299 l -0.678993,-0.2265 -6.918051,7.3878 c 0,0 -0.136653,0.16637 -0.256225,0.36725 -0.10676,0.17082 -0.260494,0.46121 -0.341632,0.79857 -0.277576,1.14019 0.482556,2.07114 1.870436,2.07114 l 7.170005,0 0.123842,-0.0239 c 0.512448,-0.11513 0.75159,-0.0728 0.619208,0.68753 -0.397147,2.32737 -3.168638,12.39271 -3.514541,13.64394 -0.04697,0.0854 -0.102489,0.20498 -0.166545,0.35871 -0.119572,0.30337 -0.251954,0.73024 -0.341633,1.27685 -0.132382,0.82419 -0.153734,1.89606 0.10676,3.21561 l -20.942051,0 53.990691,-93.51326 53.986425,93.51326 z m -28.45796,-6.39706 c -0.0726,-0.0239 -2.45121,-0.85408 -3.27113,-1.47756 -0.1879,-0.14075 -0.3032,-0.3459 -0.33736,-0.39714 -0.0126,-0.17082 0.047,-0.51672 0.38007,-1.34091 0.66191,-1.66119 1.25977,-4.10386 1.25977,-5.0647 0,-0.77721 -0.10676,-2.46829 -0.14947,-2.73305 -0.004,-0.0769 0,-0.1879 0.0342,-0.31191 0.0555,-0.20088 0.23061,-0.59786 0.9822,-0.9523 1.81919,-0.84981 3.11739,-1.26831 3.3181,-1.33237 0.0171,-0.003 1.52026,-0.38434 2.57505,0.29449 1.46475,0.94376 2.39143,1.6014 2.31029,3.56151 -0.094,2.36154 -1.40069,5.67537 -2.44694,7.40915 -1.08041,1.7893 -2.34872,3.15156 -4.65474,2.34445 m -21.266601,6.39706 -6.354358,0 c 0.115301,-1.00354 0.20498,-1.7594 0.226332,-1.95584 l 0.11103,-0.50818 c 1.340906,0.80711 3.745143,1.95157 6.016996,2.46402"
       id="path4631"
       style="fill:#006bb6;fill-opacity:1;fill-rule:nonzero;stroke:none" />
    <path
       d="m 115.17491,422.31161 c -0.995,-0.7516 -0.96938,-1.42205 -0.32455,-3.03626 0.6491,-1.61421 1.1829,-3.90315 1.1829,-4.65474 0,-0.75586 -0.10676,-2.39569 -0.10676,-2.39569 0,0 -0.45693,-1.63984 1.61421,-2.60922 2.07115,-0.96938 3.49746,-1.39642 3.49746,-1.39642 0,0 1.96439,-0.53807 3.47184,0.42704 1.50318,0.96938 2.92949,1.93876 2.82273,4.54798 -0.10676,2.60921 -1.50745,6.10667 -2.60921,7.9344 -1.10177,1.83201 -2.82274,3.92877 -5.97002,2.82701 0,0 -2.5836,-0.88824 -3.5786,-1.6441 m -9.54862,-29.722 4.7615,15.94995 c 0.64483,1.85762 0.75159,4.22343 0.75159,4.22343 0.10676,5.86326 -0.96938,12.15783 -0.96938,12.15783 -0.75159,3.90315 0.75586,3.04053 0.75586,3.04053 0.85835,0 1.63983,-1.63984 1.63983,-1.63984 1.07615,-1.42631 2.28467,-0.53807 2.28467,-0.53807 1.85762,1.07614 5.62412,2.07115 5.62412,2.07115 3.25404,0.10659 5.1074,-1.28966 5.1074,-1.28966 0,0 3.47184,-2.50246 5.32946,-4.36009 1.85335,-1.85335 2.15228,-1.93449 2.25904,-5.43195 0.10676,-3.49746 -0.53807,-8.87816 -1.72097,-11.7009 -1.1829,-2.827 -3.47184,-3.68535 -6.40133,-3.68535 -2.93377,0 -7.28958,2.25904 -8.25896,3.04052 -0.96938,0.77722 -0.75586,-0.24324 -0.75586,-0.24324 l -0.32028,-1.50745 c 0,0 -0.96938,-8.04117 -0.86262,-9.65538 0.11103,-1.61421 0.21779,-9.97993 -0.45693,-12.58914 -0.67046,-2.60922 -1.82774,-0.85836 -1.82774,-0.85836 0,0 -4.89388,6.18355 -6.50809,8.22907 -1.61421,2.04552 -0.43131,4.78712 -0.43131,4.78712"
       id="path4633"
       style="fill:#000000;fill-opacity:1;fill-rule:nonzero;stroke:none" />
    <path
       d="m 85.726218,388.63949 c 0,0 -0.5338,-13.36636 -7.584233,-11.61977 -7.046163,1.7466 -10.193449,16.48802 -10.193449,16.48802 0,0 0.75159,7.72089 -1.533075,8.686 -2.288935,0.96938 -3.254046,-1.1829 -3.903147,-1.39642 l -6.401332,6.83264 c 0,0 -1.101764,1.39642 0.43131,1.39642 l 7.046163,0 c 0,0 2.395696,-0.53807 1.964385,1.96439 -0.42704,2.50246 -3.578597,13.87881 -3.578597,13.87881 0,0 -1.182901,1.85762 0,5.54298 1.187172,3.68535 5.542982,15.2795 6.943674,16.81257 1.396421,1.53307 2.391425,1.72097 2.391425,-0.43131 0,-2.15228 1.720972,-17.88871 1.507452,-21.14276 -0.21352,-3.25405 -0.431311,-13.47739 -0.431311,-13.47739 l -0.10676,-1.1829 c 0,0 -0.350173,-0.53807 0.644831,-0.53807 l 7.046163,0 c 0,0 1.832002,-0.1879 2.609215,-0.64483 0,0 0.862621,-0.0239 0.111031,-1.20853 l -3.258317,-5.7565 c 0,0 -0.53807,-0.86262 -1.503181,-0.86262 -0.969381,0 -2.101038,0.32455 -4.360081,0.32455 0,0 -1.614211,0.45694 -1.076141,-1.93876 0.538071,-2.39143 2.182176,-9.14293 5.649742,-13.36636 0,0 1.182901,-1.832 3.360806,-0.64483 2.177905,1.1829 4.223427,2.28467 4.223427,2.28467"
       id="path4635"
       style="fill:#e03a3e;fill-opacity:1;fill-rule:nonzero;stroke:none" />
    <path
       d="m 90.086299,407.5232 c -0.995004,0.75159 -0.969381,1.42632 -0.324551,3.03626 0.644831,1.61421 1.182902,3.90315 1.182902,4.65474 0,0.75586 -0.106761,2.39569 -0.106761,2.39569 0,0 -0.456933,1.63984 1.614212,2.60922 2.071145,0.96938 3.497459,1.39642 3.497459,1.39642 0,0 1.964385,0.53807 3.467567,-0.42704 1.507453,-0.96938 2.933763,-1.93876 2.827003,-4.54798 -0.10676,-2.60921 -1.50745,-6.10667 -2.609213,-7.93441 -1.101763,-1.82773 -2.827006,-3.92876 -5.974292,-2.82273 0,0 -2.579323,0.88397 -3.574326,1.63983 m -9.548619,29.722 4.761498,-15.94995 c 0.644831,-1.85763 0.751591,-4.22343 0.751591,-4.22343 0.10676,-5.86326 -0.969381,-12.15783 -0.969381,-12.15783 -0.751591,-3.90315 0.751591,-3.04053 0.751591,-3.04053 0.862621,0 1.644104,1.63984 1.644104,1.63984 1.076141,1.42631 2.284665,0.53807 2.284665,0.53807 1.857625,-1.07614 5.624119,-2.07115 5.624119,-2.07115 3.254047,-0.10659 5.107403,1.29393 5.107403,1.29393 0,0 3.47183,2.49819 5.32946,4.35581 1.85335,1.85763 2.14801,1.9345 2.25904,5.43195 0.10676,3.49746 -0.53807,8.87817 -1.72097,11.70091 -1.18717,2.827 -3.47184,3.68535 -6.401332,3.68535 -2.933766,0 -7.293847,-2.25904 -8.258957,-3.04052 -0.969382,-0.77722 -0.755861,0.24358 -0.755861,0.24358 l -0.320281,1.50745 c 0,0 -0.969381,8.04117 -0.862621,9.65538 0.10676,1.61421 0.217791,9.97993 -0.456933,12.58915 -0.670453,2.60921 -1.827732,0.85835 -1.827732,0.85835 0,0 -4.898151,-6.18355 -6.512363,-8.22907 -1.609941,-2.04552 -0.42704,-4.78712 -0.42704,-4.78712"
       id="path4637"
       style="fill:#ffe11a;fill-opacity:1;fill-rule:nonzero;stroke:none" />
    <path
       d="m 76.228845,476.84464 4.206346,0 c 5.769312,0 8.809839,-3.04053 8.809839,-8.80557 0,-2.65192 -0.858351,-4.79566 -2.532349,-6.35436 -1.678268,-1.59713 -3.471836,-2.18218 -6.508092,-2.18218 l -10.714438,0 0,25.99394 6.738694,0 0,-8.65183 z m 0,-5.41487 0,-6.5081 2.259042,0 c 2.455481,0 3.702439,1.08896 3.702439,3.19427 0,2.29747 -1.127386,3.31383 -3.740872,3.31383 l -2.220609,0 z"
       id="path4639"
       style="fill:#006bb6;fill-opacity:1;fill-rule:nonzero;stroke:none" />
    <path
       d="m 105.4512,471.07532 0,5.26114 5.53445,0 c -0.43132,3.00209 -2.26332,4.52235 -5.34228,4.52235 -4.05261,0 -6.93513,-3.39069 -6.93513,-8.18209 0,-4.67609 2.88252,-8.14365 6.74296,-8.14365 2.60922,0 4.40279,1.32382 5.57288,4.12948 l 6.42695,-2.65192 c -2.45548,-4.98783 -6.15365,-7.32374 -11.68809,-7.32374 -8.378525,0 -14.105133,5.64974 -14.105133,13.94713 0,8.18636 5.649741,13.79767 13.870263,13.79767 5.45758,0 9.58705,-2.45548 11.80766,-7.01627 1.05052,-2.18218 1.4434,-4.32592 1.52027,-8.3401 l -13.4048,0 z"
       id="path4641"
       style="fill:#006bb6;fill-opacity:1;fill-rule:nonzero;stroke:none" />
  </g>
</svg>
